<svg width="116" height="99" viewBox="0 0 116 99" fill="none" xmlns="http://www.w3.org/2000/svg">
<path d="M53.1934 98.288H52.9054C49.0174 98.144 46.1374 94.976 46.1374 90.512C46.1374 87.2 46.7134 83.888 46.7134 80.576L45.9934 63.152C45.9934 61.712 45.7054 61.28 44.5534 61.28C37.7854 61.712 32.3134 62.288 24.9694 62.288C14.0254 62.288 0.345373 61.568 0.345373 52.784C0.345373 50.768 1.20937 48.32 3.08137 46.16C15.0334 31.616 29.7214 16.064 42.9694 3.82399C45.2734 1.80799 47.8654 0.223997 50.7454 0.223997C54.7774 0.223997 58.3774 2.96 59.0974 7.424C59.6734 10.88 59.6734 14.336 59.6734 17.936V47.456C59.6734 58.976 60.8254 68.336 60.9694 80.144C60.9694 83.888 60.6814 87.488 60.3934 91.232C59.9614 95.408 57.0814 98.288 53.1934 98.288ZM21.6574 47.888C29.2894 47.888 36.7774 47.744 44.4094 47.024C45.5614 46.88 45.7054 46.304 45.7054 45.584L46.1374 27.584V19.088L20.3614 47.6L21.6574 47.888ZM26.4094 32.336C26.8414 32.336 27.2734 31.616 27.7054 31.184C29.8654 28.304 32.4574 26 34.9054 23.408L46.2814 11.744C46.7134 11.312 47.4334 10.88 47.4334 10.304C47.4334 9.584 47.1454 9.44 46.4254 9.29599C45.7054 9.29599 45.1294 9.87199 44.6974 10.304L31.3054 23.84C29.4334 25.856 27.5614 27.728 25.9774 29.888C25.6894 30.32 25.2574 30.752 25.2574 31.328C25.2574 31.76 25.9774 32.336 26.4094 32.336ZM18.2014 40.112C19.4974 39.968 20.6494 39.68 20.7934 37.952C20.7934 37.52 20.5054 36.8 19.6414 36.8C18.2014 36.944 17.1934 37.664 17.1934 38.96C17.1934 39.536 17.6254 40.112 18.2014 40.112ZM86.646 97.712C81.318 97.712 75.99 94.832 71.814 89.504C65.046 80.864 64.614 73.088 64.326 61.136C64.326 47.168 66.63 33.776 71.67 21.104C75.99 10.88 82.614 4.112 91.974 1.664C92.55 1.664 93.27 1.52 93.702 1.23199C94.71 0.799998 95.718 0.655992 96.582 0.655992C98.742 0.655992 100.47 1.664 102.342 3.392C111.702 13.616 115.734 26.432 115.734 41.408C115.734 56.096 114.294 69.056 108.102 80.72C103.206 90.08 94.71 97.712 86.646 97.712ZM86.646 79.136C89.814 79.136 93.99 73.808 96.438 69.2C99.894 61.28 100.614 52.784 100.614 43.856V39.248C100.326 31.904 98.886 25.136 94.422 19.952C93.846 19.232 93.414 18.944 92.838 18.944L91.83 19.376C88.806 21.536 86.502 24.272 85.206 28.16C81.462 38.672 79.302 49.904 79.302 61.424L79.446 66.896C79.734 71.792 82.182 79.136 86.646 79.136ZM72.966 56.24C73.542 56.24 73.686 55.808 73.686 55.52L73.542 54.656C73.542 52.064 73.686 49.76 74.118 47.312C76.278 35.216 79.158 23.408 86.07 13.904C86.358 13.616 86.646 13.328 86.646 12.896C86.358 12.32 86.358 12.032 85.926 12.032C85.638 12.032 85.35 12.464 85.062 12.608C83.766 13.616 82.758 15.2 81.894 16.64C75.99 27.584 73.542 39.68 72.246 52.352V54.656C72.246 55.376 72.246 56.24 72.966 56.24ZM72.246 66.32C72.966 66.32 73.542 65.744 73.686 64.736C73.542 63.44 72.678 63.296 72.102 63.152H71.814C71.382 63.152 71.094 63.584 71.094 64.16V64.448C71.094 65.456 71.382 66.32 72.246 66.32Z" fill="#FF6961"/>
</svg>
