<svg width="65" height="50" viewBox="0 0 65 50" fill="none" xmlns="http://www.w3.org/2000/svg">
<path fill-rule="evenodd" clip-rule="evenodd" d="M37.4627 13.11C36.7278 13.8211 35.9878 14.5241 35.2488 15.2292C34.9373 15.5262 34.6241 15.8205 34.3121 16.1174C34.1857 16.2437 34.0867 16.4043 34.0234 16.5857C33.9601 16.7672 33.9345 16.9641 33.9486 17.1599C33.9559 19.1572 33.9542 21.1546 33.9548 23.1512C33.9553 23.6273 33.948 24.1034 33.9548 24.5789C33.9576 24.8132 33.8892 24.9156 33.6817 24.9149C32.4905 24.9088 31.2996 24.9095 30.1088 24.9169C29.886 24.9189 29.8261 24.797 29.8272 24.558C29.8317 23.298 29.8295 22.0381 29.8295 20.7788C29.8295 19.5842 29.8227 18.3895 29.8323 17.1949C29.8423 16.9712 29.8056 16.7481 29.7256 16.5454C29.6456 16.3427 29.5248 16.1668 29.3738 16.0332C28.3969 15.1154 27.4314 14.1793 26.4584 13.2561C25.9982 12.8197 25.9615 12.5551 26.3035 11.9854C26.3945 11.8339 26.481 11.679 26.5698 11.5248C26.6076 11.4424 26.66 11.3708 26.7233 11.3148C26.7865 11.2589 26.8592 11.2198 26.9363 11.2005C27.0134 11.1811 27.0932 11.1818 27.17 11.2025C27.2469 11.2233 27.3191 11.2636 27.3816 11.3207C28.2019 11.9201 29.0052 12.5584 29.8515 13.0992C30.6351 13.6116 31.5371 13.8072 32.4221 13.6568C33.1928 13.5259 33.9289 13.1896 34.5754 12.6729C35.1662 12.2002 35.7818 11.7726 36.3873 11.3248C36.4426 11.267 36.5078 11.2243 36.5784 11.1998C36.649 11.1752 36.7232 11.1694 36.7959 11.1827C36.8686 11.1959 36.9379 11.228 36.9991 11.2767C37.0603 11.3253 37.1117 11.3893 37.1499 11.4642C37.3109 11.7047 37.4593 11.9568 37.5943 12.219C37.6379 12.2865 37.6691 12.364 37.6862 12.4467C37.7032 12.5293 37.7056 12.6153 37.6932 12.6991C37.6808 12.7829 37.6539 12.8627 37.6142 12.9334C37.5745 13.0042 37.523 13.0643 37.4627 13.11ZM30.9263 9.12068C31.3687 8.80997 31.8913 8.70288 32.3955 8.81962C32.8996 8.93635 33.3505 9.26884 33.663 9.75435C33.8068 9.98909 33.9073 10.2574 33.958 10.5416C34.0086 10.8258 34.0083 11.1196 33.957 11.4037C33.9057 11.6878 33.8046 11.9557 33.6603 12.19C33.516 12.4243 33.3318 12.6196 33.1197 12.7632C32.8836 12.938 32.6206 13.0551 32.3461 13.1077C32.0715 13.1604 31.791 13.1475 31.5207 13.0698C31.2504 12.9921 30.9958 12.8511 30.7716 12.6551C30.5475 12.4591 30.3583 12.212 30.2151 11.9281C30.1133 11.6717 30.0369 11.4021 29.9872 11.1248C29.9752 10.7204 30.0564 10.3199 30.2219 9.96662C30.3875 9.61334 30.6311 9.32078 30.9263 9.12068ZM38.4717 25.0684C38.4751 23.9856 38.4728 22.9027 38.4733 21.8199C38.4733 21.5121 38.4659 21.2037 38.4784 20.8959C38.4747 20.8158 38.4849 20.7356 38.5083 20.6604C38.5317 20.5852 38.5679 20.5165 38.6145 20.4586C38.6612 20.4008 38.7174 20.355 38.7795 20.3241C38.8417 20.2932 38.9085 20.2779 38.9759 20.2791C39.0928 20.2665 39.2102 20.262 39.3275 20.2656C39.86 20.2757 40.3931 20.2925 40.9251 20.2986C41.3525 20.304 41.452 20.1403 41.3548 19.6454C41.1699 18.7012 40.9907 17.7558 40.8115 16.8103C40.5972 15.683 40.3847 14.5557 40.1738 13.4284C39.9986 12.4917 39.8271 11.5536 39.6594 10.6142C39.6226 10.445 39.6264 10.267 39.6702 10.1002C39.7141 9.93345 39.7963 9.78468 39.9075 9.67073C40.7849 8.75423 41.6713 7.85119 42.555 6.94342C43.4623 6.01074 44.3689 5.07761 45.2748 4.14404C45.3311 4.09625 45.3788 4.03551 45.4151 3.96541C45.4514 3.89531 45.4755 3.81726 45.4861 3.73587C45.4967 3.65447 45.4935 3.57137 45.4767 3.49147C45.46 3.41157 45.4299 3.33648 45.3884 3.27062C45.1108 2.77431 44.8286 2.2816 44.5416 1.79248C44.5148 1.72919 44.4759 1.67432 44.428 1.63236C44.38 1.5904 44.3244 1.56254 44.2657 1.55105C44.207 1.53956 44.1469 1.54477 44.0902 1.56625C44.0335 1.58773 43.9819 1.62487 43.9395 1.67464C43.788 1.8073 43.6438 1.95006 43.4969 2.09014C42.2215 3.31036 40.9463 4.53148 39.6713 5.7535C39.363 6.06151 38.9705 6.22398 38.5683 6.21008C37.6435 6.19324 36.7188 6.19347 35.7943 6.21075C35.1464 6.20465 34.4988 6.24288 33.8546 6.32523C33.5085 6.36068 33.1756 6.50018 32.8871 6.73067C32.5986 6.96116 32.3639 7.2751 32.205 7.6431C32.1513 7.73771 32.0885 7.8245 32.0179 7.90168C31.9535 7.82603 31.8949 7.74378 31.8426 7.65588C31.6474 7.20521 31.3495 6.82927 30.983 6.57125C30.6165 6.31324 30.1963 6.18362 29.7707 6.19728C28.3913 6.20065 27.0125 6.19535 25.6331 6.20883C25.2306 6.22133 24.8376 6.06152 24.5256 5.75839C23.9134 5.17656 23.296 4.60214 22.6815 4.02503C21.9743 3.36171 21.2665 2.69906 20.5581 2.0371C20.5057 1.96914 20.4414 1.91566 20.3698 1.8804C20.2982 1.84514 20.221 1.82896 20.1436 1.83299C20.0662 1.83703 19.9905 1.86118 19.9218 1.90375C19.853 1.94633 19.7929 2.0063 19.7457 2.07945C19.4139 2.44848 19.0826 2.81953 18.7575 3.19732C18.7121 3.23943 18.6755 3.29341 18.6504 3.35509C18.6253 3.41677 18.6124 3.4845 18.6128 3.55304C18.6132 3.62158 18.6268 3.6891 18.6526 3.75037C18.6784 3.81165 18.7156 3.86504 18.7615 3.90643C19.0289 4.20811 19.3048 4.497 19.5761 4.79398C20.9657 6.31454 22.3558 7.83466 23.7465 9.35433C23.9061 9.51269 24.0338 9.71179 24.12 9.93689C24.2062 10.162 24.2488 10.4073 24.2446 10.6547C24.2361 11.5779 24.2582 12.5019 24.2633 13.4258C24.2802 16.141 24.2953 18.8566 24.3085 21.5727C24.3147 22.7681 24.313 23.9627 24.3175 25.1573C24.3192 25.5768 24.4459 25.725 24.8003 25.7391C24.8552 25.7418 24.91 25.7405 24.9648 25.7405C27.1119 25.7405 29.259 25.7407 31.4061 25.7411C33.5691 25.7411 35.7318 25.7411 37.8944 25.7411C38.3512 25.7411 38.4694 25.6072 38.4717 25.0684Z" fill="#FF6961"/>
<path fill-rule="evenodd" clip-rule="evenodd" d="M43.2021 43.6539C42.8272 44.5081 42.2381 45.202 41.5168 45.6389C40.7955 46.0758 39.9778 46.234 39.1775 46.0916C38.2702 45.9176 37.4392 45.3827 36.8198 44.574C36.2004 43.7653 35.8293 42.7305 35.7669 41.6384C35.6473 40.4743 35.824 39.2942 36.274 38.2511C36.562 37.5724 36.994 36.9951 37.5271 36.5767C38.0603 36.1583 38.676 35.9132 39.3132 35.8659C40.0569 35.7512 40.8125 35.8987 41.4866 36.2901C42.1606 36.6814 42.7236 37.2995 43.106 38.068C43.5283 38.9416 43.7436 39.9355 43.729 40.9435C43.7412 41.8846 43.5603 42.8149 43.2021 43.6539ZM47.0893 26.1014C47.0899 25.822 47.0248 25.7263 46.784 25.7296C45.8286 25.7439 44.8726 25.7358 43.9167 25.7371C43.5554 25.7378 43.5548 25.7391 43.5543 26.1741C43.5543 28.7223 43.5532 31.2703 43.5509 33.818C43.5396 33.9333 43.5168 34.0465 43.483 34.1554C43.3927 34.1137 43.3073 34.0585 43.2286 33.9911C42.3225 32.9445 41.1644 32.2615 39.9164 32.0375C38.9455 31.8496 37.9512 31.9359 37.0134 32.2894C36.1133 32.6415 35.2854 33.2152 34.5836 33.9732C33.8818 34.7313 33.3217 35.6567 32.9397 36.6894C32.5226 37.7782 32.2844 38.952 32.2381 40.1474C32.1215 41.6493 32.2906 43.1631 32.7327 44.5765C33.3293 46.4447 34.4549 48.0062 35.915 48.9914C37.066 49.7984 38.4069 50.1353 39.7335 49.9507C41.0601 49.7662 42.2997 49.0703 43.2637 47.9691C43.3316 47.9168 43.406 47.8775 43.4841 47.8526C43.5161 47.9332 43.5385 48.0186 43.5509 48.1065C43.5588 48.4802 43.5656 48.854 43.5531 49.2264C43.5452 49.4755 43.6283 49.5483 43.829 49.5462C44.8161 49.5375 45.8033 49.5381 46.7908 49.5482C47.0112 49.5501 47.0898 49.4727 47.0893 49.198C47.083 45.3535 47.0817 41.5087 47.0853 37.6638C47.0847 33.8098 47.0861 29.9558 47.0893 26.1014Z" fill="#FF6961"/>
<path fill-rule="evenodd" clip-rule="evenodd" d="M59.283 44.5331C58.8606 45.1279 58.317 45.5834 57.7044 45.856C57.0917 46.1285 56.4305 46.2089 55.7842 46.0894C54.8779 45.9261 54.0448 45.4014 53.4213 44.601C52.7978 43.8007 52.4206 42.772 52.3515 41.6832C52.1899 40.3484 52.4434 38.9892 53.0644 37.8616C53.374 37.286 53.7929 36.8051 54.2873 36.4579C54.7816 36.1106 55.3375 35.9065 55.9103 35.8622C56.6694 35.7625 57.4367 35.924 58.1213 36.3276C58.6224 36.6214 59.063 37.0431 59.4117 37.5628C59.7605 38.0825 60.0088 38.6873 60.1389 39.3343C60.2514 39.863 60.2865 40.4145 60.3566 40.9552C60.3663 42.2618 59.9858 43.5299 59.283 44.5331ZM63.8673 32.3665C62.7231 32.3739 61.5788 32.3742 60.4346 32.3672C60.2278 32.3659 60.1355 32.4372 60.1463 32.7039C60.1621 33.1039 60.1542 33.5059 60.1463 33.908C60.1333 33.9951 60.1093 34.0793 60.075 34.1578C60.0048 34.1287 59.9377 34.0901 59.8749 34.0426C59.6482 33.8272 59.4351 33.5935 59.2056 33.3834C58.5034 32.7332 57.6817 32.291 56.808 32.0931C55.8309 31.8374 54.8152 31.8828 53.857 32.2251C53.2799 32.4251 52.7248 32.7061 52.2034 33.0622C51.3955 33.6535 50.6971 34.4346 50.1509 35.358C49.6046 36.2813 49.222 37.3275 49.0262 38.4327C48.6786 40.1852 48.6996 42.0128 49.0873 43.7533C49.4824 45.5472 50.3765 47.1285 51.6234 48.2389C52.3052 48.8918 53.1015 49.3535 53.9534 49.5897C54.8053 49.826 55.6909 49.8309 56.5446 49.6039C57.3218 49.4023 58.0505 48.9936 58.6761 48.4085C59.3017 47.8233 59.8078 47.077 60.1565 46.2254C60.1921 46.1466 60.2306 46.0699 60.2679 45.9917L60.3561 46.0039C60.3657 46.146 60.3827 46.2867 60.3827 46.4281C60.3861 47.3716 60.3883 48.3137 60.3827 49.2571C60.381 49.4726 60.4403 49.5548 60.6263 49.5528C61.7078 49.5427 62.7891 49.54 63.8702 49.5447C64.0765 49.546 64.1393 49.4551 64.1393 49.2147C64.1348 43.7068 64.1348 38.1992 64.1393 32.6918C64.1393 32.4481 64.0697 32.3652 63.8673 32.3665Z" fill="#FF6961"/>
<path fill-rule="evenodd" clip-rule="evenodd" d="M10.603 44.3575C10.1708 45.0055 9.60218 45.5054 8.95501 45.8063C8.30783 46.1072 7.60526 46.1983 6.91888 46.0704C6.23251 45.9425 5.58688 45.6001 5.04779 45.0781C4.5087 44.5561 4.09544 43.8732 3.85011 43.0989C3.51792 42.0944 3.42842 40.9992 3.59175 39.9373C3.73384 38.7334 4.24665 37.6356 5.03051 36.8571C5.59032 36.2941 6.28223 35.9503 7.01199 35.8726C7.78517 35.7506 8.57146 35.8992 9.27499 36.3002C9.7911 36.5898 10.2451 37.0155 10.6026 37.5451C10.9601 38.0746 11.2117 38.6942 11.3384 39.3568C11.443 39.878 11.4798 40.4188 11.5482 40.9501C11.5678 42.1809 11.2343 43.3829 10.603 44.3575ZM15.1092 32.3702C13.9175 32.3742 12.7263 32.3755 11.5358 32.3742C11.3978 32.3742 11.3396 32.4435 11.3424 32.6119C11.3475 32.9567 11.3503 33.3028 11.3396 33.6475C11.3255 33.8172 11.3024 33.9856 11.2706 34.1519C11.1459 34.0693 11.0268 33.9752 10.9145 33.8703C10.1116 32.9825 9.12126 32.3712 8.04932 32.102C7.0873 31.8583 6.09072 31.8866 5.13957 32.1848C4.13957 32.5006 3.21487 33.089 2.43844 33.9034C1.66201 34.7179 1.05509 35.7361 0.665561 36.8777C0.267468 37.957 0.0480632 39.1177 0.0193945 40.296C-0.0385759 41.3774 0.0335726 42.4632 0.233644 43.5203C0.603321 45.4221 1.53245 47.1034 2.85281 48.2597C3.84049 49.1807 5.05081 49.6985 6.30471 49.7365C7.45517 49.8367 8.59868 49.453 9.53613 48.6523C10.3458 48.0185 10.9928 47.1306 11.4057 46.0866C11.4305 46.0323 11.4607 45.9816 11.4956 45.9358L11.5708 45.9479C11.5854 46.1183 11.612 46.2886 11.6126 46.459C11.6171 47.383 11.6211 48.3069 11.612 49.2308C11.6097 49.4759 11.6782 49.554 11.8839 49.552C12.9258 49.5419 13.9677 49.5486 15.0096 49.548C15.3149 49.548 15.3257 49.5338 15.3257 49.1675V33.7951C15.3257 33.4126 15.3228 33.0301 15.3263 32.6476C15.3285 32.4644 15.2737 32.3695 15.1092 32.3702Z" fill="#FF6961"/>
<path fill-rule="evenodd" clip-rule="evenodd" d="M30.2365 36.7549C30.1662 35.6559 29.7854 34.6176 29.1561 33.8094C28.4313 32.913 27.4942 32.3012 26.4699 32.0557C25.4455 31.8101 24.3827 31.9424 23.4232 32.435C22.6983 32.8146 22.0235 33.3178 21.4202 33.9287C21.3497 33.9787 21.2735 34.0165 21.1941 34.0411C21.1612 33.9521 21.138 33.8584 21.1251 33.7623C21.1161 33.4263 21.1217 33.0903 21.1212 32.7542C21.12 32.3946 21.1059 32.3731 20.8034 32.3724C19.848 32.3684 18.8923 32.3668 17.9361 32.3677C17.5969 32.3677 17.5958 32.3691 17.5958 32.7717L17.5963 49.1787C17.5963 49.5289 17.6065 49.543 17.8993 49.5437C18.8474 49.5444 19.7954 49.5444 20.7435 49.5437C21.1211 49.5437 21.12 49.5444 21.1216 49.1033C21.1329 46.248 21.1397 43.3928 21.1606 40.5375C21.1447 39.4767 21.3795 38.4319 21.8384 37.5226C22.0967 36.9616 22.4856 36.5015 22.9583 36.1977C23.431 35.8939 23.9674 35.7593 24.5028 35.8101C24.9297 35.8182 25.3448 35.9786 25.6943 36.2707C26.0439 36.5628 26.3118 36.9731 26.4634 37.4486C26.7101 38.2283 26.8233 39.059 26.7964 39.8917C26.8229 42.9806 26.8139 46.0702 26.8184 49.1585C26.819 49.5377 26.8195 49.5417 27.1254 49.5417C28.1046 49.5417 29.0843 49.5329 30.0635 49.5458C30.2879 49.5484 30.3405 49.4541 30.3399 49.205C30.3331 45.91 30.3399 42.6156 30.328 39.3213C30.3252 38.4654 30.3021 37.6068 30.2365 36.7549Z" fill="#FF6961"/>
<path fill-rule="evenodd" clip-rule="evenodd" d="M28.0989 5.36039C28.6386 5.34898 29.1583 5.11478 29.5693 4.69775C29.8217 4.4699 30.0279 4.17742 30.1728 3.8419C30.3176 3.50638 30.3973 3.1364 30.4059 2.75928C30.4146 2.38215 30.3521 2.00752 30.2229 1.66305C30.0938 1.31858 29.9013 1.01306 29.6598 0.769069C29.229 0.330423 28.6916 0.0675124 28.1264 0.0188035C27.5611 -0.0299054 26.9976 0.138145 26.5183 0.498365C26.2741 0.668744 26.0612 0.895834 25.8921 1.16615C25.7231 1.43647 25.6013 1.74449 25.5341 2.07194C25.467 2.39939 25.4557 2.73958 25.501 3.07231C25.5464 3.40504 25.6474 3.72353 25.7981 4.00885C26.0417 4.46255 26.3849 4.82828 26.7904 5.06648C27.196 5.30469 27.6483 5.40632 28.0989 5.36039Z" fill="#FF6961"/>
<path fill-rule="evenodd" clip-rule="evenodd" d="M36.2823 5.3615C36.7447 5.34889 37.1933 5.17149 37.5701 4.85218C37.947 4.53288 38.2349 4.08634 38.3966 3.57021C38.5041 3.21184 38.5449 2.82996 38.5163 2.45096C38.4877 2.07196 38.3904 1.70486 38.2311 1.37504C38.0717 1.04522 37.8542 0.760525 37.5935 0.540632C37.3328 0.32074 37.0351 0.170888 36.721 0.101429C36.3517 -0.0135645 35.9658 -0.0310187 35.5902 0.0502899C35.2146 0.131599 34.8585 0.309704 34.5468 0.57214C34.1128 0.932765 33.8047 1.47028 33.6807 2.08312C33.5568 2.69595 33.6255 3.34164 33.8741 3.89817C34.1192 4.38738 34.4752 4.78425 34.9012 5.04312C35.3273 5.30199 35.806 5.41234 36.2823 5.3615Z" fill="#FF6961"/>
</svg>
