<svg width="105" height="50" viewBox="0 0 105 50" fill="none" xmlns="http://www.w3.org/2000/svg">
<path fill-rule="evenodd" clip-rule="evenodd" d="M104.655 4.87549C99.8696 5.41263 98.6473 8.49171 98.677 10.6847V49.4671H105V4.83319L104.655 4.87549Z" fill="#FF6961"/>
<path fill-rule="evenodd" clip-rule="evenodd" d="M63.4358 4.88604L63.1335 4.87335C63.1038 4.87335 63.0742 4.87335 63.0482 4.87335C62.0503 4.87547 60.6128 5.31111 59.3683 6.25217C58.133 7.18477 57.0906 8.6651 57.0739 10.7058C57.0739 11.9112 57.0739 12.607 57.0739 13.7109H52.7504V19.1141H57.0739V41.1117C57.0739 41.6404 57.1648 42.3679 57.3447 43.2751C57.5209 44.2564 58.0718 45.1953 58.8712 46.1343C59.704 47.0796 60.9226 47.8578 62.488 48.5049C64.059 49.133 66.2236 49.465 68.965 49.4671H69.2692V43.808H68.7609C67.5553 43.8101 66.6057 43.6811 65.9027 43.3978C65.1942 43.1017 64.6489 42.7633 64.2983 42.3827C63.8977 41.9745 63.6807 41.577 63.6083 41.1921C63.497 40.7311 63.4358 40.3335 63.4358 39.9951V19.1141H69.2692V13.7109H63.4358V4.88604Z" fill="#FF6961"/>
<path fill-rule="evenodd" clip-rule="evenodd" d="M49.8922 17.0396C49.0649 16.0985 47.8704 15.3203 46.3272 14.6753C44.7377 14.043 42.5657 13.7109 39.8503 13.7109C37.1108 13.7109 34.9444 14.043 33.3789 14.671C31.8135 15.3203 30.5949 16.0943 29.7639 17.0396C28.9664 17.9531 28.4081 18.8709 28.2337 19.8881C28.0538 20.7827 27.9611 21.4869 27.9611 22.0663V49.4692L28.2745 49.465C31.1866 49.4333 33.9576 47.437 34.323 43.4612L34.3249 43.4401V23.001C34.3249 22.6732 34.3861 22.3349 34.5103 21.8633C34.6235 21.4869 34.8442 21.1168 35.2541 20.7404C35.6529 20.402 36.2279 20.0806 36.9883 19.7824C37.7154 19.5011 38.7319 19.37 39.9857 19.37C41.1672 19.37 42.1447 19.5011 42.8217 19.7824C43.5376 20.0784 44.0811 20.3935 44.4558 20.7763C44.8286 21.176 45.0549 21.563 45.1457 21.9289C45.2255 22.3624 45.2904 22.7705 45.2867 23.1321V49.465H51.6746V22.0663C51.6746 21.5017 51.5578 20.7996 51.3779 19.9029C51.2072 18.9365 50.7027 17.9637 49.8922 17.0396Z" fill="#FF6961"/>
<path fill-rule="evenodd" clip-rule="evenodd" d="M74.6333 47.6738C76.5919 49.2388 79.5466 50.0001 83.5437 50.0001C85.6081 50.0001 87.1198 49.8224 88.6277 49.3804C90.0986 48.9406 91.3134 48.3675 92.3113 47.6019C93.2832 46.8385 94.0085 45.9355 94.461 44.9268C94.9303 43.9117 95.1436 42.7888 95.1436 41.6489V39.6907H89.2045V40.0438C89.199 41.2577 88.8373 42.4906 88.1121 43.3217C87.4443 44.1211 85.7824 44.599 83.5437 44.5884C82.4531 44.5884 81.5405 44.4636 80.819 44.2458C80.116 44.0069 79.5244 43.6833 79.1478 43.3449C78.7268 42.9622 78.4282 42.5688 78.2817 42.1839C78.1203 41.7694 78.0405 41.3317 78.0405 40.9553V39.3692C78.0405 38.8765 78.1481 37.9988 78.3039 37.5611C78.4467 37.1635 78.6211 36.5566 78.8733 36.2711C79.1757 35.9497 79.3537 35.7741 79.6078 35.6198C80.0233 35.366 80.1494 35.3173 80.4889 35.1778C80.8376 35.0213 81.0193 34.96 81.8391 34.814C82.5718 34.6872 89.2695 33.7397 90.0726 33.4585C91.7493 32.8833 93.0848 31.8492 93.9973 30.4365C94.9247 29.009 95.3699 26.9281 95.3699 25.1898V22.0684C95.3699 21.2331 95.2271 20.3301 94.9284 19.3362C94.5927 18.2894 93.9732 17.3991 93.0996 16.568C92.2037 15.7348 90.9888 15.058 89.4735 14.5167C87.934 13.9689 85.9698 13.7109 83.5437 13.7109C81.1195 13.7109 79.1757 13.9689 77.6399 14.5167C76.1208 15.058 74.9059 15.7348 74.0156 16.5616C73.1383 17.3991 72.5188 18.2894 72.1849 19.3298C71.8604 20.3259 71.7175 21.2331 71.7175 22.0684V41.6489C71.7138 44.0449 72.7006 46.1089 74.6333 47.6738ZM77.9534 24.1874C77.9534 22.5358 78.3688 21.2775 79.1961 20.3851C80.0493 19.4948 81.611 19.0507 83.9536 19.0507C86.2313 19.0507 87.7968 19.4673 88.6444 20.3322C89.4735 21.1718 89.8315 22.2038 89.8315 23.959C89.8315 24.824 89.7536 25.5282 89.3826 26.3423C89.0988 26.9556 88.8113 27.3891 88.3921 27.7571C87.8691 28.1801 87.2793 28.5311 86.6227 28.6961C85.4078 29.0069 80.3924 29.2776 79.7024 29.5124C79.3816 29.6181 79.0162 29.7006 78.6266 29.9628C78.2371 30.1996 78.0461 30.4746 77.9534 30.9165V24.1874Z" fill="#FF6961"/>
<path fill-rule="evenodd" clip-rule="evenodd" d="M20.7366 16.0372C18.7761 14.4722 15.8233 13.7152 11.8262 13.7109C9.76179 13.7109 8.25013 13.8907 6.74218 14.3327C5.26576 14.7747 4.05273 15.3435 3.06041 16.107C2.09035 16.8767 1.36142 17.7797 0.90885 18.78C0.439587 19.7951 0.22814 20.9265 0.22814 22.0663V24.0161H6.16719V23.6651C6.1709 22.4533 6.53259 21.2204 7.25596 20.3914C7.92368 19.5899 9.58743 19.1141 11.8262 19.1226C12.9186 19.1184 13.8275 19.2495 14.5527 19.4631C15.2501 19.7063 15.8437 20.0235 16.222 20.3618C16.6394 20.7488 16.9398 21.1443 17.0882 21.5249C17.2496 21.9394 17.3312 22.3793 17.3312 22.7536V24.3439C17.3312 24.8345 17.2199 25.71 17.0641 26.1499C16.925 26.5475 16.7469 27.1523 16.4947 27.442C16.1905 27.7592 16.0143 27.9348 15.762 28.0934C15.3447 28.345 15.2204 28.3894 14.8792 28.5311C14.5323 28.6876 14.3468 28.751 13.527 28.897C12.7981 29.0238 6.10413 29.9691 5.29729 30.2525C3.6187 30.8298 2.28696 31.8618 1.3744 33.2745C0.445151 34.7041 0 36.7808 0 38.5212V41.6468C0 42.4821 0.140964 43.383 0.439587 44.3748C0.777159 45.4195 1.39666 46.3098 2.27027 47.1451C3.16613 47.9762 4.38103 48.653 5.9001 49.1965C7.43587 49.7442 9.39825 50.0001 11.8262 50.0001C14.2485 50.0001 16.1942 49.7442 17.73 49.1965C19.2472 48.653 20.4602 47.9762 21.3543 47.1515C22.2316 46.3098 22.8474 45.4195 23.1849 44.3833C23.5077 43.3872 23.6505 42.4821 23.6505 41.6468V22.0663C23.6561 19.6682 22.6693 17.6042 20.7366 16.0372ZM17.4147 39.5257C17.4147 41.1731 17.001 42.4314 16.172 43.328C15.3206 44.2141 13.7589 44.6561 11.4144 44.6561C9.13672 44.6561 7.57498 44.2437 6.72363 43.3767C5.89454 42.5392 5.53471 41.5093 5.53471 39.7562C5.53471 38.8892 5.61632 38.1828 5.98913 37.3729C6.27106 36.7533 6.55855 36.3219 6.97217 35.9539C7.5045 35.5331 8.09062 35.1778 8.74721 35.0128C9.9621 34.7041 14.9775 34.4355 15.6675 34.1986C15.9883 34.095 16.3519 34.0104 16.7432 33.7461C17.1346 33.5113 17.3238 33.2364 17.4147 32.7944V39.5257Z" fill="#FF6961"/>
<path fill-rule="evenodd" clip-rule="evenodd" d="M23.6561 13.9287C24.5074 9.37776 33.2212 11.3529 35.9125 7.66058C36.5858 6.74067 37.1219 3.9915 35.9923 2.09034C35.3895 1.07315 34.6346 0.461986 33.0543 0.220905C31.2533 -0.0582419 29.3985 -0.0772746 27.5827 0.189183C25.0972 0.550805 23.632 2.24683 23.632 5.62197C23.632 6.23101 23.6505 13.9435 23.6561 13.9287Z" fill="#FF6961"/>
</svg>
