<svg width="155" height="46" viewBox="0 0 155 46" fill="none" xmlns="http://www.w3.org/2000/svg">
<path d="M48.7629 16.1153C48.7805 16.8813 48.6609 17.6421 48.4134 18.3375C48.1659 19.033 47.7973 19.6441 47.3369 20.1225C46.8992 20.585 46.3956 20.9305 45.8549 21.1393C45.2878 21.3637 44.6977 21.475 44.1049 21.4695H37.3989V0.52322H43.6609C44.228 0.521015 44.7931 0.608334 45.3439 0.783261C45.8581 0.941314 46.3453 1.22168 46.7809 1.61019C47.1965 1.98731 47.5361 2.48904 47.7709 3.07292C48.0279 3.73761 48.1547 4.47455 48.1399 5.21826C48.149 5.90313 48.0266 6.58014 47.7839 7.18808C47.5536 7.75912 47.2398 8.26616 46.8599 8.68071C46.4718 9.10752 46.0258 9.43647 45.5449 9.65067C45.0602 9.87997 44.5547 10.0264 44.0409 10.0862V10.3775C44.1597 10.3589 44.2793 10.3494 44.3989 10.3489H44.7989C45.3977 10.3291 45.992 10.4883 46.5359 10.8144C47.0126 11.1068 47.4349 11.53 47.7739 12.0547C48.1139 12.593 48.3679 13.2141 48.5209 13.8815C48.6859 14.6065 48.7674 15.3593 48.7629 16.1153ZM44.1959 5.94508C44.2282 5.61049 44.1853 5.27092 44.0725 4.96731C43.9596 4.6637 43.7816 4.40902 43.5599 4.23401C43.0854 3.92948 42.5609 3.77997 42.0319 3.79844H40.9419V9.07468C41.0783 9.13008 41.2219 9.14823 41.3639 9.12798C41.5045 9.10979 41.6457 9.10111 41.7869 9.10198C42.1116 9.12691 42.4366 9.06359 42.7414 8.91606C43.0461 8.76854 43.3239 8.54004 43.5569 8.24514C43.7752 7.93607 43.9441 7.57372 44.0538 7.1791C44.1635 6.78449 44.2118 6.36547 44.1959 5.94638V5.94508ZM44.8419 15.447C44.8541 14.902 44.7817 14.3594 44.6289 13.8516C44.5027 13.4528 44.294 13.1071 44.0259 12.8531C43.7425 12.5949 43.4206 12.4168 43.0809 12.3304C42.6701 12.2175 42.2509 12.1638 41.8309 12.1705C41.6849 12.1705 41.5349 12.1731 41.3869 12.1835C41.2369 12.1939 41.0869 12.2095 40.9389 12.2264V18.0799C41.1469 18.1228 41.3609 18.1475 41.5839 18.167C41.8079 18.1891 42.0229 18.1982 42.2309 18.1982C42.5528 18.1969 42.8737 18.1538 43.1889 18.0695C43.4885 17.9894 43.7723 17.8306 44.0229 17.6027C44.269 17.3806 44.4718 17.0867 44.6149 16.7446C44.7768 16.3454 44.8551 15.8979 44.8419 15.447ZM60.9529 21.4669L59.4609 16.0815H53.3529L51.8379 21.4656H49.2969L54.9809 0.987393L59.0589 0.521919L64.8769 21.4695H60.9529V21.4669ZM56.3829 4.98553L54.1989 12.9558H58.5919L56.3829 4.98553ZM75.907 21.4669L69.3549 8.75093H69.1769V21.4669H66.2799V0.987393L69.5779 0.52322L76.086 13.247H76.2639V0.521919H79.164V21.4695H75.9059L75.907 21.4669ZM92.207 21.7478C91.296 21.9156 90.377 21.9981 89.457 21.9948C88.2645 22.0151 87.0793 21.7493 85.961 21.2108C84.9602 20.7231 84.0512 19.9628 83.295 18.9809C82.5511 17.9929 81.9744 16.8135 81.602 15.5185C81.1937 14.0758 80.993 12.5478 81.01 11.0107C80.9956 9.47513 81.1962 7.94899 81.602 6.50677C81.9667 5.20278 82.5435 4.01645 83.293 3.02872C84.0522 2.05099 84.9608 1.29133 85.96 0.798863C87.0764 0.25001 88.2625 -0.0199566 89.456 0.00313703C90.3284 -0.00147428 91.2 0.0758726 92.064 0.234574C92.9291 0.403846 93.7849 0.645757 94.626 0.958789V4.49925C93.9477 4.14468 93.2526 3.84719 92.545 3.60861C91.8338 3.38294 91.104 3.27203 90.372 3.27836C89.5776 3.25231 88.7886 3.45569 88.062 3.87385C87.4369 4.24867 86.8851 4.80251 86.448 5.49391C86.007 6.20873 85.6812 7.03163 85.49 7.91359C85.2776 8.87423 85.1722 9.86946 85.177 10.869C85.1679 11.9358 85.2888 12.9977 85.535 14.0155C85.752 14.928 86.1127 15.772 86.594 16.4937C87.0789 17.2032 87.6804 17.7618 88.354 18.128C89.1278 18.5427 89.9591 18.7455 90.796 18.7235C91.5102 18.7332 92.221 18.5954 92.902 18.3152C93.5769 18.029 94.2352 17.6806 94.872 17.2725V20.8923C94.0061 21.2851 93.1139 21.5715 92.207 21.7478ZM111.943 11.012C111.958 12.5393 111.77 14.0585 111.388 15.5029C111.053 16.7933 110.504 17.9723 109.78 18.9563C109.055 19.9404 108.174 20.7056 107.197 21.1978C106.095 21.75 104.922 22.0202 103.742 21.9935C102.563 22.0175 101.391 21.752 100.288 21.2108C99.3147 20.7216 98.436 19.9604 97.714 18.9809C96.9948 17.9864 96.4439 16.8069 96.097 15.5185C95.7128 14.0689 95.5243 12.5438 95.54 11.0107C95.5263 9.4837 95.7148 7.96504 96.097 6.52107C96.4423 5.2277 96.9928 4.04317 97.713 3.04432C98.4359 2.06225 99.3141 1.29571 100.287 0.797563C101.388 0.245079 102.561 -0.025131 103.741 0.00183682C104.925 -0.0240133 106.101 0.246126 107.207 0.797563C108.183 1.28937 109.062 2.05676 109.782 3.04432C110.498 4.04498 111.044 5.22927 111.387 6.52107C111.77 7.96475 111.959 9.48361 111.944 11.0107L111.943 11.012ZM107.779 11.012C107.775 10.1508 107.708 9.29216 107.577 8.44798C107.451 7.5728 107.221 6.72816 106.897 5.94378C106.595 5.19328 106.169 4.53949 105.649 4.02988C105.086 3.53825 104.423 3.27571 103.745 3.27571C103.067 3.27571 102.404 3.53825 101.841 4.02988C101.32 4.53791 100.893 5.19207 100.593 5.94378C100.268 6.72814 100.038 7.57274 99.911 8.44798C99.781 9.29187 99.7137 10.15 99.71 11.0107C99.7134 11.8713 99.7804 12.7294 99.91 13.5734C100.036 14.4458 100.267 15.2872 100.593 16.0672C100.898 16.8099 101.324 17.4569 101.841 17.9629C102.404 18.4553 103.067 18.7184 103.745 18.7184C104.423 18.7184 105.086 18.4553 105.649 17.9629C106.167 17.4575 106.593 16.8104 106.898 16.0672C107.221 15.2861 107.45 14.445 107.577 13.5734C107.707 12.73 107.775 11.8722 107.779 11.012ZM46.2909 45.4753C45.5715 44.1501 44.9124 42.7712 44.3169 41.3458C43.7237 39.9299 43.17 38.4866 42.6569 37.0187H41.0529V45.4727H37.3989V24.5224H44.3969C45.5256 24.51 46.6131 25.0723 47.4269 26.0892C47.8196 26.5834 48.1341 27.1726 48.3529 27.8237C48.5832 28.5095 48.7 29.2506 48.6959 29.9989C48.71 31.203 48.4279 32.3814 47.8909 33.3625C47.3549 34.3511 46.6353 35.1472 45.7989 35.6769C46.0969 36.4284 46.4509 37.2475 46.8679 38.1278C47.2813 39.0059 47.7156 39.8848 48.1709 40.7646C48.6259 41.6435 49.0879 42.4952 49.5659 43.3143C50.0419 44.136 50.4939 44.859 50.9249 45.4727H46.2909V45.4753ZM44.7729 30.6139C44.7826 30.1674 44.7103 29.7244 44.5619 29.3215C44.4295 28.9761 44.2346 28.6776 43.9939 28.4517C43.7449 28.2237 43.4655 28.058 43.1699 27.9628C42.8499 27.8525 42.52 27.7983 42.1889 27.8015H41.0509V34.0945H42.5009C42.8586 34.1058 43.2135 34.0097 43.5379 33.8137C43.8173 33.6399 44.0615 33.3834 44.2509 33.0648C44.4417 32.7316 44.5779 32.351 44.6509 31.9466C44.733 31.5105 44.774 31.0629 44.7729 30.6139ZM52.1069 45.4753V24.5289H62.4459V27.7976H56.0279V33.1935H61.2879V36.119H56.0279V42.2013H62.9579V45.4727L52.1069 45.474V45.4753ZM76.241 30.35C76.2944 31.6889 76.0873 33.0237 75.6389 34.2311C75.2698 35.1206 74.6975 35.8393 74.0009 36.288C73.2374 36.7555 72.4145 37.0375 71.5729 37.1201C70.6429 37.2215 69.6579 37.2723 68.6179 37.2723V45.474H64.9409V24.5224H71.4929C72.7484 24.4289 73.9864 24.9394 74.9709 25.9566C75.418 26.5227 75.7636 27.21 75.9831 27.9696C76.2026 28.7292 76.2907 29.5424 76.241 30.3513V30.35ZM72.2949 30.7829C72.3024 30.3446 72.2301 29.9103 72.0839 29.5152C71.9475 29.1517 71.7491 28.8333 71.5039 28.5843C71.254 28.3283 70.9714 28.1316 70.6689 28.0031C70.3526 27.8688 70.0218 27.8008 69.6889 27.8015C69.5089 27.797 69.3292 27.8219 69.1539 27.8757C69.0046 27.9242 68.8263 27.9775 68.6189 28.0356V34.3481C69.1071 34.3507 69.5948 34.3116 70.0789 34.2311C70.4906 34.1744 70.8885 34.0061 71.2469 33.737C71.577 33.4821 71.8441 33.1099 72.0169 32.6643C72.2234 32.0749 72.3187 31.4299 72.2949 30.7829ZM90.9259 37.8521C90.9259 43.2835 88.8383 45.9992 84.663 45.9992C83.7417 46.0132 82.8246 45.8368 81.946 45.4766C81.1719 45.1612 80.4576 44.6371 79.85 43.9384C79.2549 43.2372 78.7958 42.3631 78.5099 41.3874C78.1853 40.2574 78.0269 39.0582 78.043 37.8521V24.9892L81.963 24.5276V36.6976C81.963 37.3529 81.9856 38.0333 82.031 38.7389C82.0677 39.4044 82.1806 40.0592 82.366 40.6814C82.5362 41.2559 82.8205 41.7615 83.1899 42.1467C83.6442 42.5644 84.1946 42.7677 84.75 42.7227C85.2329 42.7651 85.7142 42.6136 86.1288 42.2887C86.5433 41.9639 86.8712 41.4813 87.068 40.9063C87.2651 40.3469 87.3933 39.7506 87.448 39.1393C87.5068 38.5021 87.5362 37.8608 87.5359 37.2189V24.525H90.925L90.9259 37.8521ZM105.143 40.1184C105.159 40.8841 105.039 41.6444 104.792 42.34C104.546 43.0357 104.179 43.6481 103.721 44.1295C103.282 44.5879 102.78 44.9326 102.241 45.145C101.673 45.3678 101.084 45.48 100.491 45.4779H93.781V24.5276H100.045C100.611 24.5262 101.176 24.6122 101.727 24.7838C102.242 24.9415 102.73 25.2229 103.165 25.6133C103.58 25.9919 103.92 26.4938 104.157 27.0773C104.413 27.7406 104.538 28.4758 104.522 29.2175C104.532 29.9036 104.41 30.5822 104.167 31.1912C103.934 31.7622 103.621 32.2708 103.243 32.6903C102.852 33.1102 102.407 33.4372 101.929 33.6564C101.442 33.8823 100.936 34.0308 100.422 34.0984V34.3845C100.54 34.3632 100.658 34.3528 100.777 34.3533H101.182C101.78 34.3336 102.374 34.4924 102.917 34.8175C103.394 35.1122 103.817 35.537 104.156 36.0631C104.497 36.5978 104.75 37.2178 104.9 37.8846C105.067 38.6091 105.148 39.3621 105.143 40.1184ZM100.579 29.9443C100.61 29.6107 100.567 29.2725 100.454 28.9698C100.342 28.6672 100.165 28.4129 99.945 28.2371C99.4705 27.9294 98.9449 27.7788 98.415 27.7989H97.324V33.0752C97.4612 33.1267 97.6046 33.1447 97.747 33.1285C97.8875 33.1101 98.0287 33.1019 98.17 33.1038C98.4949 33.1277 98.8201 33.064 99.1252 32.9168C99.4303 32.7696 99.7087 32.542 99.943 32.2483C100.161 31.9385 100.33 31.5752 100.439 31.1796C100.549 30.784 100.596 30.364 100.579 29.9443ZM101.224 39.4488C101.237 38.9025 101.164 38.3585 101.011 37.8495C100.885 37.4506 100.677 37.1045 100.41 36.8497C100.123 36.5995 99.8019 36.4229 99.464 36.3296C99.0534 36.2227 98.6356 36.1704 98.217 36.1736C98.067 36.1736 97.919 36.1775 97.771 36.1866C97.624 36.1996 97.475 36.2152 97.326 36.2386V42.0869C97.534 42.1259 97.749 42.1558 97.972 42.1727C98.194 42.1935 98.41 42.2026 98.616 42.2026C98.9383 42.2034 99.2597 42.1599 99.575 42.0726C99.8748 41.9917 100.159 41.8334 100.411 41.6071C100.654 41.385 100.856 41.0938 101 40.7555C101.16 40.3523 101.237 39.9022 101.224 39.4488ZM107.131 24.9905L111.051 24.5289V42.2039H117.984V45.4779H107.131V24.9905ZM119.455 24.9905L123.489 24.5289V45.4805H119.455V24.9905ZM136.535 45.7509C135.624 45.9189 134.705 46.0006 133.785 45.9953C132.592 46.0185 131.405 45.7527 130.287 45.2113C129.286 44.7298 128.378 43.9707 127.626 42.9868C126.874 42.0029 126.295 40.8178 125.931 39.5138C125.523 38.073 125.322 36.5466 125.34 35.0112C125.325 33.475 125.525 31.948 125.93 30.5047C126.294 29.2017 126.872 28.0172 127.623 27.0331C128.38 26.0518 129.288 25.2897 130.287 24.7968C131.404 24.2474 132.591 23.9774 133.785 24.001C134.657 23.9967 135.529 24.0758 136.392 24.2377C137.258 24.4027 138.114 24.6429 138.955 24.9567V28.4959C138.276 28.1429 137.58 27.848 136.872 27.613C136.161 27.3831 135.431 27.2704 134.699 27.2776C133.905 27.2503 133.117 27.4537 132.392 27.8731C131.765 28.2464 131.212 28.8026 130.777 29.4983C130.334 30.2102 130.008 31.0317 129.817 31.9128C129.606 32.8736 129.501 33.8688 129.506 34.8682C129.499 35.9346 129.619 36.9961 129.862 38.0147C130.082 38.9253 130.442 39.7681 130.921 40.4916C131.407 41.1999 132.008 41.7583 132.681 42.1259C133.455 42.541 134.287 42.7437 135.124 42.7214C135.839 42.7287 136.55 42.5914 137.232 42.3145C137.906 42.0282 138.565 41.6811 139.202 41.2756V44.8967C138.335 45.2883 137.442 45.5742 136.535 45.7509ZM151.08 45.4753L149.585 40.0859H143.481L141.965 45.4753H139.422L145.105 24.9892L149.184 24.5276L155 45.4779H151.079L151.08 45.4753ZM146.51 28.9899L144.326 36.955H148.716L146.51 28.9899Z" fill="#FF6961"/>
<path d="M0 0.588196V45.4102H34.473V0.588196H0ZM33.419 44.041H1.053V1.95601H33.419V44.041Z" fill="#FF6961"/>
<path d="M12.0819 34.1168C12.6949 34.1168 12.9289 34.0388 13.0169 34.5667C13.24 35.8621 13.7576 37.0403 14.5026 37.9481C15.2475 38.8559 16.1852 39.4513 17.1939 39.6569C18.1328 39.9448 19.1082 39.9682 20.0547 39.7253C21.0011 39.4824 21.8965 38.979 22.6809 38.2488C23.1314 37.9485 23.5234 37.5189 23.8273 36.9924C24.1312 36.466 24.339 35.8565 24.4349 35.2103C24.5529 34.6798 24.4379 34.2117 24.7779 34.2117C24.7779 34.226 29.8479 34.2117 29.8479 34.2117C30.3029 34.2312 30.4179 34.5107 30.2729 34.9463C28.8472 37.9036 26.6975 40.151 24.1699 41.3264C24.1399 41.2874 19.6999 42.8879 16.7249 42.1975C12.2549 41.2094 9.45292 39.3514 7.17192 34.8449C7.17192 34.8449 6.72092 33.9192 7.68592 34.1116C7.70092 34.1168 12.0819 34.1168 12.0819 34.1168Z" fill="#FF6961"/>
<path d="M4.55995 4.6358H5.57795V22.7529C5.1614 23.0852 4.81562 23.5481 4.57226 24.0992C4.3289 24.6503 4.19573 25.2719 4.18495 25.9072C4.01477 28.8506 4.33464 31.8071 5.12277 34.5752C5.91089 37.3433 7.14874 39.858 8.75196 41.9478H5.85696C5.85696 41.9478 -0.384055 27.0006 4.55995 22.2653C4.46395 22.1418 4.55995 4.6358 4.55995 4.6358ZM30.271 20.2539C30.271 19.687 30.007 19.687 30.007 19.687C30.007 19.687 29.571 19.3489 29.6 19.3489C29.6146 19.1542 29.5797 18.9585 29.5008 18.7918C29.422 18.6252 29.3033 18.4966 29.163 18.4258C29.163 18.4258 26.153 15.3209 26.153 15.2819C26.046 15.0871 25.8998 14.9345 25.7304 14.8407C25.5611 14.7469 25.3751 14.7155 25.193 14.7501H8.28196C7.48796 14.7501 7.28996 15.2 7.28996 15.9619V22.7932C7.27709 22.9488 7.29207 23.1063 7.33374 23.2531C7.37541 23.4 7.44263 23.5324 7.53016 23.6399C7.61768 23.7474 7.72314 23.8271 7.83829 23.8729C7.95344 23.9186 8.07517 23.9291 8.19396 23.9036H11.642C12.542 23.9816 12.399 22.6814 12.399 22.0729C12.427 21.6191 12.581 21.6932 12.669 21.6932C12.669 21.6932 24.408 21.6555 24.408 21.6932C25.234 21.7361 25.105 22.5682 25.135 23.1338C25.165 23.702 25.367 23.9413 25.98 23.9816C25.98 23.9816 29.396 24.018 29.396 23.9816C30.269 23.9816 30.243 23.5629 30.269 23.0194C30.271 23.0207 30.245 20.2942 30.271 20.2539ZM24.2 19.4946H12.612C12.372 19.5037 12.404 19.2696 12.404 19.2696V17.2374C12.394 16.9865 12.659 17.0645 12.659 17.0645H24.199C24.3218 17.0645 24.4434 17.0959 24.5568 17.157C24.6702 17.2181 24.7733 17.3077 24.8601 17.4205C24.947 17.5334 25.0158 17.6674 25.0628 17.8149C25.1098 17.9624 25.134 18.1205 25.134 18.2802C25.134 18.4398 25.1098 18.5979 25.0628 18.7454C25.0158 18.8929 24.947 19.0269 24.8601 19.1398C24.7733 19.2527 24.6702 19.3422 24.5568 19.4033C24.4434 19.4644 24.3218 19.4959 24.199 19.4959L24.2 19.4946Z" fill="#FF6961"/>
<path d="M31.8509 25.9878C31.7649 25.04 31.2959 24.8826 30.6539 24.8475C30.6539 24.8475 6.77194 24.7929 6.77194 24.8215C6.64302 24.8015 6.5123 24.8168 6.38819 24.8664C6.26408 24.916 6.14932 24.9988 6.05129 25.1095C5.95325 25.2202 5.87411 25.3563 5.81894 25.5092C5.76377 25.662 5.7338 25.8281 5.73094 25.9969C5.627 28.2162 5.87338 30.4396 6.45494 32.5304C6.49747 32.7619 6.60355 32.9653 6.75326 33.1022C6.90297 33.2392 7.086 33.3003 7.26794 33.2742L29.9159 33.2833C30.5589 33.2443 30.7909 33.4263 31.1159 32.5135C31.6612 30.4136 31.9102 28.2029 31.8509 25.9878ZM25.1929 29.8624C25.1933 30.0222 25.1694 30.1804 25.1226 30.3281C25.0757 30.4757 25.0068 30.6099 24.9199 30.7227C24.833 30.8356 24.7298 30.925 24.6161 30.9858C24.5025 31.0466 24.3808 31.0775 24.2579 31.0768H13.3069C13.1842 31.0773 13.0626 31.0463 12.9492 30.9854C12.8358 30.9245 12.7327 30.8351 12.646 30.7222C12.5592 30.6093 12.4906 30.4752 12.4439 30.3277C12.3972 30.1801 12.3734 30.022 12.3739 29.8624V28.2684C12.3736 28.1086 12.3974 27.9503 12.4441 27.8025C12.4907 27.6548 12.5594 27.5204 12.646 27.4071C12.7327 27.2939 12.8357 27.2039 12.9491 27.1424C13.0625 27.0809 13.1841 27.0491 13.3069 27.0488H24.2569C24.3801 27.0486 24.502 27.08 24.6158 27.1413C24.7295 27.2026 24.8328 27.2924 24.9198 27.4058C25.0068 27.5191 25.0757 27.6536 25.1225 27.8016C25.1694 27.9497 25.1933 28.1083 25.1929 28.2684V29.8624ZM23.7309 12.8414C23.7309 12.8414 19.5999 8.52862 19.5659 8.52862C19.2454 8.19021 18.8428 8.01095 18.4299 8.02284H15.9599C16.3499 7.68219 15.6679 7.1335 15.6679 7.1335C15.6679 7.1335 13.7179 5.14809 13.6869 5.10778C13.5631 4.9499 13.4155 4.82704 13.2534 4.74693C13.0913 4.66683 12.9182 4.6312 12.7449 4.64231H8.06094C7.95438 4.6193 7.84521 4.62755 7.74141 4.66645C7.63762 4.70535 7.54182 4.77391 7.46102 4.86713C7.38022 4.96035 7.31646 5.07586 7.2744 5.20523C7.23235 5.3346 7.21306 5.47455 7.21794 5.61486V12.6282C7.21387 12.8037 7.23847 12.9783 7.29011 13.1406C7.34176 13.3028 7.41929 13.4489 7.51757 13.5694C7.61585 13.6898 7.73266 13.7817 7.86028 13.8391C7.98791 13.8965 8.12344 13.9181 8.25794 13.9024H23.6669C24.5439 13.9869 24.0239 13.0533 23.7309 12.8427V12.8414ZM12.4909 7.03989C12.6699 7.03989 13.0199 7.02689 13.0209 7.56127C13.0239 8.00984 12.6679 8.07485 12.4909 8.07485V7.03989ZM18.0099 11.142C18.0099 11.4801 17.5359 11.7466 17.2789 11.7466H12.5429C12.4249 11.7648 12.3949 11.5919 12.3949 11.5919V10.5439C12.3879 10.3931 12.5429 10.384 12.5429 10.384H17.2789C17.5359 10.384 18.0089 10.6545 18.0089 10.9951L18.0099 11.142Z" fill="#FF6961"/>
</svg>
