<svg width="99" height="50" viewBox="0 0 99 50" fill="none" xmlns="http://www.w3.org/2000/svg">
<path d="M18.065 27H16.813V31.625H18.065C18.7805 31.625 19.4065 31.375 19.7642 31C20.2114 30.625 20.3902 30 20.3902 29.25C20.3902 28.5 20.2114 27.875 19.7642 27.5C19.4065 27.125 18.7805 27 18.065 27ZM17.7967 16.625H16.813V20.75H17.7967C18.4227 20.75 18.8699 20.625 19.1382 20.25C19.4959 19.875 19.5854 19.375 19.5854 18.75C19.5854 18.125 19.4065 17.625 19.1382 17.25C18.8699 16.75 18.3333 16.625 17.7967 16.625ZM9.74799 38.75V9.75H19.6748C21.8211 9.75 23.4309 10.5 24.6829 11.875C25.8455 13.25 26.4715 15.25 26.4715 17.75C26.4715 19.375 26.2032 20.625 25.6666 21.75C25.1301 22.75 24.3252 23.5 23.252 23.75C24.6829 24.125 25.756 24.875 26.3821 26.125C27.0975 27.25 27.4553 28.75 27.4553 30.75C27.4553 33.5 26.8292 35.5 25.4878 36.875C24.1463 38.125 22.2683 38.75 19.6748 38.75H9.74799ZM73.5119 38.75V9.75H87.4633V17.625H80.8452V20.375H86.8372V27.875H80.8452V30.875H87.6421V38.75H73.5119ZM48.6504 31.125C49.1869 31.125 49.5447 31 49.9024 30.75C50.1707 30.5 50.3495 30.125 50.3495 29.625C50.3495 28.75 49.6341 28.25 48.1138 27.75C47.6666 27.625 47.3089 27.5 47.0406 27.375C45.5203 26.875 44.2682 25.875 43.4634 24.5C42.6585 23.125 42.2114 21.5 42.2114 19.5C42.2114 16.375 43.0162 13.875 44.626 11.875C46.2357 9.875 48.2926 8.875 50.8861 8.875C52.0487 8.875 53.3008 9.125 54.374 9.5C55.5365 9.875 56.6991 10.625 57.8618 11.5L55.6259 19.125C54.9105 18.375 54.1951 17.875 53.4796 17.375C52.7642 17 52.0487 16.75 51.3333 16.75C50.7967 16.75 50.439 16.875 50.0813 17.125C49.813 17.375 49.6341 17.75 49.6341 18.125C49.6341 19 50.7072 19.625 52.7642 20.25C53.1219 20.375 53.3902 20.5 53.569 20.5C54.9999 21 56.1625 21.875 56.9674 23.25C57.7723 24.625 58.2195 26.375 58.2195 28.25C58.2195 31.5 57.4146 34.125 55.7154 36.125C54.0162 38.125 51.8699 39.125 49.1869 39.125C47.8455 39.125 46.4146 38.875 45.0731 38.25C43.7317 37.75 42.3008 36.875 40.9593 35.875L43.3739 27.75C44.4471 28.75 45.4308 29.5 46.2357 30C47.13 31 47.9349 31.125 48.6504 31.125ZM81.1137 0C74.2277 0 68.3254 5.375 65.2846 13.375C62.3333 5.375 56.3414 0 49.5447 0C42.6585 0 36.6666 5.375 33.7154 13.375C30.6747 5.375 24.7723 0 17.8861 0C8.04876 0 0 11.25 0 25C0 38.75 8.04876 50 17.8861 50C24.7723 50 30.6747 44.625 33.7154 36.625C36.6666 44.625 42.6585 50 49.5447 50C56.3414 50 62.3333 44.625 65.2846 36.625C68.3254 44.625 74.2277 50 81.1137 50C90.9509 50 99 38.75 99 25C99 11.25 90.9509 0 81.1137 0Z" fill="#FF6961"/>
</svg>
