<svg width="132" height="50" viewBox="0 0 132 50" fill="none" xmlns="http://www.w3.org/2000/svg">
<path d="M91.7723 3.83932C91.7723 3.83932 89.3166 5.02881 86.4606 8.85902C83.6045 12.6892 81.9411 16.9963 83.1721 18.1417C83.645 18.5771 84.7354 18.66 86.714 16.4832C88.54 14.5541 89.9733 12.1359 90.9012 9.41878C92.1791 5.62745 91.7723 3.88597 91.7723 3.84451V3.83932ZM107.403 10.7301C104.23 8.75018 101.91 6.32455 99.4971 4.82409C97.1948 3.38582 95.706 2.78459 93.8446 3.0878C93.5849 3.14412 93.3288 3.22204 93.0779 3.32103C93.0779 3.32103 94.0363 7.30413 90.2218 13.9953C86.3583 20.7798 82.8527 20.7332 81.8559 18.8699C80.8123 16.903 82.1605 12.894 84.4117 9.32549C86.7694 5.59376 90.9097 2.49953 90.9097 2.49953C90.9097 2.49953 89.5892 1.51736 86.3477 3.75381C83.1849 5.92547 77.7411 11.1084 72.6892 19.8495C67.6373 28.5905 66.6363 33.4003 65.9122 37.1865C65.1881 40.9726 65.8462 45.0283 69.2965 45.0283C72.7467 45.0283 76.7636 38.6248 77.8966 36.3987C80.003 32.2523 81.3767 25.8928 78.51 26.7661C77.0979 27.1963 75.9542 29.0985 75.2322 30.9307C74.7764 32.1074 74.4279 33.3414 74.1929 34.6106C73.1912 35.1129 72.2503 35.779 71.3964 36.5905C70.4465 37.4466 69.5587 38.4003 68.7427 39.4411C68.7427 39.4411 68.7555 36.4142 70.7383 31.5163C72.7212 26.6184 76.361 24.382 78.4227 24.1721C80.2799 23.9907 82.6972 25.9084 80.6483 32.9831C78.5994 40.0578 72.5551 48.659 66.2061 48.7652C60.347 48.8637 56.5134 39.765 64.6684 23.887C73.6945 6.34528 84.2818 0.962782 87.7193 0.36415C91.1568 -0.234482 92.2749 1.61065 92.2749 1.61065C94.3442 0.577702 96.579 0.129356 98.8113 0.299363C103.009 0.64403 106.255 4.25914 110.54 6.79879C109.426 8.09453 108.363 9.45506 107.405 10.7301H107.403ZM126.262 4.82409C123.353 7.09422 119.328 9.15186 115.46 8.71131C114.48 9.94226 113.432 11.3676 112.382 12.9225C119.089 14.537 124.965 9.48098 128.09 5.17653C129.229 3.62892 130.207 1.91696 131.003 0.0790874C129.581 1.88184 127.989 3.47448 126.26 4.82409H126.262ZM117.33 27.8157C117.381 27.7081 117.422 27.5943 117.453 27.4762C117.434 27.2893 117.362 27.1164 117.25 26.9862C117.138 26.8561 116.992 26.7766 116.838 26.761C116.199 26.7247 115.328 26.8724 113.043 29.9511C111.147 32.4935 109.515 35.31 108.185 38.3371C106.877 41.2447 106.347 43.4112 107.098 43.971C107.343 44.1249 107.626 44.1601 107.891 44.0695C108.4 43.9217 108.977 43.3413 109.854 42.1051C110.265 41.5246 110.721 40.7031 111.266 39.7935C112.779 37.2902 116.578 29.4095 117.33 27.8157ZM93.5911 31.1639C93.9724 29.9511 94.458 27.5695 93.4484 26.634C92.3644 25.6414 89.5999 27.9712 89.585 30.3605C89.5658 32.8069 91.5316 33.9135 92.0023 34.0689C92.2707 34.1571 92.3644 34.1441 92.4943 33.8824C92.9112 33.0082 93.2777 32.0999 93.5911 31.1639ZM91.4997 35.6135C90.8146 35.2286 90.1755 34.7325 89.5999 34.1389C89.0226 33.5497 88.5402 32.8353 88.1772 32.032C88.1388 31.9543 88.1005 32.0139 88.0579 32.0839C88.0153 32.1538 87.8449 32.343 86.3711 34.9708C84.8973 37.5985 82.6333 43.0432 84.6822 43.971C85.9941 44.5644 88.1772 41.7682 89.3677 39.9153C90.1789 38.622 90.9141 37.2607 91.5678 35.8415C91.6296 35.6834 91.5678 35.6471 91.5018 35.6135H91.4997ZM114.742 41.903C114.186 42.9862 113.552 45.0646 115.381 43.7714C117.62 42.1984 120.808 36.3132 120.808 36.3132H122.254C120.938 38.775 119.473 41.1138 117.871 43.3102C115.603 46.3681 112.836 49.1462 110.887 48.8715C108.611 48.5475 109.324 44.9117 109.324 44.9117C109.324 44.9117 106.068 49.1306 103.814 48.8274C100.771 48.418 101.699 43.8414 101.699 43.8414C101.699 43.8414 98.2575 48.9803 95.9126 48.8222C92.2366 48.5631 93.1609 43.121 94.1832 39.2882C94.7306 37.2383 95.2375 35.629 95.2375 35.629C95.2375 35.629 94.8733 35.7456 94.0895 35.8882C93.6806 35.9581 92.9352 36.01 92.9352 36.01C92.9352 36.01 91.4038 39.296 90.1792 41.2707C88.9546 43.2454 83.7493 50.0532 80.6866 48.6901C77.854 47.4306 78.7911 42.1544 80.4396 37.9613C82.8463 31.848 89.6148 23.0655 93.5187 24.2265C97.5654 25.4212 93.6103 34.4058 93.6103 34.4058C93.6103 34.4058 93.6103 34.4395 93.6529 34.4628C93.7338 34.4991 93.9447 34.5276 94.4324 34.411C94.9378 34.2856 95.4332 34.1061 95.9126 33.8746C95.9126 33.8746 99.9806 23.5087 104.474 16.7268C108.968 9.94485 117.933 -1.73495 121.451 1.08976C122.303 1.78428 121.92 4.17622 120.761 7.07867C120.239 7.28493 119.709 7.45793 119.172 7.59697C119.947 5.884 120.461 4.44055 120.614 3.43246C121.144 -0.0712187 114.421 7.31968 109.616 15.26C106.722 20.0468 104.15 25.1107 101.927 30.402C102.795 29.7579 103.624 29.0382 104.406 28.2485C106.549 26.0862 108.586 23.7723 110.506 21.3189C112.355 19.016 114.089 16.5809 115.699 14.0264C116.21 13.9963 116.72 13.9323 117.226 13.8347C115.47 16.7336 113.556 19.485 111.496 22.0704C109.58 24.4286 107.505 26.9657 105.703 28.8082C104.094 30.4735 102.396 32.0084 100.622 33.4029C100.622 33.4029 96.4195 43.7144 98.7048 44.3753C100.049 44.7692 102.702 39.7961 102.702 39.7961C102.702 39.7961 106.166 33.3666 108.253 30.4668C111.1 26.5277 113.552 24.2472 116.001 24.2058C117.428 24.1747 118.269 26.0198 118.269 26.0198L118.94 24.7552H123.072C123.072 24.7552 115.356 40.6876 114.738 41.8874L114.742 41.903ZM126.26 4.82409C123.351 7.09422 119.326 9.15186 115.458 8.71131C114.478 9.94226 113.43 11.3676 112.38 12.9225C119.087 14.537 124.963 9.48098 128.088 5.17653C129.227 3.62907 130.207 1.9171 131.003 0.0790874C129.581 1.88184 127.989 3.47448 126.26 4.82409ZM68.2337 12.64H64.3042L62.0828 17.0066H66.0123L68.2337 12.64ZM49.6277 27.7613C51.2996 24.9728 55.9128 15.2004 55.9128 15.2004C55.8933 15.0137 55.8218 14.8408 55.7101 14.7106C55.5985 14.5805 55.4535 14.5008 55.2994 14.4851C54.6604 14.4488 53.5955 14.7106 51.4806 17.9318C49.3657 21.153 47.7237 23.716 46.5267 26.3826C45.2148 29.2928 44.6418 31.3453 45.3958 31.9025C45.6405 32.0516 45.9215 32.0866 46.1859 32.0009C46.6758 31.8506 47.3169 31.252 48.1965 30.021C48.6097 29.4457 49.0782 28.6709 49.6277 27.7613ZM28.5426 14.5447C27.4564 13.547 24.6941 15.8819 24.6792 18.2661C24.6621 20.715 27.1647 21.464 27.4884 21.4821C27.5836 21.4918 27.6791 21.4674 27.7631 21.4122C27.8209 21.3712 27.867 21.3097 27.8952 21.2359C28.1894 20.5324 28.4539 19.811 28.6875 19.0746C29.0687 17.8618 29.5522 15.4803 28.5426 14.5447ZM26.9048 22.9748C26.1558 22.6901 25.44 22.2895 24.775 21.7827C24.1306 21.2715 23.6065 20.5651 23.2543 19.7329C23.216 19.6551 23.1734 19.7147 23.1351 19.7847C23.0967 19.8547 22.8752 20.1916 21.3971 22.8297C19.9191 25.4678 17.7296 30.8633 19.7806 31.791C21.0883 32.3948 23.2969 29.5753 24.496 27.7302C25.3933 26.2802 26.2224 24.7695 26.9794 23.2055C27.0284 23.0474 26.9794 23.0111 26.907 22.9826L26.9048 22.9748ZM58.9988 24.5997H60.4386C60.4386 24.5997 53.225 37.2979 49.1506 36.7071C46.876 36.3831 47.5512 32.9676 47.5512 32.9676C47.5512 32.9676 44.3564 37.5182 41.4216 36.5956C38.7593 35.7638 40.4781 30.3761 40.4781 30.3761C40.1756 30.5238 34.4145 38.4252 30.3658 36.5308C26.1296 34.5406 28.3297 27.9245 29.1347 25.9343C29.8184 24.2576 30.5745 22.625 30.5745 22.625C30.5745 22.625 29.9249 22.8478 29.5096 22.9619C29.0943 23.0759 28.4937 23.221 28.4937 23.221C28.4937 23.221 26.4895 27.1834 25.2649 29.1607C24.0402 31.138 18.835 37.9328 15.7681 36.5801C12.7012 35.2273 13.4615 30.0055 15.1845 25.8591C17.9788 19.1342 24.6089 10.87 28.6023 12.1243C32.6361 13.376 29.2966 21.337 29.2966 21.337C29.2966 21.337 30.0995 21.464 32.0227 19.8676C34.7915 17.569 38.4462 11.3857 42.4034 12.1113C44.2691 12.4534 46.007 14.7728 43.6302 19.1783C42.872 20.5932 41.6005 21.8579 40.6272 20.6062C40.0202 19.8288 40.5505 18.4112 41.1873 17.442C41.4352 17.0469 41.759 16.732 42.1304 16.525C42.5018 16.3181 42.9093 16.2254 43.3171 16.2551C43.3171 16.2551 43.9709 14.4411 42.3076 14.467C40.9615 14.4981 37.5538 18.3153 35.6306 22.1715C33.8672 25.7114 31.1942 31.7418 33.8778 33.0557C36.3377 34.2633 41.019 27.5021 43.1872 23.9596C45.3553 20.417 50.2965 12.3886 54.4411 12.0673C55.868 11.9532 56.7178 13.5366 56.7178 13.5366L57.197 12.6141H61.3416C61.3416 12.6141 53.5359 28.4636 52.9268 29.6634C52.4476 30.6015 51.8108 32.711 53.5657 31.5293C55.3207 30.3476 58.9988 24.5997 58.9988 24.5997ZM56.7434 49.9962C53.6917 47.4258 50.0375 46.1283 46.3286 46.2981C45.3248 46.3314 44.3415 46.6522 43.4586 47.2344C42.5757 47.8166 41.818 48.6438 41.2469 49.6489C39.6666 46.293 36.5422 44.2327 31.7118 44.2794C23.9061 44.3882 16.1642 48.7678 10.0304 48.7626C4.15212 48.7626 -0.135179 44.2664 0.00325867 36.2821C0.260965 22.2699 9.99204 9.65201 17.2547 3.97408C21.4419 0.711408 24.9433 -0.257805 27.2328 0.0557641C28.9026 0.281223 30.911 2.6291 29.6438 6.08873C27.7823 11.1447 25.2116 10.7301 25.3075 8.31222C25.3607 6.73919 26.2212 5.74925 26.8686 5.20244C27.2797 4.85778 28.0059 4.7593 28.385 4.74893C28.7535 4.37058 29.024 1.60288 26.0423 2.51249C23.0605 3.4221 19.4399 6.99834 16.0024 11.6189C12.5648 16.2396 7.21265 24.9728 5.89004 34.1441C5.2724 38.3967 5.67706 46.153 13.9641 46.0649C20.9925 45.9949 31.3519 40.3636 40.8721 40.4803C44.5673 40.5243 47.7833 41.7371 50.2901 43.6185C52.7521 45.4637 55.704 48.1588 56.7519 49.9988" fill="#FF6961"/>
</svg>
