<svg width="102" height="50" viewBox="0 0 102 50" fill="none" xmlns="http://www.w3.org/2000/svg">
<path fill-rule="evenodd" clip-rule="evenodd" d="M50.9913 0C72.2185 0 89.2404 2.32278 98.088 4.50087H98.1184C100.591 5.19382 102 6.82484 102 8.95809V41.1816C102 45.3088 100.914 46.1554 97.7934 47.5072C94.7225 48.8387 79.1482 52.6652 59.1576 46.9566C56.0569 46.0627 53.0671 44.9608 50.3112 43.9134C29.3934 43.8631 12.6166 41.5601 3.89589 39.4233L3.86556 39.4083C1.5763 38.765 0.17824 37.2757 0.0154731 35.3307C9.44361e-07 35.033 0 32.5715 0 8.95809C0 6.82484 1.57383 5.03657 3.86556 4.50087C14.1348 2.11352 29.7536 0 50.9913 0Z" fill="white"/>
<path fill-rule="evenodd" clip-rule="evenodd" d="M50.2579 33.6061C76.6665 41.3033 92.4679 34.3272 100.052 30.9682L100.931 30.576V8.89319C100.931 7.09117 99.6482 6.02753 97.9623 5.55281C91.141 3.87395 74.7659 1.08423 51.1033 1.08423C27.4606 1.08423 11.0917 3.87395 4.25485 5.55281C2.56343 6.02753 1.25449 7.09117 1.25449 8.89319V30.7943C9.7091 28.902 27.0689 26.8458 50.2579 33.6061Z" fill="#FF6961"/>
<path fill-rule="evenodd" clip-rule="evenodd" d="M1.39728 35.7373C1.73643 37.024 2.85785 37.8263 4.25468 38.2317C10.7004 39.8041 25.6744 42.3756 47.2407 42.6602C36.0661 38.3441 23.2558 33.6381 1.39728 35.7373Z" fill="#FF6961"/>
<path fill-rule="evenodd" clip-rule="evenodd" d="M101.01 31.833C93.557 35.1082 77.284 42.7037 49.923 34.7172C24.5035 27.3142 6.44744 30.7945 1.25436 32.007V34.5946C31.3248 31.6758 44.2354 41.4039 59.6327 45.8109C79.996 51.6474 95.1655 47.4293 97.4696 46.4213C100.277 45.1969 101.01 44.6934 101.01 41.1528V31.833Z" fill="#FF6961"/>
<path fill-rule="evenodd" clip-rule="evenodd" d="M26.1443 18.3894C26.0304 19.4853 25.5298 20.6613 24.2635 20.803C24.1787 20.803 24.0989 20.8186 24.0172 20.8186C22.5702 20.8186 22.2633 19.5499 22.3901 18.3894C22.5071 17.3054 23.0084 16.1257 24.2635 15.9858C24.3421 15.9727 24.4436 15.9727 24.521 15.9727C25.9655 15.9727 26.2576 17.2259 26.1443 18.3894ZM24.7636 13.6487C24.5872 13.6487 24.4213 13.6487 24.2635 13.666C21.3436 13.8687 19.6342 15.8603 19.3551 18.3894C19.3551 18.5 19.3378 18.6112 19.3378 18.7158V19.3107C19.456 21.5223 20.9321 23.1103 23.7727 23.1103C23.938 23.1103 24.0989 23.1103 24.2635 23.093C27.2001 22.8903 28.9033 20.9136 29.1651 18.3894C29.1806 18.2763 29.1806 18.1669 29.196 18.0725V17.4608C29.0692 15.251 27.6043 13.6487 24.7636 13.6487Z" fill="white"/>
<path fill-rule="evenodd" clip-rule="evenodd" d="M74.3096 18.3894C74.2007 19.4853 73.6938 20.6613 72.4399 20.803C72.362 20.803 72.2821 20.8186 72.1862 20.8186C70.738 20.8186 70.449 19.5499 70.5647 18.3894C70.673 17.3054 71.1762 16.1257 72.4399 15.9858C72.5272 15.9727 72.607 15.9727 72.685 15.9727C74.1289 15.9727 74.4451 17.2259 74.3096 18.3894ZM72.9289 13.6487C72.7655 13.6487 72.607 13.6487 72.4399 13.666C69.5077 13.8687 67.7995 15.8603 67.5384 18.3894C67.5216 18.5 67.5216 18.6112 67.5056 18.7158V19.3107C67.6361 21.5223 69.0992 23.1103 71.9411 23.1103C72.1156 23.1103 72.2821 23.1103 72.4399 23.093C75.3704 22.8903 77.0742 20.9136 77.3477 18.3894C77.3477 18.2763 77.3675 18.1669 77.3675 18.0725V17.4608C77.2512 15.251 75.7751 13.6487 72.9289 13.6487Z" fill="white"/>
<path fill-rule="evenodd" clip-rule="evenodd" d="M87.875 15.5941C87.9975 15.5636 88.1318 15.5462 88.2673 15.5462C89.2866 15.5462 89.6283 16.3653 89.5293 17.2873H86.2139C86.459 16.516 87.0896 15.7836 87.875 15.5941ZM92.0611 19.0749C92.373 16.0323 91.5753 13.6486 88.2469 13.6486C88.1163 13.6486 87.9975 13.6486 87.875 13.6659C85.3239 13.8512 83.276 16.0323 83.0142 18.5781C83.0006 18.672 83.0006 18.7814 83.0006 18.8746V19.3894C83.0972 21.3493 84.3659 23.11 87.1738 23.11C87.4015 23.11 87.6484 23.0927 87.875 23.0778C89.0905 22.9516 90.3573 22.5289 91.2832 21.8073L90.4718 20.0357C89.5936 20.5983 88.963 20.9134 87.901 20.9134H87.875C86.2312 20.9134 85.9218 19.7529 85.9905 19.0749H92.0611Z" fill="white"/>
<path fill-rule="evenodd" clip-rule="evenodd" d="M81.15 20.7421L82.1551 11.4049H79.117C79.117 11.4049 78.2901 19.2037 78.1292 20.7421C77.8507 23.4385 80.9866 23.423 82.4299 22.9841L82.6118 21.1624C81.7837 21.4153 81.1122 21.1163 81.15 20.7421Z" fill="white"/>
<path fill-rule="evenodd" clip-rule="evenodd" d="M36.8135 13.6485C35.2415 13.6659 33.9406 14.9645 33.1602 15.7513H33.0779C33.0432 15.7202 33.6008 14.1167 33.6008 14.1167H30.9538L29.9277 22.7962H32.951L33.6138 17.0858C34.0532 16.7097 34.7996 16.2846 35.2867 16.2846C36.1791 16.2846 36.3258 16.8502 36.2472 17.5545C36.0516 19.3894 35.856 21.1161 35.663 22.7962H38.6813C38.9078 20.8686 39.1374 18.9219 39.315 17.1031C39.5731 14.6835 38.6645 13.618 36.8135 13.6485Z" fill="white"/>
<path fill-rule="evenodd" clip-rule="evenodd" d="M56.92 18.4328C56.7857 19.6913 56.1408 20.7705 54.9507 20.9768C54.8238 20.9905 54.6834 21.0091 54.5317 21.0091C54.0558 21.0091 53.4122 20.8686 52.9734 20.4913L53.4314 16.7438C53.9624 16.4281 54.4655 16.2081 54.9507 16.1256C55.0634 16.1124 55.1816 16.0957 55.2763 16.0957C56.6904 16.0957 57.0419 17.1916 56.92 18.4328ZM56.3352 13.6485C55.8475 13.6659 55.3815 13.8076 54.9507 14.0102C54.1604 14.418 53.51 15.0775 53.0873 15.6897L53.0198 15.6706C53.1547 15.2975 53.51 14.1346 53.51 14.1346H50.928C50.928 14.1346 49.6611 24.707 49.416 26.5897H52.2765L52.7741 22.5917C53.3286 22.8906 54.1604 23.11 54.8882 23.11H54.9507C57.7592 23.0778 59.6326 20.8686 59.9068 18.1171C59.9222 18.0406 59.9222 17.9772 59.9222 17.9013V17.2729C59.8115 15.2323 58.4771 13.5857 56.3352 13.6485Z" fill="white"/>
<path fill-rule="evenodd" clip-rule="evenodd" d="M45.321 20.5506C45.2901 20.7096 44.821 21.0211 44.2832 21.1006C44.2046 21.1162 44.1235 21.1299 44.0393 21.1299C43.5547 21.1299 43.0157 20.831 43.0633 20.2367C43.1469 19.5306 43.6964 19.1252 44.2832 18.9381C44.5289 18.8747 44.7541 18.8251 44.9819 18.8119C45.2257 18.7964 45.3916 18.7659 45.5017 18.7485L45.321 20.5506ZM48.5881 21.0211C48.1958 21.0211 48.1159 20.7574 48.1487 20.4262L48.5881 16.1448C48.7658 14.448 47.7916 13.6791 46.1683 13.6486C45.5977 13.6331 44.9478 13.7096 44.2832 13.8363C43.1982 14.0253 42.0768 14.3679 41.3447 14.7314L42.0292 16.5029C42.7093 16.235 43.5238 15.9863 44.2832 15.8943C44.4818 15.8775 44.6551 15.8602 44.8377 15.8602C45.4089 15.8602 45.7635 16.1908 45.7004 16.8969L45.6608 17.2257C45.1942 17.273 44.7238 17.3352 44.2832 17.3979C43.9582 17.4613 43.6507 17.5241 43.4279 17.5875C41.492 18.0723 40.4027 18.7659 40.2233 20.5852C40.2233 20.6157 40.2109 20.6444 40.2109 20.6767V21.1162C40.3056 22.3717 41.3094 23.1101 42.692 23.1101C43.2286 23.1101 43.7812 22.9684 44.2832 22.7478C44.678 22.5917 45.037 22.3717 45.3402 22.1666C45.3916 22.7962 45.9226 23.1101 46.7383 23.1101C47.1263 23.1101 47.9847 23.0162 48.5368 22.8596L48.7831 20.9769C48.6995 21.0091 48.6352 21.0211 48.5881 21.0211Z" fill="white"/>
<path fill-rule="evenodd" clip-rule="evenodd" d="M17.8147 20.3152C17.0393 20.598 16.2879 20.9274 15.281 20.9274C13.123 20.9274 12.017 19.282 12.2287 17.2104C12.4564 15.0012 14.2258 13.5412 16.3851 13.5412C17.0869 13.5412 18.0728 13.742 18.6886 14.1349L19.8119 11.9884C19.1156 11.4982 17.8803 11.1562 16.3412 11.1562C12.1785 11.1562 9.55073 13.5412 9.17754 17.1344C8.78455 20.8682 10.8479 23.3124 14.6955 23.3124C16.192 23.3124 17.621 23.0164 18.722 22.3097L17.8147 20.3152Z" fill="white"/>
<path fill-rule="evenodd" clip-rule="evenodd" d="M67.5381 13.6486C65.9816 13.6659 64.6819 14.9645 63.9015 15.7513H63.8043C63.7882 15.7202 64.3421 14.1167 64.3421 14.1167H61.6964L60.6703 22.7962H63.6917L64.3539 17.0858C64.7976 16.7097 65.5248 16.2846 66.0131 16.2846C66.2898 16.2846 66.4829 16.3325 67.0195 16.516L67.91 13.6791C67.7033 13.6486 67.6167 13.6486 67.5381 13.6486Z" fill="white"/>
</svg>
