<svg width="107" height="43" viewBox="0 0 107 43" fill="none" xmlns="http://www.w3.org/2000/svg">
<path d="M12.869 42.5871C9.36112 42.5871 5.66616 40.7416 4.63718 36.9536L4.263 35.8366C4.12269 35.5453 4.07592 35.2539 4.07592 34.9625C4.07592 33.6027 5.33875 32.6314 6.7419 32.6314C7.67734 32.6314 8.61277 33.117 9.12726 34.0398C9.45466 34.6225 9.64175 35.1567 9.78207 35.7881C10.1562 37.2936 11.4191 37.7792 12.869 37.7792C13.898 37.7792 14.3657 37.3421 14.7866 36.5165C15.535 34.9139 15.6285 32.8742 15.6285 31.1745L15.5818 29.669C13.7109 31.5144 12.261 32.1458 9.59498 32.2915C5.94679 32.2915 2.85985 30.2518 1.97119 26.998C1.69056 26.0267 1.59702 25.0554 1.59702 24.0841C1.59702 22.093 2.1115 20.1504 2.9534 18.2564C4.96458 13.5942 9.26758 11.1175 15.0673 10.8261C16.1898 10.8261 17.2188 11.0203 18.2945 11.2146C20.8202 11.6517 21.2879 14.177 21.2879 16.3138V17.3337C21.2879 22.093 20.9605 26.8037 20.9605 31.5144C20.9605 32.8257 20.867 34.0883 20.6331 35.3996C19.9315 38.4591 18.1074 42.5871 12.869 42.5871ZM9.45467 27.5807C10.9046 27.5807 12.0739 26.1238 12.8222 24.764C14.4125 21.8501 15.114 18.6935 15.9559 15.5368L16.0027 15.4397C16.0027 15.294 15.8624 15.294 15.7221 15.294C13.1496 15.5368 11.2788 15.9253 9.59498 17.6251C7.72411 19.4705 7.11608 21.7045 6.92899 24.0841C6.92899 24.764 6.97576 25.4925 7.25639 26.1238C7.67734 27.0465 8.566 27.5807 9.45467 27.5807Z" fill="#FF6961"/>
<path d="M30.4369 30.6888C27.1629 30.6888 24.7307 29.0862 23.7018 26.2695C23.0937 24.4726 22.8599 22.6757 22.7196 20.8303C22.5792 18.8877 22.4389 16.9452 22.4389 15.0026C22.4389 13.4971 22.5325 11.9431 22.6728 10.389C22.8131 9.22346 23.0002 8.00935 23.1873 6.79525C23.234 6.40673 23.4211 5.96965 23.6082 5.6297C23.9824 5.04694 24.5904 4.75555 25.2452 4.75555C25.4791 4.75555 25.7129 4.80411 25.9468 4.85268C26.6952 5.14406 27.2564 5.72683 27.2564 6.4553L27.2096 6.64955C26.9758 8.00935 26.929 9.36915 26.8822 10.7289L26.8355 13.3028C26.8355 16.2167 26.9758 19.1306 27.2564 21.9958C27.35 23.0643 27.5838 24.0355 27.9112 25.0554C28.2386 26.3181 29.2676 26.7551 30.5304 26.7551L31.232 26.7066C32.3545 26.7066 33.2432 27.3865 33.3835 28.3092L33.4303 28.6006C33.4303 29.5233 32.5884 30.3489 31.3723 30.6403C31.0449 30.6888 30.7175 30.6888 30.4369 30.6888Z" fill="#FF6961"/>
<path d="M40.0251 26.2209C38.3881 26.2209 36.7511 25.5896 35.4882 24.3755C33.3835 22.4815 33.2432 20.7332 33.1497 18.0136C33.1497 12.1373 34.9888 5.15808 41.2562 3.99254C41.8699 3.87841 42.7995 3.80623 43.3856 3.99254C43.9717 4.17884 44.6875 4.40253 45.2488 4.79104C48.2264 6.73361 49.052 10.2919 49.052 13.6428C49.052 16.8966 48.5375 19.859 46.6667 22.4329C45.17 24.5212 42.5508 26.2209 40.0251 26.2209Z" fill="#FF6961"/>
<path d="M57.7253 32.3886C56.6963 32.3886 55.7141 32.1943 54.6851 31.7572C54.5448 31.7087 54.4045 31.6601 54.2174 31.6601C54.0771 31.6601 53.89 31.7087 53.7029 31.8544C53.3755 32.0972 53.0013 32.1943 52.6739 32.1943C51.6917 32.1943 50.8031 31.4173 50.7095 30.2518C50.616 28.8434 50.5692 27.4836 50.5692 26.0752C50.4757 19.4219 50.3821 12.7201 50.3353 6.06679C50.3353 5.04694 50.3821 4.02709 50.4289 3.00724C50.5224 1.79314 51.224 1.06467 52.2062 1.06467L52.6272 1.11324C53.469 1.3075 53.9368 2.03596 53.9835 3.15293L54.1238 6.94094C54.2642 9.41772 54.4045 11.8459 54.4513 14.2741C54.4513 14.517 54.498 14.6141 54.6383 14.6141L54.8722 14.5655C55.8544 14.3227 56.8366 14.177 57.8656 14.177C58.4268 14.177 59.0349 14.2256 59.5961 14.3227C60.9993 14.5655 62.2154 15.2454 63.2443 16.2653C65.1152 18.1107 66.3313 20.976 66.3313 23.6956C66.3313 27.3379 64.3669 30.1546 60.9993 31.6601C59.9235 32.1458 58.801 32.3886 57.7253 32.3886ZM57.772 28.2606C58.2865 28.2606 58.801 28.1149 59.2687 27.9207C61.3735 26.998 62.3089 25.7353 62.3089 23.7442V23.3071C62.1686 21.5588 61.4202 20.0533 60.1106 18.8877C59.8768 18.6935 59.6429 18.5478 59.3155 18.4021C58.6607 18.2078 58.0527 18.1107 57.3979 18.1107C56.6028 18.1107 55.7609 18.2564 54.9657 18.4992C54.6383 18.5964 54.498 18.7906 54.498 19.1791L54.5448 25.5896V26.8523C54.5448 27.1922 54.6383 27.3379 54.9657 27.435L56.556 28.0178C56.9769 28.1635 57.3979 28.2606 57.772 28.2606Z" fill="#FF6961"/>
<path d="M70.1215 41.0816C69.3264 41.0816 68.578 40.7416 68.2038 40.1103C67.9232 39.6246 67.8297 39.139 67.8297 38.6048V21.753C67.8297 21.1703 67.97 20.5389 68.2038 20.0047C68.4845 19.1791 69.2796 18.8877 69.9812 18.8877L70.6827 18.9849C71.1037 19.0334 71.3376 19.4219 71.4779 19.7619C71.7117 20.2961 71.852 20.8303 71.8988 21.4131C72.3665 25.9295 72.4601 30.4946 72.4601 35.011V38.8962C72.4601 39.9646 71.8053 40.7902 70.7763 41.033C70.5424 41.0816 70.3553 41.0816 70.1215 41.0816ZM69.6538 16.7023C68.5312 16.7023 67.6426 15.8768 67.6426 14.9055L67.6894 14.517C67.8764 13.6428 68.4377 13.06 69.3264 12.7201C69.607 12.5744 69.8876 12.5258 70.1683 12.5258C70.5892 12.5258 71.0569 12.6715 71.4311 12.9629C71.8988 13.3028 72.1327 13.7885 72.1327 14.2741C72.1327 14.4684 72.1327 14.6141 72.0859 14.8083C71.852 15.7796 70.636 16.7023 69.6538 16.7023Z" fill="#FF6961"/>
<path d="M82.058 30.446C78.784 30.446 76.3518 28.8434 75.3229 26.0267C74.7148 24.2298 74.481 22.4329 74.3407 20.5875C74.2003 18.6449 74.06 16.7023 74.06 14.7598C74.06 13.2543 74.1536 11.7002 74.2939 10.1462C74.4342 8.98063 74.6213 7.76653 74.8084 6.55242C74.8552 6.16391 75.0422 5.72683 75.2293 5.38688C75.6035 4.80411 76.2115 4.51272 76.8663 4.51272C77.1002 4.51272 77.3341 4.56129 77.5679 4.60985C78.3163 4.90124 78.8775 5.48401 78.8775 6.21247L78.8307 6.40673C78.5969 7.76653 78.5501 9.12632 78.5033 10.4861L78.4566 13.06C78.4566 15.9739 78.5969 18.8877 78.8775 21.753C78.9711 22.8214 79.2049 23.7927 79.5323 24.8126C79.8597 26.0752 80.8887 26.5123 82.1515 26.5123L82.8531 26.4637C83.9756 26.4637 84.8643 27.1436 85.0046 28.0664L85.0514 28.3577C85.0514 29.2805 84.2095 30.1061 82.9934 30.3974C82.666 30.446 82.3386 30.446 82.058 30.446Z" fill="#FF6961"/>
<path d="M88.5417 40.8387H88.4482C87.8869 40.8387 87.6531 40.3531 87.4192 39.916C86.9047 38.9933 86.7176 37.9735 86.6241 36.9536C86.1096 32.34 85.9225 27.775 85.9225 23.1614V19.7619C85.9225 18.9849 85.9693 18.2078 86.2032 17.4794C86.3902 16.9937 86.7176 16.6538 87.2321 16.6052H87.4192C87.8402 16.6052 88.2143 16.7995 88.4482 17.188C88.9159 17.8193 89.0562 18.6449 89.1498 19.3734C89.5707 22.6272 89.5707 25.881 89.8513 29.1348C90.0384 31.6601 90.0852 34.1369 90.0852 36.6622C90.0384 37.7792 89.9449 38.799 89.5239 39.8189C89.3369 40.3045 89.103 40.7902 88.5417 40.8387ZM86.1564 13.3595C85.9693 13.3595 86.1096 13.3028 86.0628 12.8172C86.2967 10.8746 86.9515 9.0292 88.0272 7.37801C88.1676 7.03807 88.5885 6.79525 88.8691 6.79525C89.2433 6.79525 89.6175 7.13519 89.6175 7.57227C89.6175 7.71796 89.5707 7.91222 89.4772 8.05791C88.7288 9.85479 88.074 11.7002 86.9515 13.3028C86.8112 13.5457 86.3435 13.3595 86.1564 13.3595Z" fill="#FF6961"/>
<path d="M95.2135 30.3489C94.3249 30.3489 93.483 29.9118 93.2023 29.0377C92.1266 25.7353 91.2379 22.3358 91.2379 18.8877C91.2379 18.0136 91.2847 17.188 91.3783 16.3138C91.7524 13.8371 92.9685 11.7488 95.0732 10.1462C96.4764 9.07776 98.1134 8.54356 99.7504 8.54356C101.995 8.54356 104.147 9.51484 105.269 11.3603C106.298 12.9143 106.626 14.6626 106.86 16.4595C107 17.4794 107 18.5478 107 19.6162C106.906 22.4329 106.486 25.2496 105.924 28.0664C105.69 29.1833 104.755 29.8632 103.586 29.8632C102.51 29.8632 101.574 29.1833 101.341 28.2606V27.8721C101.341 27.3865 101.481 26.998 101.528 26.5123C101.995 23.987 102.37 21.4616 102.37 18.8877L102.323 17.3822C102.229 16.2167 101.995 15.0997 101.574 14.0313C101.247 13.1572 100.499 12.6715 99.6568 12.6715C99.1423 12.6715 98.5811 12.8658 98.0198 13.2543C96.7102 14.3227 96.0554 15.6825 95.9151 17.2366C95.8683 17.8679 95.8683 18.4992 95.8683 19.1306C95.8683 21.5102 96.1957 23.9384 96.7102 26.2695C96.8505 26.9008 97.0376 27.4836 97.1312 28.1149L97.1779 28.5034C97.1779 29.3776 96.6634 30.0575 95.728 30.3003C95.5877 30.3489 95.4006 30.3489 95.2135 30.3489Z" fill="#FF6961"/>
<path fill-rule="evenodd" clip-rule="evenodd" d="M38.3848 31.6865C38.8127 30.0353 39.2122 28.4935 38.6464 26.3385L40.5808 25.8306C41.282 28.501 40.7633 30.4914 40.3314 32.1484C40.3035 32.2557 40.2759 32.3616 40.249 32.4662C39.8177 34.1445 39.5596 35.4876 40.5046 37.342L38.7226 38.25C37.4348 35.7228 37.8489 33.7703 38.3119 31.9684C38.3362 31.874 38.3605 31.7801 38.3848 31.6865Z" fill="#FF6961"/>
<path d="M11.272 41.5224C7.76411 41.5224 4.06914 39.677 3.04016 35.8889L2.66599 34.772C2.52567 34.4806 2.4789 34.1892 2.4789 33.8978C2.4789 32.538 3.74174 31.5667 5.14489 31.5667C6.08032 31.5667 7.01576 32.0524 7.53025 32.9751C7.85765 33.5579 8.04474 34.0921 8.18505 34.7234C8.55922 36.2289 9.82206 36.7145 11.272 36.7145C12.301 36.7145 12.7687 36.2775 13.1896 35.4519C13.938 33.8492 14.0315 31.8096 14.0315 30.1098L13.9847 28.6043C12.1139 30.4498 10.664 31.0811 7.99796 31.2268C4.34977 31.2268 1.26284 29.1871 0.374174 25.9333C0.0935435 24.962 0 23.9907 0 23.0194C0 21.0283 0.514489 19.0857 1.35638 17.1917C3.36756 12.5296 7.67056 10.0528 13.4703 9.7614C14.5928 9.7614 15.6218 9.95566 16.6975 10.1499C19.2232 10.587 19.6909 13.1123 19.6909 15.2492V16.269C19.6909 21.0283 19.3635 25.739 19.3635 30.4498C19.3635 31.761 19.2699 33.0237 19.0361 34.3349C18.3345 37.3944 16.5104 41.5224 11.272 41.5224ZM7.85765 26.5161C9.30757 26.5161 10.4769 25.0591 11.2252 23.6993C12.8155 20.7855 13.517 17.6288 14.3589 14.4721L14.4057 14.375C14.4057 14.2293 14.2654 14.2293 14.1251 14.2293C11.5526 14.4721 9.68175 14.8606 7.99796 16.5604C6.1271 18.4058 5.51906 20.6398 5.33198 23.0194C5.33198 23.6993 5.37875 24.4278 5.65938 25.0591C6.08032 25.9818 6.96899 26.5161 7.85765 26.5161ZM4.67717 17.2889C4.81749 17.2889 4.91103 17.2403 4.9578 17.0946C6.82867 14.1807 8.606 12.8695 11.3188 12.3353C11.5058 12.2382 11.7865 12.2382 11.7865 11.9954C11.7397 11.6554 11.4123 11.6554 11.2252 11.6554C10.7107 11.6554 10.3366 11.704 9.96238 11.8497C7.34316 12.7238 5.61261 14.4236 4.34977 16.609L4.25623 16.9489C4.25623 17.2403 4.39654 17.2403 4.67717 17.2889ZM3.78851 19.1829C4.25623 19.1829 4.25623 18.94 4.25623 18.6001C4.25623 18.4058 4.11591 18.3573 3.88205 18.3573C3.60142 18.4058 3.41434 18.5515 3.36756 18.8429C3.36756 19.0857 3.55465 19.1829 3.78851 19.1829Z" fill="#FDFD96"/>
<path d="M28.8399 29.6242C25.5659 29.6242 23.1337 28.0215 22.1047 25.2048C21.4967 23.4079 21.2629 21.6111 21.1225 19.7656C20.9822 17.8231 20.8419 15.8805 20.8419 13.9379C20.8419 12.4324 20.9355 10.8784 21.0758 9.32432C21.2161 8.15878 21.4032 6.94468 21.5903 5.73057C21.637 5.34206 21.8241 4.90498 22.0112 4.56503C22.3854 3.98226 22.9934 3.69087 23.6482 3.69087C23.8821 3.69087 24.1159 3.73944 24.3498 3.788C25.0981 4.07939 25.6594 4.66216 25.6594 5.39062L25.6126 5.58488C25.3788 6.94468 25.332 8.30447 25.2852 9.66427L25.2385 12.2382C25.2385 15.152 25.3788 18.0659 25.6594 20.9312C25.7529 21.9996 25.9868 22.9709 26.3142 23.9907C26.6416 25.2534 27.6706 25.6905 28.9334 25.6905L29.635 25.6419C30.7575 25.6419 31.6462 26.3218 31.7865 27.2445L31.8333 27.5359C31.8333 28.4586 30.9914 29.2842 29.7753 29.5756C29.4479 29.6242 29.1205 29.6242 28.8399 29.6242ZM28.7463 27.8273C28.9334 27.8273 29.1205 27.8273 29.1673 27.6816C29.1673 27.4873 28.9802 27.4388 28.8399 27.3902L28.4657 27.2931C27.6238 27.0988 26.7819 27.0017 26.0803 26.5646C24.5369 25.5933 23.9288 24.185 23.7418 22.6309C23.695 22.4367 23.7885 22.1938 23.5079 22.1938C23.3208 22.1938 23.274 22.291 23.274 22.3881V22.9223C23.4144 24.7192 24.303 26.2247 26.2207 27.2445C26.969 27.6816 27.9044 27.7787 28.7463 27.8273ZM30.2898 27.8758C30.5237 27.8273 30.664 27.7787 30.664 27.5845C30.664 27.3902 30.5237 27.2931 30.3366 27.2931H30.243C30.1027 27.2931 29.9624 27.3902 29.9624 27.5845C29.9624 27.7787 30.1027 27.8273 30.2898 27.8758Z" fill="#FDFD96"/>
<path d="M38.4281 25.1563C36.7911 25.1563 35.1541 24.5249 33.8912 23.3108C31.7865 21.4168 31.6462 19.6685 31.5526 16.9489C31.5526 11.0726 33.3918 4.0934 39.6592 2.92786C40.2729 2.81374 41.2025 2.74156 41.7886 2.92786C42.3746 3.11416 43.0905 3.33785 43.6517 3.72637C46.6294 5.66894 47.455 9.2272 47.455 12.5781C47.455 15.8319 46.9405 18.7943 45.0697 21.3682C43.573 23.4565 40.9538 25.1563 38.4281 25.1563ZM34.2186 15.8805C34.3589 15.8805 34.4057 15.7834 34.4057 15.7348V15.5405C34.4057 14.9578 34.4525 14.4236 34.5928 13.8894C35.2476 11.1698 36.1363 8.5473 38.2878 6.41047C38.3345 6.36191 38.4281 6.26478 38.4281 6.16765C38.3345 6.07052 38.3345 6.02196 38.241 6.02196C37.7265 6.02196 37.2588 6.65329 36.9782 7.04181C35.1541 9.47002 34.4057 12.1896 33.9848 15.0063V15.5405C33.9848 15.6862 33.9848 15.8805 34.2186 15.8805ZM33.9848 18.163C34.2186 18.163 34.4057 18.0173 34.4525 17.7745C34.4057 17.5317 34.1719 17.4831 33.938 17.4345C33.7509 17.4345 33.6106 17.5317 33.6106 17.6774V17.7259C33.6106 17.9202 33.7041 18.1144 33.9848 18.163Z" fill="#FDFD96"/>
<path d="M56.1283 31.3239C55.0993 31.3239 54.1171 31.1297 53.0881 30.6926C52.9478 30.644 52.8075 30.5954 52.6204 30.5954C52.4801 30.5954 52.293 30.644 52.1059 30.7897C51.7785 31.0325 51.4043 31.1297 51.0769 31.1297C50.0947 31.1297 49.206 30.3526 49.1125 29.1871C49.019 27.7787 48.9722 26.4189 48.9722 25.0106C48.8786 18.3573 48.7851 11.6554 48.7383 5.00211C48.7383 3.98226 48.7851 2.96242 48.8319 1.94257C48.9254 0.728462 49.627 0 50.6092 0L51.0301 0.0485636C51.872 0.242821 52.3397 0.971286 52.3865 2.08826L52.5268 5.87627C52.6671 8.35304 52.8075 10.7813 52.8542 13.2095C52.8542 13.4523 52.901 13.5494 53.0413 13.5494L53.2752 13.5008C54.2574 13.258 55.2396 13.1123 56.2686 13.1123C56.8298 13.1123 57.4379 13.1609 57.9991 13.258C59.4023 13.5008 60.6183 14.1807 61.6473 15.2006C63.5182 17.046 64.7342 19.9113 64.7342 22.6309C64.7342 26.2732 62.7698 29.09 59.4023 30.5954C58.3265 31.0811 57.204 31.3239 56.1283 31.3239ZM56.175 27.196C56.6895 27.196 57.204 27.0503 57.6717 26.856C59.7765 25.9333 60.7119 24.6706 60.7119 22.6795V22.2424C60.5716 20.4941 59.8232 18.9886 58.5136 17.8231C58.2798 17.6288 58.0459 17.4831 57.7185 17.3374C57.0637 17.1432 56.4557 17.046 55.8009 17.046C55.0057 17.046 54.1638 17.1917 53.3687 17.4345C53.0413 17.5317 52.901 17.7259 52.901 18.1144L52.9478 24.5249V25.7876C52.9478 26.1275 53.0413 26.2732 53.3687 26.3704L54.959 26.9531C55.3799 27.0988 55.8009 27.196 56.175 27.196ZM62.1618 26.1275C62.3489 26.1275 62.3957 25.9333 62.4424 25.7876C62.7231 25.0106 62.9569 24.2335 62.9569 23.3594C62.8634 21.4654 62.4424 19.5714 61.4135 17.9202C60.6651 16.7546 59.7297 15.7348 58.4668 15.152C57.9523 14.9092 57.4379 14.715 56.8766 14.715L56.5024 14.7635C56.4089 14.7635 56.175 14.7635 56.175 14.9578C56.175 15.1035 56.2686 15.1035 56.3621 15.1035H56.5024C57.625 15.2006 58.6539 15.5891 59.4491 16.4147C61.3199 18.3087 62.3957 20.4455 62.3957 22.8737C62.3957 23.7479 62.2553 24.622 61.9747 25.5933L61.8812 25.8847C61.8812 25.9818 61.9279 26.079 62.0683 26.1275H62.1618ZM61.2264 27.7787C61.4135 27.7302 61.5538 27.633 61.5538 27.3416C61.5538 27.0988 61.4135 27.0017 61.2264 27.0017C60.9925 27.0017 60.8054 27.0988 60.8054 27.3902C60.8054 27.633 60.9925 27.7302 61.2264 27.7787Z" fill="#FDFD96"/>
<path d="M68.5245 40.0169C67.7293 40.0169 66.981 39.6769 66.6068 39.0456C66.3262 38.56 66.2327 38.0743 66.2327 37.5401V20.6883C66.2327 20.1056 66.373 19.4742 66.6068 18.94C66.8875 18.1144 67.6826 17.8231 68.3842 17.8231L69.0857 17.9202C69.5067 17.9688 69.7405 18.3573 69.8809 18.6972C70.1147 19.2314 70.255 19.7656 70.3018 20.3484C70.7695 24.8649 70.863 29.4299 70.863 33.9464V37.8315C70.863 38.8999 70.2083 39.7255 69.1793 39.9683C68.9454 40.0169 68.7583 40.0169 68.5245 40.0169ZM68.4777 32.4894C68.7583 32.4894 68.7583 32.2952 68.8051 32.1495C68.8519 31.9552 68.8519 31.761 68.8519 31.5667V29.09C68.8519 26.7103 68.7583 24.3307 68.618 21.951L68.4777 20.7369C68.4309 20.5912 68.3374 20.4941 68.1503 20.4941H68.1035C67.9632 20.5427 67.9164 20.6398 67.9164 20.7855C67.9164 20.8826 67.9164 20.9797 67.9632 21.0769C68.1503 23.2623 68.2438 25.4476 68.3374 27.633V29.9155L68.2438 32.2466C68.2438 32.3438 68.2906 32.4409 68.4777 32.4894ZM68.5712 34.8205C68.8519 34.8205 68.9922 34.6748 69.0389 34.432C68.9922 34.2378 68.8986 34.0921 68.6648 34.0921C68.4309 34.1406 68.1035 34.1892 68.1035 34.4806L68.0567 34.5291C68.0567 34.7234 68.2906 34.8205 68.5712 34.8205ZM68.0567 15.6377C66.9342 15.6377 66.0456 14.8121 66.0456 13.8408L66.0923 13.4523C66.2794 12.5781 66.8407 11.9954 67.7293 11.6554C68.01 11.5097 68.2906 11.4611 68.5712 11.4611C68.9922 11.4611 69.4599 11.6068 69.8341 11.8982C70.3018 12.2382 70.5356 12.7238 70.5356 13.2095C70.5356 13.4037 70.5356 13.5494 70.4889 13.7437C70.255 14.7149 69.039 15.6377 68.0567 15.6377Z" fill="#FDFD96"/>
<path d="M80.461 29.3813C77.187 29.3813 74.7548 27.7787 73.7259 24.962C73.1178 23.1651 72.884 21.3682 72.7436 19.5228C72.6033 17.5802 72.463 15.6377 72.463 13.6951C72.463 12.1896 72.5566 10.6356 72.6969 9.0815C72.8372 7.91596 73.0243 6.70185 73.2114 5.48775C73.2581 5.09923 73.4452 4.66216 73.6323 4.3222C74.0065 3.73944 74.6145 3.44805 75.2693 3.44805C75.5032 3.44805 75.737 3.49662 75.9709 3.54518C76.7192 3.83656 77.2805 4.41934 77.2805 5.1478L77.2337 5.34205C76.9999 6.70185 76.9531 8.06165 76.9063 9.42145L76.8596 11.9953C76.8596 14.9092 76.9999 17.8231 77.2805 20.6883C77.3741 21.7568 77.6079 22.728 77.9353 23.7479C78.2627 25.0106 79.2917 25.4476 80.5545 25.4476L81.2561 25.3991C82.3786 25.3991 83.2673 26.079 83.4076 27.0017L83.4544 27.2931C83.4544 28.2158 82.6125 29.0414 81.3964 29.3328C81.069 29.3813 80.7416 29.3813 80.461 29.3813ZM80.3674 27.5845C80.5545 27.5845 80.7416 27.5845 80.7884 27.4388C80.7884 27.2445 80.6013 27.1959 80.461 27.1474L80.0868 27.0503C79.2449 26.856 78.403 26.7589 77.7015 26.3218C76.158 25.3505 75.5499 23.9421 75.3629 22.3881C75.3161 22.1938 75.4096 21.951 75.129 21.951C74.9419 21.951 74.8951 22.0481 74.8951 22.1453V22.6795C75.0355 24.4763 75.9241 25.9818 77.8418 27.0017C78.5901 27.4388 79.5255 27.5359 80.3674 27.5845ZM81.9109 27.633C82.1448 27.5845 82.2851 27.5359 82.2851 27.3416C82.2851 27.1474 82.1448 27.0503 81.9577 27.0503H81.8641C81.7238 27.0503 81.5835 27.1474 81.5835 27.3416C81.5835 27.5359 81.7238 27.5845 81.9109 27.633Z" fill="#FDFD96"/>
<path d="M86.9447 39.7741H86.8512C86.2899 39.7741 86.0561 39.2884 85.8222 38.8513C85.3077 37.9286 85.1206 36.9088 85.0271 35.8889C84.5126 31.2753 84.3255 26.7103 84.3255 22.0967V18.6972C84.3255 17.9202 84.3723 17.1432 84.6061 16.4147C84.7932 15.9291 85.1206 15.5891 85.6351 15.5405H85.8222C86.2432 15.5405 86.6173 15.7348 86.8512 16.1233C87.3189 16.7546 87.4592 17.5802 87.5528 18.3087C87.9737 21.5625 87.9737 24.8163 88.2543 28.0701C88.4414 30.5954 88.4882 33.0722 88.4882 35.5976C88.4414 36.7145 88.3479 37.7344 87.9269 38.7542C87.7398 39.2399 87.506 39.7255 86.9447 39.7741ZM86.7109 29.3813C86.9447 29.3813 87.0383 29.2356 87.0383 29.09L86.9915 28.7014C86.8044 25.5933 86.5238 22.6309 86.5238 19.6685C86.5238 19.3285 86.5662 19.0372 86.2388 19.0372C85.9114 19.0857 86.0093 19.28 86.0093 19.5228V19.6685C86.0561 22.6795 86.0093 25.739 86.2431 28.7014C86.2899 28.9443 86.2899 29.4299 86.6641 29.4299L86.7109 29.3813ZM86.6641 32.9265C87.0383 32.9265 87.1786 32.6837 87.1786 32.3438V32.2952C87.1786 32.0038 86.9447 31.9067 86.6641 31.9067C86.2899 31.9067 86.1496 32.1009 86.1496 32.4409C86.1496 32.7808 86.3367 32.9265 86.6641 32.9265ZM84.5594 12.2948C84.3723 12.2948 84.5126 12.2382 84.4658 11.7525C84.6997 9.80996 85.3545 7.96452 86.4302 6.31334C86.5705 5.97339 86.9915 5.73057 87.2721 5.73057C87.6463 5.73057 88.0205 6.07052 88.0205 6.5076C88.0205 6.65329 87.9737 6.84755 87.8802 6.99324C87.1318 8.79011 86.477 10.6356 85.3545 12.2382C85.2142 12.481 84.7465 12.2948 84.5594 12.2948Z" fill="#FDFD96"/>
<path d="M93.6165 29.2842C92.7279 29.2842 91.886 28.8471 91.6053 27.973C90.5296 24.6706 89.6409 21.2711 89.6409 17.8231C89.6409 16.9489 89.6877 16.1233 89.7812 15.2492C90.1554 12.7724 91.3715 10.6841 93.4762 9.0815C94.8793 8.01309 96.5164 7.47888 98.1534 7.47888C100.398 7.47888 102.55 8.45017 103.672 10.2956C104.701 11.8497 105.029 13.598 105.263 15.3948C105.403 16.4147 105.403 17.4831 105.403 18.5515C105.309 21.3682 104.889 24.185 104.327 27.0017C104.093 28.1187 103.158 28.7986 101.989 28.7986C100.913 28.7986 99.9775 28.1187 99.7436 27.196V26.8074C99.7436 26.3218 99.8839 25.9333 99.9307 25.4476C100.398 22.9223 100.773 20.397 100.773 17.8231L100.726 16.3176C100.632 15.152 100.398 14.0351 99.9775 12.9666C99.6501 12.0925 98.9017 11.6068 98.0598 11.6068C97.5453 11.6068 96.9841 11.8011 96.4228 12.1896C95.1132 13.258 94.4584 14.6178 94.3181 16.1719C94.2713 16.8032 94.2713 17.4345 94.2713 18.0659C94.2713 20.4455 94.5987 22.8737 95.1132 25.2048C95.2535 25.8361 95.4406 26.4189 95.5342 27.0503L95.5809 27.4388C95.5809 28.3129 95.0664 28.9928 94.131 29.2356C93.9907 29.2842 93.8036 29.2842 93.6165 29.2842ZM92.7279 21.3197C92.8682 21.2711 92.8682 21.2226 92.8682 21.174L92.8214 20.8826C92.6343 19.7171 92.494 18.503 92.494 17.3374C92.494 15.3949 92.8682 13.5494 93.8971 11.704C93.9907 11.6068 94.0375 11.5583 94.0375 11.4611C94.0375 11.4126 93.9907 11.364 93.8971 11.3155H93.8189C93.6786 11.3155 93.5697 11.5097 93.4762 11.6068C93.1488 12.0439 92.8682 12.4324 92.6811 12.9181C92.073 14.5207 91.9795 16.1233 91.9327 17.3374C91.9327 18.8915 91.9795 19.9599 92.3537 21.0283C92.4005 21.174 92.4472 21.3682 92.6343 21.3682L92.7279 21.3197ZM92.7746 23.9421C93.0085 23.8936 93.1488 23.7965 93.1488 23.6022L93.1956 23.5536C93.1956 23.3108 92.9617 23.2137 92.7279 23.2137H92.6811C92.494 23.2137 92.3537 23.4079 92.3537 23.5536C92.3537 23.7479 92.494 23.8936 92.7746 23.9421Z" fill="#FDFD96"/>
<path fill-rule="evenodd" clip-rule="evenodd" d="M37.3201 30.0895C37.748 28.4383 38.1476 26.8965 37.5817 24.7415L39.5161 24.2336C40.2173 26.904 39.6986 28.8944 39.2668 30.5514C39.2388 30.6587 39.2112 30.7646 39.1843 30.8692C38.7531 32.5475 38.4949 33.8905 39.4399 35.745L37.6579 36.653C36.3701 34.1258 36.7842 32.1733 37.2473 30.3714C37.2715 30.277 37.2959 30.1831 37.3201 30.0895Z" fill="#FDFD96"/>
</svg>
