<svg width="152" height="50" viewBox="0 0 152 50" fill="none" xmlns="http://www.w3.org/2000/svg">
<path d="M80.9463 13.0432C80.734 13.3428 80.6139 13.6773 80.6139 14.2589V30.2515H80.5377C80.5377 30.2515 73.0167 14.6459 72.6531 13.9244C72.3957 13.4127 72.1083 13.0607 71.7297 12.7961C71.3512 12.5502 70.9576 12.3917 70.2015 12.3917H67.7199C67.144 12.3917 66.7815 12.6201 66.5241 12.9733C66.3118 13.2716 66.1906 13.6074 66.1906 14.1878V36.8567C66.1906 37.4383 66.3118 37.7728 66.5241 38.0724C66.7815 38.4243 67.144 38.6528 67.7199 38.6528H69.1269C69.7018 38.6528 70.0653 38.4243 70.3227 38.0724C70.534 37.7728 70.6552 37.4383 70.6552 36.8567V20.476H70.7313C70.7313 20.476 78.5398 36.5746 78.8583 37.1737C79.2969 38.0187 80.038 38.6528 81.0975 38.6528H83.5041C84.0789 38.6528 84.4425 38.4243 84.6999 38.0724C84.9111 37.7728 85.0323 37.4383 85.0323 36.8567V16.407H116.647C116.965 16.407 117.207 16.3021 117.389 16.1262C117.585 15.914 117.676 15.6319 117.676 15.21V13.6598C117.676 13.2367 117.585 12.9546 117.389 12.7437C117.207 12.5677 116.965 12.4616 116.647 12.4616H82.1421C81.5673 12.4616 81.2037 12.6913 80.9463 13.0432ZM94.7487 19.1017C89.4969 19.1017 86.5455 23.8759 86.5455 28.9134C86.5455 34.2855 89.7093 39.006 94.7787 39.006C97.3065 39.006 99.7881 37.8964 101.21 35.9405C101.831 35.0955 102.331 33.9148 102.331 33.1933C102.331 32.9462 102.285 32.7353 102.165 32.5768C102.043 32.4008 101.861 32.2947 101.544 32.2947H99.1071C98.6223 32.2947 98.2899 32.5056 98.0475 32.9287C97.3365 34.1444 96.3069 34.7785 94.7937 34.7785C92.5234 34.7785 91.0562 32.7702 90.9501 30.5685H101.484C101.952 30.5685 102.285 30.4449 102.512 30.1816C102.769 29.8995 102.891 29.4938 102.891 28.7362C102.891 26.4296 102.27 24.0344 100.969 22.2021C99.6369 20.3524 97.6089 19.1017 94.7487 19.1017ZM110.987 19.1017C106.84 19.1017 104.116 21.3921 104.116 25.0554C104.116 26.3585 104.525 27.4157 105.191 28.2432C105.963 29.213 107.068 29.882 108.672 30.3576L112.137 31.3785C113.091 31.6606 113.938 31.9951 113.938 32.9637C113.938 34.4615 112.576 34.972 111.124 34.972C110.412 34.972 109.671 34.8134 109.065 34.4615C108.641 34.2143 108.279 33.8624 108.021 33.3868C107.794 32.9812 107.719 32.6816 107.37 32.4532C107.158 32.3122 106.901 32.2947 106.553 32.2947H104.676C104.268 32.2947 104.071 32.4357 103.935 32.6292C103.799 32.8227 103.753 33.1047 103.753 33.3868C103.753 34.0908 103.965 34.972 104.465 35.7645C105.615 37.5606 108.021 39.006 111.093 39.006C114.12 39.006 118.312 37.5432 118.312 32.8227C118.312 31.6082 118.009 30.5685 117.449 29.7235C116.738 28.6488 115.725 27.9087 113.999 27.3982L110.564 26.376C109.141 25.9541 108.475 25.6545 108.475 24.6323C108.475 23.6463 109.232 22.8537 110.987 22.8537C112.016 22.8537 112.954 23.1183 113.56 23.8584C114.059 24.475 113.969 24.7921 114.363 25.0379C114.604 25.179 114.876 25.179 115.301 25.179H117.01C117.283 25.179 117.48 25.1266 117.63 24.9319C117.753 24.7733 117.828 24.5275 117.828 24.1218C117.828 23.2057 117.313 22.0262 116.406 21.1275C115.195 19.9118 113.288 19.1017 110.987 19.1017ZM120.415 19.772H119.568C119.251 19.772 119.008 19.8768 118.827 20.0528C118.63 20.265 118.539 20.5471 118.539 20.969V22.1847C118.539 22.6078 118.63 22.8886 118.827 23.1008C119.008 23.2768 119.251 23.3829 119.568 23.3829H120.415V32.1711C120.415 34.4253 120.945 35.8344 121.929 36.9628C122.837 38.0012 124.018 38.6528 126.076 38.6528H127.362C127.68 38.6528 127.921 38.5479 128.104 38.3719C128.3 38.1597 128.421 37.8777 128.421 37.4558V35.923C128.421 35.4999 128.3 35.2191 128.104 35.0069C127.921 34.8309 127.68 34.7248 127.362 34.7248H127.18C126.363 34.7248 125.803 34.4789 125.425 34.0558C124.971 33.5628 124.744 32.8052 124.744 31.8191V23.3829H127.499C127.816 23.3829 128.059 23.2768 128.24 23.1008C128.436 22.8886 128.527 22.6078 128.527 22.1847V20.969C128.527 20.5471 128.436 20.265 128.24 20.0528C128.059 19.8768 127.816 19.772 127.499 19.772H124.759V14.0293C124.759 13.5712 124.638 13.2367 124.456 12.9733C124.229 12.6563 123.912 12.4616 123.443 12.4616H121.732C121.263 12.4616 120.945 12.6563 120.718 12.9733C120.537 13.2367 120.415 13.5712 120.415 14.0293V19.772ZM129.678 37.0851C129.678 37.5431 129.798 37.8777 129.981 38.1423C130.207 38.4593 130.525 38.6528 130.994 38.6528H132.795C133.264 38.6528 133.582 38.4593 133.809 38.1423C133.99 37.8777 134.112 37.5431 134.112 37.0851V14.0305C134.112 13.5724 133.99 13.2379 133.809 12.9733C133.582 12.6563 133.264 12.4616 132.795 12.4616H130.994C130.525 12.4616 130.207 12.6563 129.981 12.9733C129.798 13.2379 129.678 13.5724 129.678 14.0305V37.0851ZM90.9801 26.8166C91.1764 24.6498 92.5995 23.0297 94.7637 23.0297C96.8828 23.0297 98.3499 24.6498 98.5473 26.8166H90.9801ZM150.502 16.407C150.819 16.407 151.062 16.3021 151.243 16.1262C151.44 15.914 151.531 15.6319 151.531 15.21V13.5712C151.531 12.9371 151.425 12.6201 151.243 12.3917C151.077 12.1795 150.804 12.0572 150.502 12.0572C150.259 12.0572 150.018 12.0921 149.61 12.1446L137.532 13.5362C137.184 13.5712 137.018 13.6948 136.897 13.8533C136.761 14.0293 136.699 14.2589 136.699 14.576V15.4909C136.699 15.8441 136.761 16.0026 136.867 16.1436C137.002 16.3196 137.199 16.407 137.472 16.407H150.502ZM143.828 19.1017C138.576 19.1017 135.625 23.8759 135.625 28.9134C135.625 34.2855 138.789 39.006 143.858 39.006C146.386 39.006 148.867 37.8964 150.289 35.9405C150.91 35.0955 151.41 33.9148 151.41 33.1933C151.41 32.9462 151.364 32.7353 151.243 32.5768C151.123 32.4008 150.94 32.2947 150.623 32.2947H148.186C147.702 32.2947 147.369 32.5056 147.127 32.9287C146.416 34.1444 145.386 34.7785 143.873 34.7785C141.603 34.7785 140.134 32.7702 140.029 30.5685H150.593C151.062 30.5685 151.395 30.4449 151.621 30.1816C151.879 29.8995 152 29.4938 152 28.7362C152 26.4296 151.379 24.0344 150.078 22.2021C148.746 20.3524 146.688 19.1017 143.828 19.1017ZM140.059 26.8166C140.257 24.6498 141.679 23.0297 143.843 23.0297C145.962 23.0297 147.429 24.6498 147.627 26.8166H140.059Z" fill="#FF6961"/>
<path d="M49.1221 16.6182C45.2045 9.81702 41.7619 7.52541 40.7935 6.44701C39.7297 5.25752 38.9189 3.90952 38.403 3.26048C37.2555 1.80139 35.7702 0.000305176 33.3272 0.000305176C30.9689 0.000305176 29.4106 1.78891 28.9044 3.33412C28.7575 3.77472 28.6417 4.31392 28.5366 4.50988C28.3049 4.95173 27.2625 7.0224 26.8303 7.84369H28.7789L27.8309 9.92685C28.9366 9.64477 29.7259 9.43633 30.779 9.43633C31.7164 9.43633 32.3898 9.6947 32.6848 10.3799C33.2328 11.6555 33.2328 15.5148 34.1594 18.4205C35.0227 21.1515 37.129 23.8238 39.498 25.8707C39.5291 25.8945 39.5613 25.9069 39.6031 25.9069C39.7189 25.9069 39.7929 25.8096 39.7929 25.711C39.7929 25.6373 39.7715 25.5887 39.7189 25.5275C37.7392 23.2234 36.1284 20.6747 35.2651 17.8813C34.4114 15.1604 34.5487 11.336 33.8012 9.63229C33.3057 8.50521 32.2536 8.21189 31.2842 8.21189C30.5056 8.21189 29.7784 8.39537 29.4417 8.48025L30.2943 6.80148H28.8519C29.1575 6.17741 29.4728 5.60076 29.6315 5.25752C29.7677 4.96296 29.8213 4.596 29.9897 4.09425C30.5367 2.48787 31.7475 1.47063 33.3272 1.47063C35.3069 1.47063 36.4651 2.95343 37.6126 4.43623C38.1392 5.12272 39.0025 6.55685 40.0031 7.62277C40.6873 8.35793 41.9936 9.17921 44.0044 11.5944C45.1626 12.9911 46.5107 14.8046 47.9317 17.231C53.0183 25.8945 56.3557 33.5294 58.2196 39.4856L58.1885 39.5105C52.8499 35.2943 48.2266 31.3114 44.4999 26.3975C41.8563 22.9051 39.5613 18.8611 37.5601 13.7013C37.4228 13.358 37.3081 13.0397 37.1815 12.709C37.129 12.5742 37.0764 12.5367 36.9917 12.5367C36.8866 12.5367 36.8126 12.6229 36.8126 12.7452C36.8126 12.88 36.8652 13.1745 36.981 13.7624C38.0448 19.1058 40.993 23.8974 44.1417 27.8803C47.2796 31.8394 50.8273 35.2456 53.7443 37.7219L56.019 45.2945C56.0715 45.4792 56.1348 45.6752 56.1348 45.8586C56.1348 45.9934 56.1026 46.1033 56.0297 46.1769C55.9664 46.2506 55.8828 46.288 55.693 46.288H55.0088C54.7138 46.288 54.5969 46.2381 54.4918 46.1407C54.3867 46.0421 54.3138 45.8948 54.2602 45.7238C54.0607 45.0124 52.8596 41.0295 52.629 40.2207C52.5861 40.0747 52.5121 40.0248 52.4285 40.0248C52.3234 40.0248 52.2494 40.1234 52.2494 40.2332C52.2494 40.3318 52.2805 40.4417 52.3341 40.7849C52.6386 42.5985 52.9968 44.6329 53.1438 45.4056C53.2081 45.76 53.281 46.092 53.281 46.3367C53.281 46.5563 53.2392 46.6799 53.0816 46.8634L52.3759 47.6972C52.2075 47.8931 52.1121 47.9418 51.9759 47.9418C51.8075 47.9418 51.6702 47.807 51.607 47.4638C50.8069 43.1127 49.5961 37.7219 49.2798 36.2254C49.2058 35.8959 49.1532 35.7112 48.9848 35.7112C48.8379 35.7112 48.7854 35.8335 48.7854 35.9808C48.7854 36.0906 48.8057 36.2254 48.8165 36.324C49.0063 37.868 49.7752 43.4934 50.6064 48.6283C50.7544 49.5107 51.0386 50 51.6917 50C51.9866 50 52.2697 49.8652 52.5336 49.5719C52.9657 49.0689 53.0912 48.9341 53.6081 48.3462C53.976 47.9293 54.2291 47.7583 54.8608 47.7583H56.419C56.7879 47.7583 56.9874 47.6485 57.1665 47.4513C57.3349 47.2678 57.44 47.0107 57.44 46.6425C57.44 46.263 57.3563 45.9572 57.2405 45.5765C56.8405 44.3271 55.5557 40.0984 55.1761 38.9102L55.2082 38.8852C56.5241 40.0497 58.4406 41.5325 59.2835 41.5325C59.5463 41.5325 59.705 41.3977 59.705 40.9197C59.705 38.6655 56.4823 29.388 49.1221 16.6182Z" fill="#FF6961"/>
<path d="M12.9733 2.37774C13.1943 1.81357 13.679 1.42165 14.2581 1.42165C15.0475 1.42165 15.6791 2.1331 15.6791 3.07671C15.6791 3.62714 15.4582 4.10644 15.1107 4.39975C15.1847 4.71928 15.2373 5.00012 15.2373 5.26972C15.2373 6.29945 14.7107 7.02213 13.7423 7.40282C13.6157 8.0269 13.3841 8.59107 13.0044 9.00795C12.3728 9.71815 11.7304 9.71815 11.7304 10.0127C11.7304 10.1725 11.8258 10.2698 12.0886 10.2698C13.2575 10.2698 14.4051 9.51096 14.5423 8.24782C15.6587 7.80722 16.3322 6.49541 16.3322 5.45445C16.3322 5.1836 16.3108 4.95144 16.2164 4.73176C16.5221 4.38727 16.8803 3.79939 16.8803 2.92943C16.8803 2.1693 16.595 1.39794 16.0899 0.833769C15.648 0.330761 15.026 0 14.3 0C13.2468 0 12.5626 0.662771 12.1733 1.31181C11.0247 1.31181 9.54045 2.79462 9.54045 4.91524H9.38281C9.27663 4.18008 8.62459 3.6883 8.07657 3.65211C7.63472 2.10814 6.63413 0.785089 4.99115 0.785089C4.8024 0.785089 4.57075 0.797571 4.37021 0.833769C3.88653 0.318279 3.34924 0 2.60175 0C1.16896 0 0 1.33677 0 3.02678C0 4.08147 0.410745 4.80416 1.19041 5.44197C1.19041 5.44197 1.17969 5.57677 1.17969 5.63793C1.17969 6.98594 2.44303 9.09407 4.31766 9.09407C4.31766 9.43607 4.68658 9.90288 5.09732 9.98775V10.16H4.9386C2.35938 10.16 1.26441 11.6066 1.26441 12.5739C0.495469 12.9421 0 13.9344 0 14.8531C0 16.6791 1.14859 17.9785 2.66502 17.9785C3.17014 17.9785 3.68599 17.7463 4.04418 17.4268C4.30693 17.5366 4.64368 17.5978 4.99115 17.5978C5.71827 17.5978 6.52903 17.3045 7.09743 16.3359C7.18215 16.3484 7.25508 16.3484 7.3398 16.3484C8.26639 16.3484 9.06644 15.6369 9.48791 14.7058C9.59301 14.4736 9.63483 14.2902 9.63483 14.1541C9.63483 14.0205 9.58228 13.9095 9.46646 13.9095C9.31953 13.9095 9.29808 14.0692 9.03533 14.3513C8.44549 14.9766 7.53928 15.2088 6.61268 15.2088C6.16011 15.9814 5.60244 16.3858 4.96005 16.3858C4.48603 16.3858 4.11818 16.2385 3.73854 15.944C3.43289 16.3359 3.05432 16.4956 2.6854 16.4956C1.85425 16.4956 1.26441 15.8216 1.26441 14.8406C1.26441 14.1541 1.64298 13.5425 2.16955 13.3091C2.26393 12.0959 3.38034 11.2746 4.77023 11.2746C4.94933 11.2746 5.12842 11.2871 5.31825 11.312C5.52844 10.9201 6.03357 10.5032 6.74996 10.3922C6.89796 10.3684 7.01271 10.356 7.09743 10.3073C7.18215 10.2574 7.22398 10.16 7.22398 10.0489C7.22398 9.95156 7.1918 9.86543 7.10815 9.80427C7.03416 9.7556 6.90761 9.73188 6.76068 9.69444C6.09684 9.54715 5.30752 9.06911 4.9075 7.90458C3.31707 7.90458 2.1481 6.42177 2.1481 4.75548V4.64564C1.62153 4.39975 1.26441 3.81187 1.26441 3.1129C1.26441 2.19426 1.88536 1.4591 2.67467 1.4591C3.14869 1.4591 3.55944 1.7287 3.82326 2.1331C4.04418 2.05946 4.29621 2.0345 4.53858 2.0345C5.71827 2.0345 6.98161 2.90446 7.22398 4.59571C8.74041 4.75548 9.09861 6.25077 9.19298 6.8761C9.24553 7.19438 9.28736 7.46398 9.46646 7.46398C9.65628 7.46398 9.6981 7.21809 9.76138 6.88733C9.8772 6.26325 10.0777 5.76024 10.4778 5.36832C10.4778 3.76194 11.5095 2.37774 12.9733 2.37774Z" fill="#FF6961"/>
<path d="M16.0374 11.9855C15.5419 12.8067 15.1848 13.2111 14.0576 14.7551C12.5734 16.802 11.7937 18.4571 10.4982 22.1329C10.7095 22.1079 11.0151 22.0842 11.3519 22.0842C11.5202 22.0842 11.6564 22.0842 11.8784 22.0954L12.0361 21.7035C12.7632 19.89 13.7413 17.4386 15.1108 15.5514L15.5848 14.9024C16.995 12.979 17.8691 11.8382 18.4171 9.21582C18.6069 8.2847 18.7646 7.45219 19.3019 6.85059C19.7855 6.31139 20.3968 6.07923 21.0178 6.07923C21.5444 6.07923 21.9347 6.22651 22.5031 6.50735C23.019 6.76446 23.2077 6.81439 23.7557 6.81439C23.9456 6.81439 24.0818 6.80191 24.2083 6.78943L23.4715 7.94146L24.4721 8.76274C23.2184 9.19086 22.5557 10.6013 22.3337 11.2503C22.2918 11.3851 22.2715 11.4712 22.2715 11.5573C22.2715 11.6559 22.3133 11.7533 22.4398 11.7533C22.576 11.7533 22.6811 11.631 22.8602 11.3851C23.4715 10.5276 23.9563 9.9385 26.2084 9.11846L24.619 7.72054L25.8191 5.67483H24.693C23.9767 5.67483 23.5026 5.66235 22.8817 5.33159C22.0387 4.87852 21.6076 4.68256 20.8601 4.68256C19.9443 4.68256 19.1121 5.06199 18.4278 5.79715C17.6374 6.64214 17.3951 7.77047 17.1119 9.00863C16.8899 9.96346 16.6272 11.0181 16.0374 11.9855Z" fill="#FF6961"/>
<path d="M18.4591 20.3311C17.8586 21.2747 17.0371 22.5116 16.4054 23.8234C16.6059 23.9345 17.2698 24.3514 17.5014 24.4974C18.2275 23.2231 19.2388 21.6554 19.9016 20.4659C20.5021 19.3875 20.7445 18.922 20.7863 17.4753C20.797 17.2307 20.797 16.9973 20.8174 16.7651C20.87 16.0175 21.0394 15.2574 21.6496 14.5597C22.1022 14.0317 22.7553 13.7633 23.4084 13.7633C24.0401 13.7633 24.408 13.9705 24.956 13.9705C25.3453 13.9705 25.6295 13.8607 25.8826 13.7509L26.0831 13.6647L25.5984 15.014L26.7352 15.5519C26.0091 16.0787 24.4187 18.3466 24.4187 21.0301C24.4187 21.9986 24.5452 22.8923 24.7243 23.6886C24.7458 23.7748 24.7876 23.8609 24.9034 23.8609C25.0085 23.8609 25.0825 23.7872 25.0933 23.6524L25.104 23.3704C25.1351 22.5491 25.1876 21.251 25.4718 20.0865C25.9458 18.1256 27.2199 16.2871 28.494 15.4047L26.6826 14.486L27.4623 12.2681L26.6097 12.4765C26.0938 12.5988 25.7142 12.7087 25.2616 12.7087C24.9667 12.7087 24.63 12.66 24.2299 12.5489C23.9243 12.464 23.5972 12.3904 23.135 12.3904C22.3028 12.3904 21.4073 12.7573 20.797 13.4438C19.6806 14.682 19.6174 16.0175 19.5434 17.207C19.449 18.7872 19.1959 19.1791 18.4591 20.3311Z" fill="#FF6961"/>
<path d="M45.4787 21.0785C45.4047 20.9686 45.3414 20.9187 45.2578 20.9187C45.1312 20.9187 45.0679 21.0173 45.0679 21.1271C45.0679 21.2994 45.173 21.5078 45.4369 22.0233C46.2369 23.6035 47.2268 25.1961 48.4483 26.6927C49.7642 28.3215 51.3117 29.8405 52.9654 31.201L53.4812 31.6179C53.5552 31.6803 53.6078 31.7165 53.6711 31.7165C53.7762 31.7165 53.8502 31.5942 53.8502 31.4956C53.8502 31.4344 53.8287 31.372 53.7654 31.3108C52.2286 29.682 50.5749 27.6962 49.0274 25.7853C47.8155 24.2775 46.5736 22.6848 45.4787 21.0785Z" fill="#FF6961"/>
<path d="M11.5938 15.5273C11.7515 15.2215 12.2255 14.4738 12.4153 14.2404C11.6045 12.3295 10.2779 10.5035 9.6988 9.77954L9.21405 10.3312C9.7728 11.2748 10.709 13.1009 11.5938 15.5273Z" fill="#FF6961"/>
<path d="M3.87551 4.46127C3.78006 4.36266 3.75968 4.3015 3.75968 4.22786C3.75968 4.14298 3.81223 4.04437 3.92806 4.04437C3.96988 4.04437 4.01171 4.05685 4.06533 4.08182C4.84393 4.44879 5.50777 4.87816 6.09762 5.4049C6.59201 5.84551 7.07676 6.38597 7.54971 7.03503L7.10786 7.62292C6.56091 7.09494 4.79138 5.3687 3.87551 4.46127Z" fill="#FF6961"/>
<path d="M11.3411 8.56659L10.7727 8.1622C11.1406 7.14497 11.5942 6.21387 12.1305 5.51491C12.5101 5.01316 12.8683 4.60752 13.2683 4.20438C13.3627 4.11826 13.4152 4.04462 13.5096 4.04462C13.6158 4.04462 13.6898 4.14322 13.6898 4.24057C13.6898 4.28925 13.6683 4.35041 13.6265 4.42405C12.9841 5.58855 11.7304 7.8926 11.3411 8.56659Z" fill="#FF6961"/>
<path d="M4.20206 14.2526C4.06478 14.3138 4.00151 14.3512 3.92858 14.3512C3.81276 14.3512 3.75914 14.2401 3.75914 14.154C3.75914 14.0691 3.79131 14.0204 3.86531 13.9455C5.15975 12.7698 6.2976 12.3042 7.86659 11.9972L8.05534 12.7336L4.20206 14.2526Z" fill="#FF6961"/>
<path d="M31.2107 4.74346C31.2107 4.3141 31.4005 3.5415 32.0847 3.5415C32.3164 3.5415 32.5373 3.60266 32.7164 3.70126C32.9695 3.83606 33.1379 4.03202 33.1379 4.24046C33.1379 4.46138 32.9481 4.6823 32.6639 4.9519C32.3689 5.23273 31.9904 5.49109 31.6847 5.49109C31.3169 5.49109 31.2107 5.08545 31.2107 4.74346Z" fill="#FF6961"/>
<path d="M20.523 8.32147C20.523 7.79474 20.7965 7.21808 21.3231 7.21808C21.5547 7.21808 21.8282 7.32792 22.0288 7.55009C22.1446 7.67242 22.1971 7.80597 22.1971 7.94202C22.1971 8.23659 21.9548 8.51743 21.6706 8.7134C21.4496 8.86068 21.218 8.95929 21.0185 8.95929C20.6914 8.95929 20.523 8.72463 20.523 8.32147Z" fill="#FF6961"/>
<path d="M22.9976 15.8829C22.9976 15.7606 23.0083 15.6133 23.0501 15.466C23.1349 15.1477 23.3129 14.8407 23.7558 14.8407C23.9564 14.8407 24.1762 14.9019 24.3553 15.0504C24.514 15.1727 24.5773 15.3312 24.5773 15.491C24.5773 16.0177 23.8191 16.6306 23.4394 16.6306C23.166 16.6306 22.9976 16.3235 22.9976 15.8829Z" fill="#FF6961"/>
<path d="M18.8488 31.3482C17.4279 31.3482 16.7951 30.5644 16.7951 29.5721C16.7951 27.8309 19.4172 26.1284 21.7755 25.0737L22.3868 25.9936C20.9337 26.6664 18.007 28.1142 18.007 29.3636C18.007 29.8042 18.2279 30.1238 19.1116 30.1238C20.6495 30.1238 22.3032 29.2526 23.8293 28.3826C23.9451 28.3214 24.0824 28.2603 24.2089 28.2603C24.4084 28.2603 24.5349 28.3339 24.6819 28.5785L24.935 28.983C23.1558 30.1238 20.9337 31.3482 18.8488 31.3482Z" fill="#FF6961"/>
<path d="M22.7661 31.8144C21.3762 32.7206 19.9338 33.3222 18.6597 33.3222C17.2376 33.3222 15.9743 32.6107 14.9212 30.7597C14.4793 29.9759 14.1319 28.9961 13.7104 28.1261C13.2053 27.0964 12.6572 26.5447 11.6996 26.5447C10.8255 26.5447 9.97184 26.9616 9.0667 27.4147L9.10853 27.6481C9.18253 28.0275 9.30907 28.2971 9.61365 28.2971C9.75092 28.2971 9.88819 28.2247 9.96219 28.1998C10.4673 28.0151 10.8352 27.8553 11.3521 27.8553C12.1414 27.8553 12.52 28.3957 13.0573 29.7188L13.2578 30.2093C12.7098 30.4302 11.425 30.5401 10.4673 30.5401H10.0147L10.0887 31.0668C10.1198 31.2877 10.1938 31.4712 10.3515 31.5573C10.5402 31.6671 10.8148 31.6796 11.2888 31.6796C12.4889 31.6796 13.3629 31.5086 13.868 31.3601C15.1635 33.6043 16.9427 34.4617 18.6597 34.4617C20.1225 34.4617 21.6079 33.8364 23.0299 32.9303L22.7661 31.8144Z" fill="#FF6961"/>
<path d="M24.1978 32.3659L23.9458 31.2375C26.1143 29.8783 28.094 28.7874 31.2534 28.4317C31.3167 29.8409 31.232 31.6182 32.1275 31.6182C32.9479 31.6182 34.7378 29.1544 36.8022 26.0665C36.9921 26.2749 37.2966 26.4958 37.5712 26.7405L37.0446 27.5368C35.0327 30.5523 33.3168 33.126 31.9055 33.126C30.5896 33.126 30.0941 31.3237 30.0737 29.9757C28.0629 30.2091 26.1668 30.9929 24.1978 32.3659Z" fill="#FF6961"/>
<path d="M52.06 7.76997C51.2385 7.76997 51.0068 7.242 51.0068 6.49561C51.0068 4.95166 51.839 2.7337 52.3656 1.47058H51.0905C50.4277 2.96586 47.8163 7.75749 46.405 9.74329L47.2157 10.7593C47.9739 9.77948 48.8062 8.11321 49.7113 6.47065H49.8797C49.8797 6.55677 49.87 6.65413 49.87 6.74025C49.87 8.12569 50.4802 9.15416 51.986 9.15416C52.9125 9.15416 54.3657 8.61496 55.7352 8.07576C56.872 7.62269 57.9144 7.15713 58.4303 6.98613V5.51582C57.8404 5.72301 56.6404 6.26221 55.3974 6.76521C54.0922 7.29193 52.8074 7.76997 52.06 7.76997Z" fill="#FF6961"/>
<path d="M54.8712 12.2183C56.1345 11.5943 58.3985 10.5396 59.7047 9.9879V8.49261C57.0826 9.62094 52.4807 11.8389 49.3428 13.8247C49.4275 13.9458 49.9755 14.8407 50.0377 14.9518C51.3643 14.314 52.5547 13.8971 53.6282 13.8971C55.135 13.8971 56.3662 13.8971 58.4306 13.3329V12.2059C57.2724 12.4517 56.0402 12.7451 55.2401 12.7451C54.7661 12.7451 54.6288 12.6714 54.6288 12.4879C54.6288 12.3781 54.6921 12.3045 54.8712 12.2183Z" fill="#FF6961"/>
<path d="M27.8938 19.1066L27.3876 20.2339H32.7691L32.3691 19.1066H27.8938Z" fill="#FF6961"/>
<path d="M8.50849 25.8336C9.07689 25.8336 9.54018 25.6127 9.9831 25.4055C10.4035 25.2083 10.825 25.0123 11.3934 25.0123C12.7414 25.0123 14.4048 25.7724 15.8687 26.4951C15.9534 26.5326 16.0478 26.5563 16.1421 26.5563C16.3749 26.5563 16.554 26.434 16.6687 26.1768L16.8585 25.7724C15.2477 24.6816 12.6782 23.517 11.3408 23.517C10.7306 23.517 10.2877 23.7018 9.86728 23.8965C9.39326 24.1186 8.98251 24.3508 8.55032 24.3508C7.48753 24.3508 4.7603 23.1251 4.7603 21.9369C4.7603 20.5402 9.09834 20.001 9.57236 20.001L10.0035 18.8602C6.85586 18.8602 3.1066 20.147 3.1066 21.8507C3.1066 22.3413 3.34897 22.5859 3.34897 23.039C3.34897 23.6518 3.1066 24.0687 3.1066 24.7552C3.1066 25.2083 3.33825 25.7849 3.61172 26.2879C3.90664 26.8146 4.25411 27.1566 4.25411 27.5985C4.25411 27.9292 4.06536 28.3212 4.06536 29.0938C4.06536 30.7476 4.87613 31.7536 6.45476 33.7257L6.77114 34.1176C5.46597 34.7067 3.0326 35.9324 2.4642 36.2132C0.495199 37.1693 0.000803222 38.3338 0.000803222 40.1724C0.000803222 40.8826 0.000803255 41.6914 0.0426285 42.4141H0.421201C1.21159 42.4141 1.30597 41.8636 1.30597 41.3369C1.30597 40.9812 1.29524 40.5768 1.29524 40.1349C1.30597 39.1189 1.33814 38.2115 2.7484 37.4764C3.31787 37.1818 6.10729 35.8588 8.18247 34.829C8.79269 34.522 9.36108 34.2649 9.99275 34.2649C10.6984 34.2649 11.5092 34.6206 12.5205 35.3196C13.3731 35.9074 14.2686 36.7038 14.9743 37.6224L15.8687 36.8261C15.0997 35.7726 14.0369 34.829 12.9731 34.0939C11.9092 33.3587 10.9622 32.9293 10.1622 32.9293C9.81473 32.9293 9.53053 33.003 9.28816 33.0766C9.00396 33.1628 8.74014 33.2601 8.40339 33.2601C8.0141 33.2601 7.687 33.1503 7.21298 32.5125C7.03388 32.2803 5.89709 30.7725 5.65472 30.3319C5.5389 30.1235 5.3287 29.7066 5.3287 29.2161C5.3287 29.0077 5.3598 28.763 5.46597 28.5421C6.44404 29.4245 7.6559 29.9637 9.12944 30.1722L8.92996 29.0077C6.81296 28.3586 4.55976 26.1893 4.55976 24.7926C4.55976 24.4981 4.62303 24.2896 4.71848 24.0325C5.5389 24.915 7.46608 25.8336 8.50849 25.8336Z" fill="#FF6961"/>
<path d="M23.6611 26.0546C24.9877 24.9638 26.3562 24.8414 27.4619 24.8414C28.1257 24.8414 28.9043 24.9513 29.7258 25.0736C30.3896 25.1722 30.9891 25.2458 31.7055 25.2458C33.148 25.2458 34.6011 24.633 35.2328 24.3135C35.4119 24.5718 35.7176 24.9151 35.9599 25.1597C35.6543 25.3806 33.7174 26.6051 31.7377 26.6051C30.8637 26.6051 30.0314 26.484 29.3151 26.3729C28.6834 26.2756 27.9992 26.1894 27.3353 26.1894C26.6093 26.1894 25.1454 26.4341 24.2403 26.9371L23.6611 26.0546Z" fill="#FF6961"/>
<path d="M43.2147 30.4296C41.635 34.3026 39.2338 37.121 36.7704 38.751C35.6015 39.5224 34.5483 40.0254 32.2747 40.0254H27.3565C25.5988 40.0254 24.4931 40.295 23.6298 40.5521C22.7021 40.8342 22.1133 41.115 21.176 41.115C19.7861 41.115 18.5013 40.3187 17.8804 39.5598L19.0386 38.4939L18.4595 37.5978C18.1228 37.8811 14.0057 41.4221 13.1413 42.2184L13.0887 42.1822C13.1102 41.9376 13.1102 41.7167 13.1102 41.4957C13.1102 38.7997 12.0356 38.1494 10.4044 37.3906L9.29871 38.1494C11.5412 39.0206 12.0989 39.7184 12.0989 41.6667C12.0989 43.2119 11.6248 43.8235 10.9406 44.2903C10.235 44.7684 9.36091 44.9881 8.59304 44.9881C8.26595 44.9881 8.11902 45.0617 8.0032 45.1965C7.87665 45.3438 7.81338 45.5647 7.81338 45.8705V46.2999H8.0772C9.48746 46.2999 10.7937 46.0427 12.2254 44.7309L16.8905 40.491C17.5533 41.3734 19.2285 42.5991 21.2071 42.5991C22.3235 42.5991 23.0399 42.2796 24.0716 41.9738C24.8717 41.7404 25.6513 41.5319 27.3565 41.5319H32.2951C34.8229 41.5319 36.0444 40.9191 37.3914 40.0379C40.3191 38.1257 42.8147 34.8905 44.2261 31.176C43.8571 30.9077 43.5097 30.6618 43.2147 30.4296Z" fill="#FF6961"/>
<path d="M35.2858 35.0376C36.5599 32.6599 37.6967 30.5517 40.4872 28.8368C40.1923 28.6283 39.7719 28.3101 39.5499 28.1378C38.4656 28.6895 37.3921 29.7916 36.4762 30.9075C34.37 33.4562 34.5587 34.9265 32.3377 35.92C31.7789 36.1647 31.0947 36.4343 30.2207 36.6677C29.7048 34.8167 28.4104 32.9781 27.0409 32.9781C26.0929 32.9781 24.9979 33.5535 23.7346 34.2038C22.2503 34.9639 20.8915 35.8339 20.4604 36.1647L21.0395 37.0721C21.4813 36.7887 22.7554 36.0536 24.0295 35.417C25.1352 34.8653 26.1358 34.4123 26.8092 34.4123C27.8935 34.4123 28.5992 35.8464 28.9895 36.9972C27.5675 37.3903 25.2295 37.4877 24.5249 37.4877C24.1978 37.4877 24.082 37.5489 23.9662 37.6599C23.8611 37.7698 23.7764 37.9657 23.7238 38.2353L23.6402 38.6522H24.3973C28.3364 38.6522 32.0535 37.9295 34.4429 36.2383C34.7807 36.3494 35.0756 36.4218 35.4542 36.4218C36.8226 36.4218 38.234 35.5518 39.1188 34.7555C39.4341 34.4734 39.508 34.2151 39.508 33.9342C39.508 33.7994 39.4973 33.6771 39.4866 33.5535L39.4448 33.0767C38.1814 34.24 37.1283 35.1112 35.8231 35.1112C35.5915 35.1112 35.4231 35.0863 35.2858 35.0376Z" fill="#FF6961"/>
</svg>
