<svg width="95" height="50" viewBox="0 0 95 50" fill="none" xmlns="http://www.w3.org/2000/svg">
<path d="M43.7085 23.3688L46.7061 15.2889H53.9923L50.9858 23.3918L43.7085 23.3688ZM22.0961 9.52695H46.5963L50.1311 0L11.3078 0.0261909C10.6503 0.0640054 10.0138 0.29366 9.46312 0.691693C8.91248 1.08972 8.4675 1.64187 8.17364 2.29171L5.42238 9.52695H13.0232L5.5411 29.7038H11.7737C12.7769 29.7038 14.8218 29.0981 15.4391 27.4317L22.0961 9.52695ZM54.7432 0.0327387C53.5174 0.0327387 52.0721 1.06401 51.5913 2.32444L48.843 9.52695H57.91L50.4249 29.7038H56.7851C58.0554 29.7038 59.7352 29.0981 60.3466 27.4317L66.9948 9.52695H91.4771L95 0.0327387H54.7432ZM30.5695 29.0948C29.2251 30.1163 26.367 30.3291 24.9305 30.077C23.494 29.8249 18.3714 27.4481 21.0722 20.0426C23.773 12.6371 27.6936 11.6288 30.5458 11.6288C33.3979 11.6288 35.0214 12.8466 35.6625 13.1282C36.3035 13.4098 36.5172 13.0496 36.5528 12.935L37.0396 11.6255H45.8038L39.1142 29.7038H30.3499L30.5695 29.0948ZM30.9939 24.6555C31.3653 24.6329 31.724 24.499 32.0315 24.2683C32.339 24.0375 32.5836 23.7186 32.7391 23.3459L35.0214 17.3515C35.2944 16.6247 34.9591 16.0419 34.2735 16.019H33.2021C32.8309 16.0423 32.4724 16.1765 32.1651 16.4071C31.8577 16.6378 31.6129 16.9563 31.4569 17.3286L29.1805 23.3132C28.9075 24.04 29.2458 24.6391 29.9314 24.6457L30.9939 24.6555ZM81.9323 11.6288H90.6965L83.992 29.7038H75.2277L75.4533 29.0948C74.1088 30.1163 71.2507 30.3291 69.8143 30.077C68.3778 29.8249 63.2433 27.4579 65.9411 20.0524C68.639 12.6469 72.5626 11.6386 75.4177 11.6386C78.2728 11.6386 79.9052 12.8565 80.5344 13.138C81.1636 13.4196 81.3921 13.0594 81.4426 12.9449L81.9323 11.6288ZM79.1365 16.0092H78.0651C77.6942 16.032 77.3359 16.166 77.0289 16.3968C76.7219 16.6275 76.4778 16.9463 76.3229 17.3187L74.0614 23.323C73.7853 24.0498 74.1237 24.6489 74.8093 24.6555H75.8777C76.2491 24.6329 76.6078 24.499 76.9153 24.2683C77.2228 24.0375 77.4674 23.7186 77.6229 23.3459L79.8844 17.3515C80.1575 16.6149 79.8369 16.0157 79.1365 16.0092ZM0 44.6555H6.24746C7.25062 44.6555 9.29551 44.0499 9.91284 42.3835L13.412 32.9482H4.34206L0 44.6555ZM25.2273 33.783C24.8074 33.3777 24.3207 33.0654 23.7938 32.8631C23.1574 32.6149 22.4861 32.494 21.8112 32.5062C20.7033 32.4832 19.6075 32.7621 18.6207 33.3181C17.6894 33.852 16.8983 34.6412 16.3235 35.6098C15.7064 36.6399 15.3012 37.8065 15.1364 39.0277C14.8613 40.9331 15.1374 42.4511 15.9644 43.5817C16.7915 44.7123 18.0865 45.2786 19.8494 45.2808C20.6258 45.2902 21.3987 45.1665 22.1406 44.9142C22.7791 44.6968 23.3807 44.365 23.9214 43.932C24.3669 43.5802 24.757 43.1499 25.0759 42.6585C25.326 42.2859 25.4974 41.8564 25.5775 41.4013C25.6007 41.2387 25.594 41.0725 25.5578 40.9128C25.5216 40.7531 25.4566 40.603 25.3668 40.4715C25.2771 40.3287 25.156 40.2135 25.0147 40.1367C24.8734 40.06 24.7168 40.0242 24.5595 40.0328C24.275 40.0298 23.9983 40.1351 23.776 40.3307C23.5121 40.5698 23.2812 40.8499 23.0904 41.1623C22.7523 41.698 22.3191 42.1524 21.8171 42.498C21.3518 42.7933 20.8225 42.9438 20.2857 42.9335C19.894 42.9422 19.5059 42.8503 19.152 42.665C18.8251 42.4875 18.5504 42.2117 18.3595 41.8695C18.1468 41.4834 18.0122 41.0512 17.9648 40.6025C17.9058 40.0578 17.9178 39.5065 18.0004 38.9655C18.1289 37.8671 18.5563 36.8375 19.2262 36.0125C19.5002 35.6689 19.8377 35.3939 20.216 35.2059C20.5942 35.0178 21.0045 34.9212 21.4194 34.9223C21.9127 34.8911 22.4011 35.0445 22.8055 35.3577C23.1856 35.7171 23.4895 36.1641 23.6958 36.6673C23.8081 36.9102 23.9555 37.1313 24.1321 37.3221C24.2899 37.4637 24.49 37.5349 24.6931 37.5218C25.0519 37.5239 25.4 37.3859 25.6754 37.1322C25.9517 36.8972 26.1372 36.5557 26.1948 36.1762C26.2433 35.7693 26.1846 35.3556 26.0257 34.9845C25.8396 34.5262 25.5675 34.1167 25.2273 33.783ZM37.8261 36.3399C37.9763 37.1945 37.9834 38.0722 37.8469 38.9295C37.7206 39.8348 37.4599 40.7108 37.0752 41.5224C36.711 42.2925 36.2221 42.9827 35.6328 43.5588C35.0499 44.1285 34.3755 44.5727 33.6443 44.8683C32.8703 45.1788 32.0519 45.3329 31.2284 45.3234C30.4522 45.3414 29.6808 45.1855 28.9609 44.865C28.3386 44.5778 27.7887 44.1285 27.3582 43.5555C26.9285 42.9661 26.6343 42.2708 26.5005 41.529C26.3513 40.6753 26.3453 39.7987 26.4827 38.9426C26.607 38.0286 26.8677 37.1435 27.2544 36.3235C27.617 35.5578 28.1016 34.8702 28.6849 34.2937C29.2665 33.7239 29.9401 33.2796 30.6704 32.9842C31.4389 32.6763 32.251 32.5221 33.0685 32.5291C33.8503 32.5127 34.6273 32.6686 35.3538 32.9875C35.9835 33.2701 36.5401 33.72 36.9743 34.297C37.4045 34.8915 37.6968 35.5927 37.8261 36.3399ZM34.6445 35.9339C34.4423 35.5827 34.1582 35.298 33.8219 35.1096C33.4856 34.9212 33.1095 34.8362 32.7331 34.8634C32.1883 34.8601 31.6535 35.0257 31.1898 35.3414C30.6907 35.6913 30.2818 36.1773 30.0027 36.7524C29.6658 37.4283 29.4426 38.1659 29.3438 38.9295C29.2224 39.6425 29.2325 40.3751 29.3735 41.0837C29.4769 41.6368 29.748 42.1344 30.1421 42.4948C30.55 42.8328 31.0511 43.0051 31.5608 42.9826C31.979 42.9877 32.3934 42.8942 32.7763 42.7085C33.1591 42.5227 33.5016 42.249 33.7808 41.9055C34.4429 41.0706 34.8572 40.032 34.968 38.9295C35.1639 37.6396 35.056 36.6378 34.6445 35.9241V35.9339ZM54.1971 33.066C53.6029 32.7053 52.9309 32.5298 52.2531 32.5586C51.5964 32.5547 50.9473 32.7136 50.3536 33.0235C49.6976 33.3849 49.104 33.8702 48.5996 34.4574C48.3932 33.8664 48.0182 33.3654 47.5312 33.03C46.9879 32.6961 46.3719 32.533 45.7504 32.5586C45.0787 32.5544 44.4143 32.712 43.8035 33.0202C43.1312 33.3759 42.5229 33.8628 42.0079 34.4574L42.0494 34.1595C42.095 33.9553 42.099 33.7425 42.061 33.5364C42.023 33.3304 41.9441 33.1361 41.8298 32.9678C41.7174 32.8237 41.5765 32.7098 41.4181 32.6349C41.2597 32.56 41.0878 32.5261 40.9157 32.5357C40.7227 32.5323 40.5311 32.5711 40.3518 32.6497C40.1725 32.7284 40.0091 32.8454 39.871 32.994C39.5527 33.3626 39.3535 33.8367 39.3041 34.3428L38.0101 43.3361C37.9151 43.9909 37.9834 44.482 38.2089 44.8159C38.3242 44.9819 38.4745 45.1143 38.6468 45.2016C38.819 45.2889 39.008 45.3285 39.1973 45.3168C39.4069 45.3206 39.6152 45.2782 39.8098 45.1922C40.0045 45.1062 40.1816 44.9783 40.331 44.8159C40.6794 44.4115 40.8965 43.8911 40.9483 43.3361L41.5597 39.0801C41.6757 38.0135 41.9781 36.9817 42.4501 36.042C42.8478 35.3348 43.5156 34.9812 44.4475 34.9812C44.6271 34.9578 44.8093 34.9838 44.9776 35.0569C45.1459 35.13 45.2952 35.248 45.4121 35.4003C45.5973 35.7205 45.6828 36.0987 45.6554 36.4774C45.6236 37.0954 45.5592 37.7108 45.4625 38.3206L44.7413 43.3296C44.6463 43.9844 44.7097 44.4798 44.9313 44.8159C45.0447 44.9812 45.1936 45.1129 45.3645 45.1992C45.5354 45.2855 45.7231 45.3236 45.9107 45.3103C46.3368 45.3194 46.7489 45.1416 47.0563 44.8159C47.4094 44.4117 47.6289 43.8882 47.6796 43.3296L48.2731 39.1489C48.471 37.8066 48.7104 36.8703 48.9914 36.3399C49.2294 35.9378 49.5483 35.6017 49.9233 35.3577C50.2606 35.1234 50.6496 34.9954 51.0481 34.9878C51.2305 34.966 51.4149 34.9924 51.5863 35.0647C51.7576 35.1369 51.9109 35.2531 52.0335 35.4036C52.2297 35.6999 52.3271 36.0619 52.3095 36.4283C52.2904 36.9771 52.2389 37.5239 52.1552 38.0652L51.3924 43.3492C51.2974 44.004 51.3657 44.4951 51.5913 44.829C51.707 44.9953 51.8578 45.1278 52.0306 45.2151C52.2034 45.3024 52.3928 45.3418 52.5826 45.3299C53.0094 45.3382 53.4221 45.1606 53.7311 44.8356C54.0822 44.4301 54.3005 43.9071 54.3514 43.3492L55.2418 37.2108C55.4169 35.9929 55.4228 35.0958 55.2626 34.5295C55.0869 33.9112 54.7064 33.3887 54.1971 33.066ZM57.4796 41.8531C57.0403 41.8494 56.6161 42.0296 56.2924 42.3573C55.9592 42.6655 55.737 43.0952 55.6662 43.5686C55.6178 43.7941 55.6194 44.0291 55.6711 44.2537C55.7228 44.4783 55.8229 44.6858 55.963 44.8585C56.1004 45.0111 56.2649 45.1306 56.4463 45.2095C56.6276 45.2884 56.8218 45.3249 57.0166 45.3168C57.4386 45.3135 57.8465 45.1492 58.1711 44.852C58.5288 44.5318 58.7614 44.0724 58.8211 43.5686C58.859 43.3546 58.852 43.1338 58.8006 42.9233C58.7491 42.7127 58.6546 42.518 58.5243 42.354C58.3955 42.1888 58.2349 42.0575 58.0541 41.9697C57.8733 41.8819 57.677 41.8398 57.4796 41.8465V41.8531ZM71.3398 34.4116C71.4318 33.783 71.3695 33.3116 71.1587 33.0006C71.0449 32.8433 70.8983 32.7189 70.7313 32.6379C70.5643 32.557 70.3821 32.5219 70.2001 32.5357C69.7906 32.5293 69.3949 32.6982 69.096 33.0071C68.7605 33.3882 68.5514 33.8831 68.5024 34.4116L67.9534 38.2355C67.7367 39.7414 67.5141 40.7171 67.2915 41.1623C67.0215 41.6681 66.6409 42.0913 66.1845 42.3933C65.7574 42.6932 65.2632 42.8564 64.7569 42.8647C64.5549 42.8815 64.3519 42.853 64.1601 42.781C63.9684 42.709 63.7918 42.5949 63.641 42.4457C63.3761 42.126 63.2225 41.713 63.2077 41.2802C63.1722 40.666 63.204 40.0493 63.3027 39.4435L64.0298 34.4116C64.0852 34.1751 64.0965 33.9286 64.0628 33.6871C64.0291 33.4457 63.9512 33.2143 63.8339 33.0071C63.7173 32.848 63.5677 32.7221 63.3978 32.64C63.2279 32.558 63.0426 32.5222 62.8575 32.5357C62.4521 32.526 62.0597 32.6931 61.7653 33.0006C61.429 33.3837 61.2198 33.8809 61.1717 34.4116L60.2813 40.6319C60.1003 41.8826 60.1389 42.8451 60.3971 43.5129C60.618 44.0689 60.9987 44.5291 61.4804 44.8225C62.0265 45.1482 62.6404 45.3107 63.2611 45.2939C63.7882 45.3006 64.3133 45.2211 64.8193 45.0582C65.297 44.8973 65.7487 44.6542 66.1578 44.338C66.6109 43.9888 67.0297 43.5883 67.4073 43.143L67.3509 43.5457C67.3004 43.7669 67.2915 43.9972 67.3246 44.2225C67.3578 44.4477 67.4324 44.663 67.5438 44.8552C67.6463 45.0073 67.7811 45.1292 67.9364 45.2103C68.0916 45.2914 68.2626 45.3291 68.4342 45.3201C68.8148 45.3251 69.1818 45.1639 69.4552 44.8716C69.7752 44.506 69.9739 44.0318 70.0191 43.526L71.3398 34.4116ZM82.0569 32.7256C81.88 32.6 81.6737 32.534 81.4633 32.5357C81.2142 32.5219 80.9662 32.5818 80.7451 32.7092C80.5154 32.8776 80.3236 33.1015 80.1842 33.364C79.9314 33.8054 79.7016 34.2623 79.4956 34.7324L76.1686 41.9349L74.8686 34.1955C74.8165 33.7601 74.6885 33.3398 74.4917 32.958C74.394 32.808 74.2621 32.6891 74.1095 32.6132C73.9568 32.5374 73.7887 32.5072 73.6221 32.5258C73.373 32.5295 73.1285 32.6003 72.9098 32.7321C72.6774 32.8661 72.4747 33.055 72.3162 33.2854C72.1614 33.5036 72.0592 33.7615 72.0194 34.0351C71.998 34.4478 72.0484 34.8612 72.1678 35.253L74.278 44.996L73.9011 45.7032C73.6975 46.1099 73.4685 46.5004 73.2155 46.8719C73.0599 47.107 72.8566 47.2987 72.6219 47.4318C72.3704 47.5481 72.099 47.6028 71.8265 47.5922C71.6713 47.5891 71.5169 47.566 71.3665 47.5234C71.225 47.4834 71.0791 47.4658 70.9332 47.471C70.6037 47.4519 70.2779 47.5545 70.0072 47.7624C69.7734 47.969 69.623 48.269 69.5887 48.5973C69.533 48.8117 69.5499 49.0412 69.6362 49.2429C69.7224 49.4447 69.8722 49.605 70.0576 49.694C70.6465 49.9294 71.2724 50.0307 71.8977 49.9919C72.6195 50.0209 73.3381 49.8733 74.002 49.5598C74.5482 49.2716 75.0266 48.848 75.3999 48.3223C75.8764 47.6218 76.2983 46.8782 76.6612 46.0993L81.9323 35.3577C82.0629 35.0795 82.1816 34.8077 82.2825 34.5393C82.3834 34.2708 82.4576 34.0613 82.508 33.9172C82.5414 33.6879 82.5189 33.4529 82.4427 33.2363C82.3682 33.0224 82.2328 32.8409 82.0569 32.719V32.7256Z" fill="#FF6961"/>
</svg>
