<svg width="367" height="202" viewBox="0 0 367 202" fill="none" xmlns="http://www.w3.org/2000/svg">
<path fill-rule="evenodd" clip-rule="evenodd" d="M49.7388 51.0133C45.2056 49.6151 40.7713 49.1585 35.1857 46.3501C29.2926 41.034 28.8705 39.328 25.1291 37.7643C23.7207 37.2319 22.6902 37.4562 20.3293 35.327C17.3121 31.9206 18.5075 30.3395 19.9668 29.0705C21.1974 29.8158 21.5874 30.698 25.0308 30.6724C26.9807 30.7441 29.7642 31.2989 32.5001 32.862C34.652 34.6551 37.3122 37.1211 40.4399 38.2898C44.1721 39.1997 45.5087 40.1184 48.0704 39.9942C51.0716 40.2315 51.5563 40.8769 54.0719 41.8824C55.2081 46.7525 53.7425 48.8145 49.7388 51.0133Z" fill="#FF6961"/>
<path fill-rule="evenodd" clip-rule="evenodd" d="M52.5548 43.1283C52.1561 42.9555 51.8256 42.8028 51.533 42.6676C50.3932 42.141 49.827 41.8793 48.0374 41.7299C46.5498 41.7869 45.3984 41.5414 44.2051 41.1924C43.8103 41.0769 43.4286 40.9565 43.0329 40.8317C42.1843 40.5641 41.2713 40.2761 40.0273 39.9728L39.927 39.9484L39.8303 39.9122C36.7842 38.774 34.1518 36.5374 32.1825 34.8642C31.9473 34.6643 31.7216 34.4725 31.5057 34.2916C29.1064 32.9527 26.6807 32.4725 25.0031 32.4052C23.164 32.4154 21.937 32.1873 20.9473 31.7366C20.6854 31.6173 20.4559 31.4894 20.2534 31.3638C20.2211 31.442 20.2042 31.5129 20.1971 31.5798C20.1705 31.8303 20.2351 32.582 21.5674 34.1071C22.5798 35.0088 23.2273 35.3441 23.7044 35.5252C23.9719 35.6267 24.2235 35.6945 24.5596 35.7828L24.5934 35.7917C24.9096 35.8747 25.3106 35.98 25.7449 36.1442L25.773 36.1548L25.8007 36.1664C27.9304 37.0565 29.1511 38.0224 30.5696 39.4156C30.9691 39.8079 31.3757 40.2243 31.8217 40.6809C32.8956 41.7802 34.1976 43.1132 36.1761 44.9068C38.7466 46.1781 41.067 46.9331 43.3104 47.538C44.143 47.7625 45.0068 47.9757 45.8817 48.1916C47.0923 48.4904 48.3241 48.7944 49.5239 49.1409C51.0478 48.2392 51.8653 47.4725 52.2892 46.6543C52.6826 45.895 52.8556 44.8526 52.5548 43.1283ZM55.3764 48.2449C54.4051 50.1198 52.6502 51.3924 50.577 52.531L49.9305 52.8861L49.2255 52.6686C47.8647 52.2489 46.5801 51.9332 45.2185 51.5987C44.3274 51.3797 43.4033 51.1527 42.4034 50.8831C39.9603 50.2243 37.3354 49.3713 34.4035 47.8972L34.1941 47.7919L34.0201 47.635C31.855 45.6818 30.3754 44.1675 29.2561 43.0218C28.8362 42.592 28.467 42.2142 28.1313 41.8845C26.9375 40.7119 26.0796 40.044 24.4869 39.3745C24.2421 39.2838 24.0045 39.2204 23.6744 39.1337L23.661 39.1302C23.336 39.0448 22.9235 38.9365 22.4684 38.7637C21.4993 38.3959 20.4706 37.7905 19.164 36.612L19.0917 36.5468L19.0272 36.474C17.4042 34.6417 16.5604 32.9196 16.7416 31.2146C16.9215 29.5218 18.0662 28.4243 18.8248 27.7646L19.7825 26.9318L20.8686 27.5896C21.1736 27.7743 21.4574 27.9796 21.6638 28.1289C21.7144 28.1656 21.7604 28.1988 21.8009 28.2276C22.0302 28.3904 22.1977 28.4966 22.3908 28.5845C22.7573 28.7514 23.4361 28.9516 25.0178 28.9398L25.0563 28.9395L25.0948 28.9409C27.2856 29.0215 30.3511 29.6374 33.3638 31.3587L33.4966 31.4346L33.6141 31.5325C33.8993 31.7701 34.1862 32.0126 34.4753 32.2569C36.4677 33.9406 38.5663 35.7142 40.9577 36.6325C42.2675 36.9558 43.3444 37.2948 44.21 37.5673C44.5705 37.6808 44.8944 37.7828 45.1831 37.8672C46.2003 38.1648 46.9691 38.3129 47.986 38.2637L48.097 38.2583L48.2077 38.267C50.7314 38.4665 51.886 38.9999 53.2506 39.6303C53.6986 39.8373 54.1692 40.0547 54.7183 40.2742L55.5589 40.6102L55.7641 41.4899C56.376 44.1127 56.3717 46.3238 55.3764 48.2449Z" fill="#FF6961"/>
<path fill-rule="evenodd" clip-rule="evenodd" d="M57.0959 38.7809C54.9208 34.5754 52.1411 31.0999 50.2378 25.1575C49.9136 17.2396 50.8387 15.7441 49.3368 11.9862C48.7311 10.611 47.8486 10.0348 47.7184 6.86305C48.0423 2.32954 50.0112 2.07264 51.9415 2.22209C52.2703 3.62005 51.9122 4.51558 54.3428 6.94806C55.6574 8.38595 57.2104 10.7554 58.0084 13.7974C58.2328 16.585 58.3318 20.2055 59.6866 23.2501C61.6499 26.5435 61.9289 28.1382 63.8123 29.8743C65.745 32.1762 65.6227 32.9733 66.6654 35.4679C63.9764 39.6882 61.4742 40.0897 57.0959 38.7809Z" fill="#FF6961"/>
<path fill-rule="evenodd" clip-rule="evenodd" d="M64.7129 35.2602C64.5579 34.8569 64.436 34.5158 64.3281 34.2137C63.9066 33.034 63.6974 32.4484 62.5511 31.0707C61.4681 30.052 60.837 29.0604 60.2506 27.9663C60.0567 27.6044 59.8754 27.2484 59.6875 26.8793C59.2845 26.088 58.8511 25.2368 58.1968 24.1391L58.1439 24.0504L58.1019 23.956C56.7819 20.9897 56.5382 17.5481 56.356 14.9746C56.3343 14.6676 56.3134 14.3728 56.2917 14.0928C55.5693 11.449 54.2142 9.38708 53.0873 8.14623C51.7918 6.84482 51.0949 5.81145 50.7238 4.7903C50.6254 4.51971 50.5561 4.2662 50.504 4.0337C50.4224 4.06605 50.3578 4.10465 50.3033 4.14776C50.1057 4.30403 49.6139 4.87508 49.4559 6.8895C49.5199 8.2404 49.7334 8.93509 49.9376 9.40063C50.0522 9.66179 50.1798 9.88821 50.3521 10.1892L50.3695 10.2196C50.5316 10.5028 50.7373 10.862 50.9241 11.2864L50.9363 11.3139L50.9474 11.3418C51.8028 13.4819 51.9668 15.0283 51.9636 17.0146C51.9626 17.5739 51.9496 18.1551 51.9353 18.7924C51.9009 20.3265 51.8592 22.1861 51.9616 24.8497C52.8525 27.5686 53.9374 29.7481 55.0759 31.768C55.4984 32.5177 55.951 33.2817 56.4093 34.0555C57.0437 35.1264 57.6891 36.2161 58.2817 37.3128C59.996 37.7661 61.1196 37.8113 62.0043 37.5391C62.8243 37.2868 63.691 36.6796 64.7129 35.2602ZM63.0239 40.8566C61.0042 41.478 58.866 41.1213 56.5992 40.4437L55.8937 40.2328L55.5553 39.5785C54.9024 38.3162 54.2285 37.1811 53.5141 35.978C53.0465 35.1904 52.5616 34.3737 52.054 33.473C50.8138 31.2728 49.5851 28.8068 48.5859 25.6872L48.5143 25.4634L48.5047 25.2287C48.3855 22.3193 48.4327 20.2051 48.4684 18.606C48.4818 18.0061 48.4936 17.4788 48.4943 17.0092C48.4971 15.3391 48.3742 14.2616 47.7379 12.6602C47.6315 12.4228 47.5105 12.2095 47.3413 11.9139L47.3344 11.9018C47.1678 11.6107 46.9563 11.2411 46.761 10.796C46.3449 9.84781 46.0574 8.69071 45.9853 6.93442L45.9813 6.83687L45.9882 6.73948C46.1625 4.29926 46.8045 2.49087 48.1518 1.42516C49.4878 0.368389 51.0727 0.414207 52.0755 0.491849L53.3396 0.589715L53.63 1.82449C53.7116 2.17128 53.7636 2.5175 53.8013 2.76895C53.8105 2.83063 53.8189 2.8866 53.8267 2.93548C53.8707 3.21244 53.9121 3.40553 53.9842 3.60395C54.1211 3.98066 54.453 4.6036 55.5696 5.72108L55.5968 5.74831L55.6228 5.77671C57.0998 7.39222 58.8072 10.0057 59.6862 13.3568L59.7251 13.5051L59.7374 13.658C59.7672 14.0275 59.7947 14.4016 59.8224 14.7785C60.0133 17.3758 60.2142 20.1103 61.2317 22.4542C61.9179 23.6128 62.4298 24.6169 62.8412 25.4237C63.0125 25.7597 63.1664 26.0615 63.3082 26.326C63.8077 27.2581 64.24 27.9087 64.9877 28.5979L65.0693 28.6731L65.1406 28.758C66.7662 30.6942 67.1936 31.8903 67.6985 33.3032C67.8642 33.7669 68.0382 34.254 68.2658 34.7983L68.6157 35.6355L68.1281 36.4007C66.6793 38.6745 65.094 40.2196 63.0239 40.8566Z" fill="#FF6961"/>
<path fill-rule="evenodd" clip-rule="evenodd" d="M70.7949 35.4145C72.229 30.9039 72.7182 26.4852 75.5739 20.935C80.9462 15.0959 82.6599 14.6871 84.2544 10.9672C84.7982 9.56654 84.5805 8.53731 86.7323 6.19807C90.1694 3.2133 91.7464 4.41662 93.0086 5.88075C92.2525 7.10273 91.3651 7.4854 91.3665 10.9193C91.2807 12.8633 90.7048 15.6351 89.118 18.3523C87.3047 20.4855 84.8132 23.1209 83.6192 26.2316C82.6803 29.9469 81.7497 31.2732 81.8561 33.8287C81.597 36.8199 80.9463 37.2986 79.9202 39.8001C75.0287 40.8987 72.9714 39.4226 70.7949 35.4145Z" fill="#FF6961"/>
<path fill-rule="evenodd" clip-rule="evenodd" d="M78.6816 38.2784C78.8577 37.882 79.0132 37.5535 79.1508 37.2626C79.687 36.1297 79.9533 35.5669 80.1159 33.7834C80.0692 32.2995 80.3235 31.153 80.682 29.9655C80.8006 29.5727 80.924 29.1929 81.0519 28.7992C81.3263 27.9549 81.6215 27.0465 81.9344 25.8081L81.9596 25.7082L81.9966 25.6121C83.1595 22.5825 85.4208 19.9733 87.1125 18.0214C87.3146 17.7882 87.5085 17.5645 87.6915 17.3505C89.051 14.9673 89.5498 12.5517 89.6291 10.8793C89.6318 9.04528 89.8692 7.82328 90.3282 6.83955C90.4497 6.57925 90.5795 6.35131 90.7069 6.15035C90.6288 6.11756 90.5579 6.10027 90.4909 6.09271C90.2399 6.06439 89.4856 6.12355 87.9469 7.44135C87.0355 8.44455 86.6947 9.08793 86.5097 9.56246C86.406 9.82846 86.3362 10.0789 86.2453 10.4134L86.2361 10.4472C86.1507 10.7619 86.0423 11.161 85.8746 11.5929L85.8638 11.6208L85.852 11.6484C84.9443 13.7658 83.9671 14.9762 82.5601 16.3809C82.1639 16.7765 81.7435 17.179 81.2825 17.6206C80.1725 18.6837 78.8267 19.9726 77.0141 21.9329C75.7212 24.4873 74.9477 26.7959 74.3252 29.0287C74.0942 29.8575 73.8743 30.7174 73.6516 31.5883C73.3435 32.7934 73.0299 34.0196 72.674 35.2136C73.5674 36.7396 74.3303 37.5602 75.1477 37.9887C75.9063 38.3863 76.9504 38.5662 78.6816 38.2784ZM73.5312 41.056C71.658 40.0741 70.3942 38.315 69.2671 36.2395L68.9156 35.5923L69.1387 34.8908C69.5692 33.5368 69.8948 32.2579 70.2399 30.9026C70.4657 30.0155 70.6999 29.0956 70.9774 28.1004C71.6552 25.6688 72.5291 23.0572 74.028 20.1439L74.1351 19.9359L74.2936 19.7636C76.2675 17.6183 77.7964 16.1536 78.9531 15.0455C79.3871 14.6298 79.7686 14.2643 80.1016 13.9319C81.2858 12.7497 81.9617 11.8989 82.6443 10.3153C82.737 10.0718 82.8022 9.83526 82.8915 9.50677L82.8951 9.49342C82.983 9.16991 83.0946 8.75931 83.271 8.30675C83.6467 7.34294 84.2611 6.32145 85.452 5.02679L85.5178 4.9552L85.5913 4.8914C87.44 3.28594 89.1729 2.45671 90.8812 2.64945C92.5775 2.84082 93.6699 3.99017 94.3261 4.75131L95.1545 5.71227L94.4872 6.79066C94.2998 7.09349 94.092 7.37502 93.9408 7.57977C93.9037 7.63004 93.87 7.67568 93.8408 7.71587C93.6759 7.94329 93.5683 8.10964 93.4787 8.30157C93.3088 8.6659 93.1033 9.34144 93.1039 10.9188L93.1039 10.9572L93.1022 10.9956C93.0059 13.1797 92.3667 16.2322 90.6194 19.2243L90.5423 19.3562L90.4434 19.4726C90.203 19.7554 89.9579 20.0397 89.7109 20.3263C88.0084 22.3012 86.2151 24.3815 85.2773 26.7598C84.9439 28.0636 84.5963 29.1351 84.3169 29.9964C84.2006 30.3551 84.0961 30.6773 84.0093 30.9646C83.7037 31.9769 83.5498 32.7425 83.592 33.757L83.5966 33.8676L83.587 33.978C83.3692 36.4932 82.8261 37.6408 82.1843 38.9971C81.9736 39.4424 81.7523 39.9101 81.5283 40.4562L81.1855 41.292L80.302 41.4904C77.6677 42.082 75.4505 42.062 73.5312 41.056Z" fill="#FF6961"/>
<path fill-rule="evenodd" clip-rule="evenodd" d="M82.8686 42.6467C87.0732 40.4534 90.5422 37.6614 96.49 35.7292C104.428 35.3602 105.933 36.2741 109.692 34.7546C111.068 34.1427 111.641 33.2594 114.82 33.1113C119.368 33.4081 119.637 35.37 119.498 37.2959C118.099 37.6318 117.199 37.2799 114.773 39.7177C113.339 41.037 110.972 42.5993 107.926 43.4126C105.132 43.6524 101.502 43.772 98.4572 45.1406C95.166 47.1175 93.5685 47.4048 91.8385 49.2931C89.5413 51.2337 88.7413 51.1162 86.2459 52.1705C81.9985 49.5132 81.5814 47.0203 82.8686 42.6467Z" fill="#FF6961"/>
<path fill-rule="evenodd" clip-rule="evenodd" d="M86.4411 50.2186C86.8475 50.0604 87.191 49.9361 87.4951 49.8261C88.6763 49.3987 89.2636 49.1862 90.6395 48.0344C91.6548 46.9486 92.6451 46.3138 93.7381 45.7232C94.0996 45.5278 94.4555 45.345 94.8244 45.1555C95.6157 44.7491 96.4672 44.3117 97.5643 43.6527L97.6526 43.5997L97.7464 43.5576C100.711 42.2252 104.158 41.9626 106.737 41.766C107.046 41.7425 107.342 41.7199 107.623 41.6966C110.273 40.9603 112.335 39.5959 113.573 38.4647C114.87 37.165 115.902 36.4651 116.922 36.0898C117.191 35.9907 117.444 35.9203 117.676 35.8672C117.644 35.792 117.607 35.732 117.566 35.6811C117.407 35.4844 116.829 34.9957 114.804 34.8496C113.447 34.9213 112.75 35.1386 112.282 35.3457C112.021 35.4618 111.794 35.5906 111.493 35.764L111.463 35.7815C111.18 35.9448 110.821 36.1518 110.397 36.3404L110.37 36.3525L110.342 36.3637C108.203 37.2283 106.655 37.4005 104.665 37.4087C104.105 37.411 103.522 37.4014 102.883 37.3908C101.344 37.3653 99.4776 37.3344 96.8055 37.4521C94.0822 38.3566 91.9017 39.4517 89.8821 40.5991C89.1325 41.025 88.3688 41.4808 87.5955 41.9423C86.5254 42.581 85.4368 43.2308 84.3406 43.8279C83.897 45.5371 83.8592 46.6533 84.1358 47.5294C84.3929 48.3436 85.0068 49.2052 86.4411 50.2186ZM80.8277 48.575C80.1914 46.5599 80.538 44.4216 81.2046 42.1566L81.4129 41.449L82.0667 41.1079C83.3288 40.4495 84.4636 39.7706 85.6662 39.0512C86.4532 38.5804 87.2693 38.0922 88.1691 37.581C90.368 36.3317 92.833 35.0926 95.9543 34.0786L96.1764 34.0064L96.4096 33.9956C99.3257 33.8601 101.445 33.8949 103.049 33.9213C103.65 33.9312 104.18 33.9399 104.651 33.9379C106.327 33.931 107.409 33.802 109.013 33.1574C109.252 33.0496 109.465 32.9275 109.761 32.7571L109.772 32.7502C110.063 32.5824 110.433 32.3695 110.877 32.1724C111.824 31.7527 112.981 31.4597 114.74 31.3777L114.837 31.3732L114.933 31.3795C117.378 31.5391 119.192 32.1674 120.268 33.5042C121.338 34.8332 121.301 36.4187 121.229 37.4205L121.137 38.6872L119.903 38.9834C119.556 39.0666 119.21 39.1203 118.958 39.1593C118.897 39.1689 118.84 39.1777 118.791 39.1857C118.513 39.2313 118.319 39.2738 118.119 39.3473C117.74 39.4868 117.117 39.8222 116.003 40.9419L115.976 40.9692L115.947 40.9952C114.336 42.4774 111.726 44.1941 108.373 45.0893L108.226 45.1286L108.074 45.1417C107.704 45.1734 107.329 45.203 106.952 45.2328C104.348 45.4381 101.604 45.6545 99.2574 46.6839C98.0996 47.3749 97.0961 47.891 96.2893 48.3059C95.9533 48.4787 95.6514 48.634 95.3867 48.777C94.4543 49.2808 93.804 49.7161 93.1172 50.4657L93.0423 50.5474L92.9576 50.619C91.0263 52.2505 89.8309 52.683 88.4174 53.1945C87.9533 53.3625 87.4656 53.539 86.9206 53.7692L86.0903 54.12L85.3261 53.6419C83.0396 52.2114 81.4795 50.6394 80.8277 48.575Z" fill="#FF6961"/>
<path fill-rule="evenodd" clip-rule="evenodd" d="M86.321 56.3043C90.8511 57.7125 95.2844 58.1788 100.864 60.9995C106.745 66.3284 107.164 68.0353 110.901 69.6073C112.309 70.1427 113.34 69.9207 115.696 72.0551C118.706 75.4681 117.507 77.0466 116.045 78.3124C114.816 77.5643 114.428 76.6813 110.984 76.6994C109.034 76.6234 106.252 76.0625 103.52 74.4934C101.372 72.6955 98.7169 70.2238 95.5918 69.0482C91.8617 68.1301 90.5271 67.2085 87.9651 67.3271C84.9644 67.0833 84.4811 66.4367 81.9677 65.4257C80.8423 60.5531 82.3124 58.4944 86.321 56.3043Z" fill="#FF6961"/>
<path fill-rule="evenodd" clip-rule="evenodd" d="M83.4876 64.1832C83.8859 64.3568 84.216 64.5102 84.5084 64.6461C85.647 65.1752 86.2126 65.4381 88.0019 65.5915C89.4896 65.5377 90.6405 65.7857 91.833 66.1374C92.2275 66.2538 92.6089 66.375 93.0044 66.5006C93.8524 66.7701 94.7647 67.0601 96.0081 67.3661L96.1083 67.3908L96.2049 67.4271C99.2486 68.572 101.876 70.8144 103.842 72.4919C104.076 72.6923 104.302 72.8846 104.517 73.066C106.914 74.4101 109.338 74.8957 111.016 74.9666C112.855 74.9604 114.081 75.1912 115.07 75.6441C115.332 75.764 115.561 75.8924 115.763 76.0184C115.796 75.9403 115.813 75.8695 115.82 75.8025C115.847 75.5521 115.784 74.8003 114.455 73.2722C113.445 72.3684 112.798 72.0316 112.321 71.8495C112.054 71.7474 111.802 71.679 111.467 71.59L111.433 71.581C111.117 71.4973 110.716 71.3912 110.282 71.226L110.254 71.2154L110.226 71.2037C108.099 70.3089 106.88 69.3403 105.465 67.944C105.066 67.5508 104.66 67.1336 104.215 66.676C103.144 65.5743 101.845 64.2385 99.8702 62.4405C97.3025 61.1637 94.9838 60.4036 92.7418 59.7938C91.9096 59.5674 91.0463 59.3523 90.1719 59.1345C88.9619 58.8331 87.7308 58.5264 86.5318 58.1772C85.0059 59.0756 84.1866 59.8405 83.7609 60.6578C83.3659 61.4162 83.1906 62.4583 83.4876 64.1832ZM80.6773 59.0604C81.6527 57.1877 83.4104 55.9189 85.4861 54.7848L86.1333 54.4312L86.8379 54.6502C88.1977 55.0729 89.4817 55.3914 90.8425 55.7289C91.7331 55.9498 92.6567 56.1789 93.656 56.4507C96.0977 57.1148 98.7208 57.9736 101.649 59.4541L101.859 59.5598L102.032 59.7171C104.193 61.675 105.669 63.1926 106.786 64.3407C107.205 64.7714 107.573 65.1501 107.908 65.4805C109.099 66.6557 109.956 67.3255 111.547 67.9985C111.792 68.0897 112.029 68.1536 112.359 68.241L112.373 68.2446C112.697 68.3307 113.11 68.4399 113.564 68.6136C114.533 68.9836 115.56 69.5913 116.864 70.7726L116.936 70.838L117 70.9109C118.619 72.7468 119.459 74.4708 119.274 76.1754C119.091 77.8678 117.944 78.9627 117.184 79.6207L116.224 80.4515L115.14 79.7913C114.835 79.6059 114.552 79.4 114.346 79.2502C114.295 79.2134 114.249 79.1801 114.209 79.1512C113.98 78.9879 113.812 78.8814 113.62 78.793C113.253 78.6253 112.575 78.4237 110.993 78.432L110.955 78.4322L110.916 78.4307C108.726 78.3453 105.662 77.7227 102.653 75.9948L102.52 75.9186L102.403 75.8205C102.118 75.5822 101.832 75.3391 101.543 75.0942C99.5545 73.4061 97.4597 71.6279 95.0704 70.7043C93.7613 70.3782 92.6851 70.0368 91.8202 69.7624C91.4599 69.6481 91.1363 69.5455 90.8477 69.4604C89.8312 69.1606 89.0627 69.0108 88.0457 69.0578L87.9347 69.063L87.824 69.054C85.3008 68.8489 84.1473 68.313 82.7842 67.6796C82.3366 67.4717 81.8665 67.2532 81.3179 67.0325L80.4779 66.6947L80.2747 65.8145C79.6685 63.1904 79.6778 60.9793 80.6773 59.0604Z" fill="#FF6961"/>
<path fill-rule="evenodd" clip-rule="evenodd" d="M65.3732 71.8783C63.9645 76.3969 63.5001 80.8183 60.6758 86.3844C55.3363 92.2534 53.625 92.6718 52.0514 96.4005C51.5155 97.8042 51.739 98.8322 49.6004 101.183C46.1801 104.187 44.5964 102.993 43.326 101.536C44.0752 100.31 44.9604 99.9221 44.9397 96.4882C45.0145 94.5438 45.5749 91.7688 47.1464 89.0428C48.9476 86.8995 51.4243 84.2502 52.6008 81.1329C53.5187 77.4124 54.4419 76.0808 54.3211 73.526C54.5634 70.5334 55.2114 70.051 56.2234 67.5438C61.1086 66.4179 63.1742 67.8825 65.3732 71.8783Z" fill="#FF6961"/>
<path fill-rule="evenodd" clip-rule="evenodd" d="M57.4705 69.0586C57.2967 69.456 57.143 69.7853 57.007 70.077C56.4772 71.2128 56.2141 71.7771 56.0616 73.5615C56.1166 75.0451 55.8687 76.193 55.5169 77.3825C55.4006 77.776 55.2793 78.1564 55.1536 78.5508C54.8839 79.3967 54.5939 80.3067 54.2879 81.5469L54.2632 81.6469L54.2269 81.7432C53.081 84.7793 50.8344 87.4011 49.1536 89.3625C48.9529 89.5967 48.7602 89.8216 48.5784 90.0366C47.2324 92.4273 46.7472 94.8457 46.6773 96.5185C46.6849 98.3525 46.4543 99.5758 46.0009 100.562C45.8809 100.823 45.7523 101.052 45.6261 101.253C45.7045 101.286 45.7754 101.303 45.8425 101.31C46.0937 101.337 46.8476 101.273 48.3789 99.947C49.2845 98.9388 49.6217 98.2935 49.804 97.8179C49.9062 97.5514 49.9746 97.3005 50.0637 96.9655L50.0726 96.9318C50.1563 96.6166 50.2625 96.2169 50.4277 95.784L50.4384 95.756L50.4501 95.7284C51.3458 93.6059 52.3161 92.39 53.7153 90.9775C54.1093 90.5797 54.5274 90.1748 54.9859 89.7307C56.0899 88.6614 57.4284 87.365 59.2299 85.3946C60.5085 82.8329 61.269 80.5201 61.8788 78.2838C62.1052 77.4538 62.3202 76.5927 62.538 75.7206C62.8394 74.5137 63.1461 73.2858 63.4953 72.0898C62.5933 70.5688 61.8258 69.7525 61.0059 69.3286C60.2451 68.9352 59.2 68.7611 57.4705 69.0586ZM62.6053 66.2523C64.484 67.2236 65.7576 68.9756 66.8964 71.0448L67.2514 71.69L67.0323 72.3928C66.6095 73.7491 66.2911 75.0298 65.9536 76.387C65.7327 77.2754 65.5037 78.1966 65.2319 79.1933C64.5677 81.6287 63.7085 84.2451 62.226 87.1667L62.1201 87.3754L61.9625 87.5486C60.0008 89.7049 58.4801 91.1781 57.3297 92.2927C56.8981 92.7108 56.5186 93.0784 56.1875 93.4127C55.0099 94.6015 54.3388 95.4561 53.6652 97.0435C53.5738 97.2874 53.51 97.5243 53.4226 97.8533L53.419 97.8667C53.3329 98.1907 53.2236 98.6019 53.0498 99.0554C52.6795 100.021 52.0709 101.046 50.8873 102.348L50.8218 102.42L50.7487 102.484C48.909 104.1 47.1808 104.938 45.4714 104.755C43.7741 104.573 42.6753 103.43 42.0149 102.673L41.1811 101.716L41.8423 100.634C42.028 100.33 42.2342 100.048 42.3843 99.8421C42.4211 99.7917 42.4545 99.7458 42.4834 99.7055C42.647 99.4772 42.7537 99.3102 42.8422 99.1178C43.0101 98.7525 43.2118 98.0759 43.2023 96.4985L43.2021 96.4601L43.2036 96.4217C43.2876 94.2372 43.9096 91.181 45.6401 88.1792L45.7164 88.0469L45.8147 87.9299C46.0535 87.6458 46.297 87.3601 46.5424 87.0721C48.2337 85.0877 50.0153 82.9974 50.9397 80.614C51.2658 79.3083 51.6074 78.2349 51.8819 77.3721C51.9962 77.0127 52.0989 76.6899 52.184 76.4021C52.4839 75.3881 52.6336 74.6217 52.5856 73.6075L52.5804 73.4969L52.5893 73.3865C52.7931 70.8701 53.3297 69.7194 53.9638 68.3596C54.172 67.9131 54.3907 67.4441 54.6116 66.8968L54.9498 66.0591L55.8321 65.8557C58.4631 65.2494 60.6803 65.2569 62.6053 66.2523Z" fill="#FF6961"/>
<path fill-rule="evenodd" clip-rule="evenodd" d="M53.2286 64.6734C49.0304 66.8787 45.5693 69.6806 39.6271 71.6299C31.6904 72.0215 30.1828 71.112 26.4276 72.6421C25.0538 73.258 24.4837 74.143 21.3044 74.3002C16.7557 74.0164 16.4811 72.0552 16.6142 70.129C18.0132 69.7891 18.9143 70.1384 21.3324 67.6936C22.7629 66.3703 25.1255 64.8012 28.1689 63.9792C30.9621 63.7313 34.5917 63.6014 37.6329 62.2241C40.9184 60.2378 42.5151 59.9458 44.2396 58.0527C46.5312 56.1055 47.3315 56.2206 49.8239 55.1593C54.079 57.8043 54.5032 60.2961 53.2286 64.6734Z" fill="#FF6961"/>
<path fill-rule="evenodd" clip-rule="evenodd" d="M49.6343 57.1117C49.2283 57.2711 48.8852 57.3963 48.5814 57.5072C47.4015 57.938 46.8148 58.1521 45.4422 59.3079C44.4301 60.3966 43.4416 61.0342 42.3503 61.628C41.9893 61.8244 41.634 62.0082 41.2656 62.1987C40.4755 62.6074 39.6253 63.0472 38.53 63.7094L38.4419 63.7626L38.3482 63.8051C35.3875 65.1459 31.9415 65.4184 29.3624 65.6224C29.054 65.6468 28.7581 65.6702 28.4768 65.6943C25.8289 66.4381 23.7715 67.8085 22.5367 68.9432C21.2426 70.2466 20.2132 70.9495 19.1945 71.3277C18.9254 71.4276 18.673 71.4987 18.4413 71.5524C18.4732 71.6275 18.5104 71.6874 18.5515 71.7382C18.7105 71.9345 19.2904 72.4215 21.3159 72.5618C22.6723 72.4863 23.3692 72.267 23.8359 72.0585C24.0974 71.9417 24.3237 71.8123 24.624 71.6379L24.6542 71.6204C24.9368 71.4563 25.2949 71.2483 25.7183 71.0584L25.7456 71.0462L25.7733 71.0349C27.91 70.1643 29.4571 69.9876 31.4472 69.9737C32.0076 69.9698 32.5903 69.9778 33.2293 69.9865C34.7684 70.0076 36.6349 70.0331 39.3067 69.9079C42.0273 68.9955 44.2047 67.8942 46.221 66.741C46.9694 66.313 47.7317 65.8551 48.5038 65.3913C49.572 64.7495 50.6588 64.0967 51.7532 63.4963C52.1919 61.7859 52.2265 60.6696 51.9473 59.7943C51.6879 58.9808 51.0716 58.121 49.6343 57.1117ZM55.2524 58.7392C55.8945 60.7525 55.5541 62.8918 54.894 65.1587L54.6878 65.8669L54.0349 66.2098C52.7747 66.8719 51.6418 67.554 50.4414 68.2769C49.6557 68.7499 48.841 69.2405 47.9427 69.7543C45.7474 71.0098 43.286 72.2559 40.1676 73.2789L39.9457 73.3517L39.7126 73.3632C36.7969 73.5071 34.6774 73.4783 33.0736 73.4565C32.4719 73.4483 31.9427 73.4412 31.4714 73.4444C29.795 73.4562 28.7136 73.5882 27.1112 74.2375C26.8734 74.3459 26.6601 74.4687 26.3652 74.6399L26.3532 74.6469C26.0627 74.8155 25.6943 75.0294 25.2502 75.2278C24.3046 75.6502 23.1487 75.9465 21.39 76.0335L21.2931 76.0383L21.1964 76.0323C18.7513 75.8797 16.9354 75.2565 15.8556 73.9228C14.7822 72.5969 14.8145 71.0113 14.8838 70.0093L14.9714 68.7423L16.2049 68.4426C16.5512 68.3585 16.8971 68.3038 17.1489 68.264C17.2108 68.2542 17.267 68.2453 17.3161 68.2371C17.5939 68.1907 17.7882 68.1477 17.9877 68.0736C18.3664 67.933 18.9889 67.5958 20.0995 66.473L20.1265 66.4456L20.1548 66.4195C21.7619 64.9327 24.3667 63.2086 27.7168 62.3037L27.8639 62.264L28.0157 62.2505C28.3858 62.2177 28.7605 62.1871 29.1382 62.1562C31.7411 61.9434 34.4843 61.7192 36.8283 60.6831C37.984 59.9888 38.9861 59.4698 39.7917 59.0526C40.1272 58.8788 40.4286 58.7227 40.6929 58.5789C41.6239 58.0724 42.2729 57.6353 42.9575 56.8837L43.0322 56.8018L43.1167 56.7299C45.0432 55.093 46.2374 54.657 47.6494 54.1414C48.1131 53.9721 48.6003 53.7943 49.1446 53.5625L49.9739 53.2093L50.7394 53.6852C53.0301 55.1092 54.5947 56.6767 55.2524 58.7392Z" fill="#FF6961"/>
<path d="M367 12.8142H135.464V40.6082H367V12.8142Z" fill="#FF6961"/>
<path d="M367 66.9244H135.464V94.7184H367V66.9244Z" fill="#FF6961"/>
<path fill-rule="evenodd" clip-rule="evenodd" d="M79.1615 68.3545C81.391 72.5315 84.2155 75.9709 86.1958 81.8882C86.6227 89.8013 85.7171 91.3085 87.2676 95.0468C87.8911 96.4141 88.7809 96.9789 88.9523 100.149C88.6873 104.686 86.7219 104.968 84.7897 104.844C84.4429 103.45 84.7893 102.55 82.3274 100.149C80.9942 98.7283 79.4106 96.379 78.5732 93.3476C78.3127 90.5632 78.1667 86.9442 76.7726 83.9174C74.7666 80.6496 74.467 79.0586 72.5612 77.347C70.5988 75.0701 70.7108 74.2715 69.6358 71.7906C72.2698 67.536 74.7666 67.1022 79.1615 68.3545Z" fill="#FF6961"/>
<path fill-rule="evenodd" clip-rule="evenodd" d="M71.5908 71.9731C71.7511 72.3744 71.8773 72.7139 71.9892 73.0146C72.4259 74.1887 72.6427 74.7715 73.8068 76.1344C74.9029 77.139 75.5468 78.1224 76.1473 79.2088C76.346 79.5682 76.5319 79.9219 76.7245 80.2885C77.1377 81.0746 77.5821 81.9201 78.2507 83.0092L78.3047 83.0973L78.348 83.1911C79.7063 86.1401 79.9946 89.5782 80.2102 92.1492C80.2359 92.4559 80.2606 92.7504 80.2859 93.0301C81.0426 95.6644 82.4243 97.7087 83.5673 98.9349C84.8795 100.219 85.5897 101.244 85.974 102.26C86.0759 102.529 86.1486 102.782 86.2036 103.014C86.2849 102.98 86.3489 102.941 86.4029 102.897C86.5984 102.738 87.0828 102.161 87.2146 100.145C87.1331 98.7947 86.9107 98.1028 86.7004 97.6399C86.5824 97.3802 86.4519 97.1555 86.2757 96.8567L86.2579 96.8265C86.0921 96.5455 85.8818 96.1889 85.6895 95.7671L85.677 95.7397L85.6655 95.7119C84.7824 93.583 84.5983 92.0389 84.5758 90.0527C84.5695 89.4935 84.575 88.9122 84.581 88.2747C84.5955 86.7403 84.6131 84.8803 84.4761 82.2183C83.55 79.5111 82.4369 77.3457 81.2723 75.3407C80.8401 74.5966 80.3777 73.8385 79.9093 73.0706C79.2612 72.008 78.6016 70.9267 77.9948 69.8378C76.2748 69.4066 75.1508 69.3759 74.2696 69.6595C73.453 69.9223 72.5942 70.5406 71.5908 71.9731ZM73.2071 66.3555C75.2186 65.708 77.3612 66.0371 79.6366 66.6854L80.3448 66.8872L80.6916 67.537C81.3608 68.7908 82.0495 69.9171 82.7794 71.111C83.2571 71.8924 83.7526 72.7028 84.2719 73.5968C85.5405 75.7809 86.801 78.2308 87.8406 81.3373L87.9152 81.5601L87.9279 81.7947C88.0847 84.7022 88.065 86.8169 88.05 88.4164C88.0444 89.0163 88.0395 89.5438 88.0448 90.0134C88.0638 91.6834 88.2006 92.7591 88.8576 94.3522C88.9671 94.5882 89.0909 94.8 89.2639 95.0934L89.271 95.1054C89.4413 95.3943 89.6576 95.7612 89.8586 96.2037C90.287 97.1464 90.5895 98.2997 90.6844 100.055L90.6897 100.152L90.684 100.25C90.5413 102.692 89.9229 104.509 88.5895 105.592C87.2673 106.666 85.682 106.64 84.6782 106.576L83.4129 106.494L83.1065 105.263C83.0205 104.917 82.964 104.572 82.923 104.321C82.913 104.259 82.9039 104.203 82.8955 104.155C82.8478 103.878 82.804 103.686 82.7293 103.488C82.5875 103.113 82.2476 102.495 81.1166 101.392L81.089 101.365L81.0627 101.337C79.5648 99.7406 77.8237 97.1493 76.9012 93.8099L76.8604 93.6621L76.8461 93.5094C76.8116 93.1402 76.7792 92.7666 76.7467 92.39C76.5221 89.7954 76.2856 87.0637 75.2379 84.7331C74.5367 83.5835 74.0118 82.5861 73.59 81.7846C73.4143 81.4509 73.2565 81.1511 73.1113 80.8884C72.5998 79.9629 72.159 79.3179 71.4024 78.6384L71.3199 78.5643L71.2475 78.4803C69.5969 76.5653 69.154 75.3747 68.6309 73.9685C68.4592 73.5069 68.2788 73.0221 68.0442 72.4808L67.6835 71.6482L68.1611 70.8768C69.5803 68.5845 71.1454 67.0191 73.2071 66.3555Z" fill="#FF6961"/>
<path d="M367 120.409H3.7561e-06V148.203H367V120.409Z" fill="#FF6961"/>
<path d="M367 174.206H0V202H367V174.206Z" fill="#FF6961"/>
<path fill-rule="evenodd" clip-rule="evenodd" d="M74.7667 70.2104L68.0328 106.962V70.2104H74.7667Z" fill="#FF6961"/>
<path fill-rule="evenodd" clip-rule="evenodd" d="M66.2982 68.475H76.8482L69.739 107.275L66.2982 106.962V68.475ZM69.7674 71.9458V87.8699L72.6852 71.9458H69.7674Z" fill="#FF6961"/>
<path fill-rule="evenodd" clip-rule="evenodd" d="M61.2989 70.2103L68.0328 106.962V70.2104L61.2989 70.2103Z" fill="#FF6961"/>
<path fill-rule="evenodd" clip-rule="evenodd" d="M69.7674 68.4749H59.2174L66.3266 107.274L69.7674 106.962V68.4749ZM66.2982 71.9457V87.8699L63.3804 71.9457H66.2982Z" fill="#FF6961"/>
<path fill-rule="evenodd" clip-rule="evenodd" d="M84.5575 60.5782L105.911 91.2747L79.8046 65.3352L84.5575 60.5782Z" fill="#FF6961"/>
<path fill-rule="evenodd" clip-rule="evenodd" d="M77.3476 65.3397L84.7974 57.8833L107.339 90.2871L104.685 92.5021L77.3476 65.3397ZM82.2617 65.3307L93.5544 76.551L84.3176 63.273L82.2617 65.3307Z" fill="#FF6961"/>
<path fill-rule="evenodd" clip-rule="evenodd" d="M75.0517 70.0922L105.911 91.2747L79.8046 65.3352L75.0517 70.0922Z" fill="#FF6961"/>
<path fill-rule="evenodd" clip-rule="evenodd" d="M79.8001 62.8849L72.3503 70.3413L104.926 92.7018L107.138 90.0472L79.8001 62.8849ZM79.809 67.7854L91.1017 79.0057L77.7532 69.8431L79.809 67.7854Z" fill="#FF6961"/>
<path fill-rule="evenodd" clip-rule="evenodd" d="M84.6373 46.8916L121.503 53.536L84.6503 53.6069L84.6373 46.8916Z" fill="#FF6961"/>
<path fill-rule="evenodd" clip-rule="evenodd" d="M82.919 55.3456L82.8987 44.8149L121.811 51.8281L121.507 55.2714L82.919 55.3456ZM86.3815 51.8681L102.295 51.8375L86.3759 48.9683L86.3815 51.8681Z" fill="#FF6961"/>
<path fill-rule="evenodd" clip-rule="evenodd" d="M84.6632 60.3221L121.503 53.536L84.6503 53.6069L84.6632 60.3221Z" fill="#FF6961"/>
<path fill-rule="evenodd" clip-rule="evenodd" d="M82.9122 51.8748L82.9326 62.4054L121.817 55.2427L121.5 51.8006L82.9122 51.8748ZM86.3881 55.3389L102.302 55.3083L86.3937 58.2387L86.3881 55.3389Z" fill="#FF6961"/>
<path fill-rule="evenodd" clip-rule="evenodd" d="M75.0606 37.189L105.931 16.023L79.8109 41.9486L75.0606 37.189Z" fill="#FF6961"/>
<path fill-rule="evenodd" clip-rule="evenodd" d="M79.8051 44.3989L72.3593 36.9385L104.947 14.5953L107.157 17.251L79.8051 44.3989ZM79.8167 39.4983L91.1153 28.2841L77.7619 37.4396L79.8167 39.4983Z" fill="#FF6961"/>
<path fill-rule="evenodd" clip-rule="evenodd" d="M84.5611 46.7083L105.931 16.023L79.8109 41.9486L84.5611 46.7083Z" fill="#FF6961"/>
<path fill-rule="evenodd" clip-rule="evenodd" d="M77.3537 41.9429L84.7996 49.4033L107.358 17.0114L104.706 14.795L77.3537 41.9429ZM82.2679 41.9545L93.5665 30.7402L84.3227 44.0133L82.2679 41.9545Z" fill="#FF6961"/>
<path fill-rule="evenodd" clip-rule="evenodd" d="M61.2664 37.0804L67.9282 0.316113L68.0003 37.0673L61.2664 37.0804Z" fill="#FF6961"/>
<path fill-rule="evenodd" clip-rule="evenodd" d="M69.7383 38.7993L59.1883 38.8199L66.2214 0.00653263L69.6628 0.312731L69.7383 38.7993ZM66.2623 35.3352L66.231 19.4112L63.3445 35.3409L66.2623 35.3352Z" fill="#FF6961"/>
<path fill-rule="evenodd" clip-rule="evenodd" d="M74.7341 37.0543L67.9282 0.316113L68.0003 37.0673L74.7341 37.0543Z" fill="#FF6961"/>
<path fill-rule="evenodd" clip-rule="evenodd" d="M66.2691 38.8062L76.819 38.7856L69.6338 0L66.1936 0.319623L66.2691 38.8062ZM69.7315 35.3286L69.7003 19.4045L72.6492 35.3229L69.7315 35.3286Z" fill="#FF6961"/>
<path fill-rule="evenodd" clip-rule="evenodd" d="M51.5077 46.7003L30.1521 16.005L56.2603 41.943L51.5077 46.7003Z" fill="#FF6961"/>
<path fill-rule="evenodd" clip-rule="evenodd" d="M58.7174 41.9384L51.268 49.3952L28.7246 16.9926L31.3784 14.7775L58.7174 41.9384ZM53.8032 41.9477L42.51 30.728L51.7475 44.0055L53.8032 41.9477Z" fill="#FF6961"/>
<path fill-rule="evenodd" clip-rule="evenodd" d="M61.013 37.1858L30.1521 16.005L56.2603 41.943L61.013 37.1858Z" fill="#FF6961"/>
<path fill-rule="evenodd" clip-rule="evenodd" d="M56.265 44.3934L63.7144 36.9366L31.1373 14.5778L28.926 17.2325L56.265 44.3934ZM56.2558 39.4928L44.9625 28.2732L58.3115 37.435L56.2558 39.4928Z" fill="#FF6961"/>
<path fill-rule="evenodd" clip-rule="evenodd" d="M51.4907 60.5369L14.5653 54.2284L51.4162 53.822L51.4907 60.5369Z" fill="#FF6961"/>
<path fill-rule="evenodd" clip-rule="evenodd" d="M53.1315 52.0676L53.2483 62.5977L14.2734 55.939L14.5461 52.4931L53.1315 52.0676ZM49.701 55.5765L33.7879 55.752L49.7331 58.4761L49.701 55.5765Z" fill="#FF6961"/>
<path fill-rule="evenodd" clip-rule="evenodd" d="M51.3419 47.1072L14.5653 54.2284L51.4162 53.822L51.3419 47.1072Z" fill="#FF6961"/>
<path fill-rule="evenodd" clip-rule="evenodd" d="M53.1701 55.5382L53.0533 45.0082L14.2357 52.5246L14.5847 55.9637L53.1701 55.5382ZM49.6626 52.1059L33.7496 52.2813L49.6304 49.2063L49.6626 52.1059Z" fill="#FF6961"/>
<path fill-rule="evenodd" clip-rule="evenodd" d="M61.1671 70.1566L30.5058 91.6235L56.3702 65.4437L61.1671 70.1566Z" fill="#FF6961"/>
<path fill-rule="evenodd" clip-rule="evenodd" d="M56.352 62.9934L63.8707 70.3806L31.5041 93.0416L29.2682 90.4076L56.352 62.9934ZM56.3884 67.8939L45.2003 79.2185L58.4634 69.9325L56.3884 67.8939Z" fill="#FF6961"/>
<path fill-rule="evenodd" clip-rule="evenodd" d="M51.5734 60.7307L30.5058 91.6235L56.3702 65.4437L51.5734 60.7307Z" fill="#FF6961"/>
<path fill-rule="evenodd" clip-rule="evenodd" d="M58.8273 65.4253L51.3085 58.0381L29.0692 90.6492L31.7435 92.8394L58.8273 65.4253ZM53.9133 65.4619L42.7251 76.7865L51.8383 63.4232L53.9133 65.4619Z" fill="#FF6961"/>
<path d="M68.0328 72.4152C78.5343 72.4152 87.0474 64.0243 87.0474 53.6737C87.0474 43.323 78.5343 34.9321 68.0328 34.9321C57.5313 34.9321 49.0182 43.323 49.0182 53.6737C49.0182 64.0243 57.5313 72.4152 68.0328 72.4152Z" fill="#FF6961"/>
<path fill-rule="evenodd" clip-rule="evenodd" d="M68.0328 36.6675C58.4648 36.6675 50.7528 44.3058 50.7528 53.6737C50.7528 63.0416 58.4648 70.6798 68.0328 70.6798C77.6008 70.6798 85.3128 63.0416 85.3128 53.6737C85.3128 44.3058 77.6008 36.6675 68.0328 36.6675ZM47.2835 53.6737C47.2835 42.3402 56.5978 33.1967 68.0328 33.1967C79.4678 33.1967 88.782 42.3402 88.782 53.6737C88.782 65.0071 79.4678 74.1506 68.0328 74.1506C56.5978 74.1506 47.2835 65.0071 47.2835 53.6737Z" fill="#FF6961"/>
</svg>
